<svg xmlns="http://www.w3.org/2000/svg" id="Capa_1" enable-background="new 0 0 512 512" height="512" viewBox="0 0 512 512" width="512"><g><g id="Page-1_12_"><g id="_x30_13---AC-Unit"><path id="Shape_84_" d="m460.8 68.267h-409.6c-28.265.028-51.172 22.934-51.2 51.2v238.933c.028 28.265 22.935 51.172 51.2 51.2h8.533v8.533c0 14.138 11.462 25.6 25.6 25.6h25.6c14.138 0 25.6-11.462 25.6-25.6v-8.533h238.933v8.533c0 14.138 11.462 25.6 25.6 25.6h25.6c14.138 0 25.6-11.462 25.6-25.6v-8.533h8.533c28.265-.028 51.172-22.935 51.2-51.2v-238.933c-.027-28.266-22.934-51.172-51.199-51.2zm-341.333 349.866c0 4.713-3.821 8.533-8.533 8.533h-25.6c-4.713 0-8.533-3.82-8.533-8.533v-8.533h42.667v8.533zm315.733 0c0 4.713-3.82 8.533-8.533 8.533h-25.6c-4.713 0-8.533-3.82-8.533-8.533v-8.533h42.666zm59.733-59.733c0 18.851-15.282 34.133-34.133 34.133h-409.6c-18.851 0-34.133-15.282-34.133-34.133v-238.933c0-18.851 15.282-34.133 34.133-34.133h409.6c18.851 0 34.133 15.282 34.133 34.133z"/><path id="Shape_83_" d="m170.667 102.4c-75.405 0-136.533 61.128-136.533 136.533s61.128 136.533 136.533 136.533 136.533-61.127 136.533-136.533c-.089-75.368-61.165-136.444-136.533-136.533zm0 256c-65.98 0-119.467-53.487-119.467-119.467s53.487-119.467 119.467-119.467 119.467 53.487 119.467 119.467c-.071 65.951-53.517 119.396-119.467 119.467z"/><path id="Shape_82_" d="m221.79 208.06c-3.298 3.363-7.156 6.126-11.401 8.166-1.109.546-2.249 1.028-3.413 1.442 7.413-9.959 12.003-21.733 13.286-34.082 1.358-11.274-2.474-22.555-10.419-30.669-5.324-5.377-11.721-9.572-18.773-12.314-12.802-5.748-27.51-5.435-40.055.853-7.964 3.502-14.165 10.086-17.186 18.244-3.996 9.666-1.671 20.793 5.862 28.049 3.355 3.303 6.119 7.156 8.175 11.392.536 1.093 1.009 2.215 1.417 3.362-9.962-7.39-21.734-11.954-34.074-13.21-11.232-1.311-22.458 2.503-30.566 10.385-5.369 5.327-9.559 11.723-12.297 18.773-5.774 12.814-5.46 27.549.853 40.107 3.531 7.901 10.09 14.051 18.202 17.067 3.281 1.206 6.744 1.844 10.24 1.886 6.764-.04 13.226-2.81 17.92-7.68 3.3-3.364 7.161-6.127 11.409-8.166 1.071-.536 2.174-1.007 3.302-1.408-7.376 9.96-11.939 21.72-13.21 34.048-1.357 11.259 2.447 22.528 10.351 30.66 5.326 5.375 11.722 9.57 18.773 12.314 6.144 2.627 12.749 4.005 19.43 4.053 7.183-.021 14.262-1.715 20.676-4.949 7.931-3.522 14.104-10.098 17.118-18.236 3.976-9.657 1.652-20.762-5.862-28.015-3.353-3.317-6.112-7.185-8.158-11.435-.535-1.076-1.008-2.181-1.417-3.311 9.962 7.378 21.725 11.94 34.057 13.21 1.446.152 2.898.229 4.352.23 9.826.042 19.275-3.78 26.308-10.641 5.375-5.327 9.573-11.723 12.322-18.773 5.747-12.825 5.411-27.556-.913-40.107-3.526-7.899-10.078-14.048-18.185-17.067-9.676-4.05-20.849-1.738-28.124 5.822zm-72.457 30.873c0-11.782 9.551-21.333 21.333-21.333 7.622.011 14.659 4.087 18.46 10.693 3.802 6.606 3.79 14.738-.03 21.333s-10.868 10.651-18.49 10.641c-11.758-.033-21.273-9.575-21.273-21.334zm.657-73.497c1.58-3.905 4.678-7 8.585-8.576 8.145-4.105 17.718-4.272 26.001-.452 4.864 1.843 9.284 4.693 12.971 8.363 4.479 4.478 6.612 10.79 5.769 17.067-.951 9.461-4.494 18.476-10.24 26.052-6.483-4.74-14.301-7.306-22.332-7.33-1.38.066-2.756.205-4.122.418-.709-3.201-1.81-6.302-3.277-9.233-2.902-5.954-6.785-11.377-11.486-16.043-2.907-2.604-3.677-6.849-1.869-10.308zm-26.538 80.947c-5.952 2.877-11.367 6.753-16.009 11.46-2.632 2.888-6.889 3.619-10.334 1.775-3.898-1.569-6.996-4.647-8.593-8.533-4.114-8.154-4.271-17.742-.427-26.027 1.839-4.867 4.682-9.293 8.346-12.988 4.488-4.461 10.795-6.584 17.067-5.743 9.468.977 18.489 4.518 26.095 10.24-4.734 6.477-7.299 14.284-7.33 22.306.065 1.395.205 2.785.418 4.164-3.204.708-6.307 1.817-9.233 3.302zm67.848 66.159c-1.576 3.88-4.654 6.957-8.533 8.533-8.139 4.114-17.712 4.284-25.993.461-4.868-1.838-9.293-4.681-12.988-8.346-4.473-4.499-6.598-10.822-5.751-17.109.953-9.466 4.496-18.486 10.24-26.069 6.471 4.74 14.276 7.309 22.298 7.339h.094c1.38-.056 2.756-.19 4.122-.401.713 3.201 1.825 6.3 3.311 9.225 2.884 5.951 6.752 11.372 11.443 16.034 2.839 2.642 3.559 6.857 1.758 10.291v.042zm61.952-59.648c-1.831 4.862-4.669 9.282-8.329 12.971-4.506 4.474-10.832 6.605-17.126 5.769-9.46-.985-18.475-4.525-26.078-10.24 5.95-7.439 8.468-17.052 6.929-26.453 3.208-.707 6.313-1.816 9.242-3.302 5.963-2.883 11.386-6.768 16.034-11.486 2.631-2.865 6.867-3.588 10.3-1.758 3.87 1.59 6.943 4.663 8.533 8.533 4.094 8.118 4.276 17.656.495 25.924z"/><path id="Shape_81_" d="m460.8 110.933h-34.133c-4.713 0-8.533 3.821-8.533 8.533s3.82 8.533 8.533 8.533h34.133c4.713 0 8.533-3.82 8.533-8.533s-3.82-8.533-8.533-8.533z"/><circle id="Oval_5_" cx="426.667" cy="153.6" r="8.533"/><circle id="Oval_4_" cx="460.8" cy="153.6" r="8.533"/><path id="Shape_80_" d="m460.8 179.2h-110.933c-4.713 0-8.533 3.821-8.533 8.533 0 4.713 3.821 8.533 8.533 8.533h110.933c4.713 0 8.533-3.821 8.533-8.533s-3.82-8.533-8.533-8.533z"/><path id="Shape_79_" d="m460.8 213.333h-110.933c-4.713 0-8.533 3.821-8.533 8.533 0 4.713 3.821 8.533 8.533 8.533h110.933c4.713 0 8.533-3.821 8.533-8.533s-3.82-8.533-8.533-8.533z"/><path id="Shape_78_" d="m460.8 247.467h-110.933c-4.713 0-8.533 3.821-8.533 8.533 0 4.713 3.821 8.533 8.533 8.533h110.933c4.713 0 8.533-3.821 8.533-8.533 0-4.713-3.82-8.533-8.533-8.533z"/><path id="Shape_77_" d="m460.8 281.6h-110.933c-4.713 0-8.533 3.821-8.533 8.533 0 4.713 3.821 8.533 8.533 8.533h110.933c4.713 0 8.533-3.821 8.533-8.533s-3.82-8.533-8.533-8.533z"/><path id="Shape_76_" d="m460.8 315.733h-110.933c-4.713 0-8.533 3.821-8.533 8.533s3.821 8.533 8.533 8.533h110.933c4.713 0 8.533-3.82 8.533-8.533s-3.82-8.533-8.533-8.533z"/><path id="Shape_75_" d="m460.8 349.867h-110.933c-4.713 0-8.533 3.82-8.533 8.533s3.821 8.533 8.533 8.533h110.933c4.713 0 8.533-3.82 8.533-8.533s-3.82-8.533-8.533-8.533z"/></g></g></g></svg>