<svg xmlns="http://www.w3.org/2000/svg" height="512" viewBox="0 0 60 60" width="512"><g id="Page-1" fill="none" fill-rule="evenodd"><g id="026---Bath" fill="rgb(0,0,0)" fill-rule="nonzero" transform="translate(-1)"><path id="Shape" d="m60 0h-27c-.740399.00260366-1.4533329.28064791-2 .78-.9933291-.9028176-2.4654891-1.03591478-3.6046342-.325893-1.1391451.71002177-1.6680028 2.09034038-1.2949262 3.37975741.3730765 1.28941703 1.557279 2.17408327 2.8995604 2.16613559.740399-.00260366 1.4533329-.28064791 2-.78.2909545.26338223.6306842.46722004 1 .6v3.989c-.6158338.3727478-.9943428 1.0381666-1 1.758v17.433h-27c-1.48982651-.0059536-2.7568839 1.0854443-2.97169825 2.5597148-.21481436 1.4742704.68811891 2.8818554 2.11769825 3.3012852l2.631 13.827c.77307283 4.0112189 4.14780732 7.0005861 8.223 7.284v1.028c0 1.6568542 1.3431458 3 3 3h1c1.6568542 0 3-1.3431458 3-3v-1h10.13c.1400522.5087947.4122688.9714594.789 1.341l1.235 1.191c1.5383733 1.5913729 4.0351885 1.7503754 5.763.367l.637-.49c.8524867-.656833 2.0405133-.656833 2.893 0l.884.68c1.5722873 1.2128346 3.7647127 1.2128346 5.337 0l.886-.682c.8524867-.656833 2.0405133-.656833 2.893 0l.636.489c1.7276406 1.3827612 4.2237534 1.2237758 5.762-.367l1.236-1.191c.5850895-.5653671.9165692-1.3433885.919-2.157v-43.614c-.0056572-.7198334-.3841662-1.3852522-1-1.758v-3.809c.5522847 0 1-.44771525 1-1v-4c0-.55228475-.4477153-1-1-1zm-27 2h26v2h-26c-.5522847 0-1-.44771525-1-1s.4477153-1 1-1zm17 7.016c-.6053287.13680415-1.1741777.40213058-1.668.778l-.886.682c-.8524867.656833-2.0405133.656833-2.893 0l-.884-.68c-.4939089-.37676449-1.0631362-.64279041-1.669-.78v-3.016h8zm-10-3.016v3.016c-.6053287.13680415-1.1741777.40213058-1.668.778l-.636.49c-.9438512.7746673-2.3285377.6767646-3.154-.223-.1597734-.15198595-.3427312-.27755841-.542-.372v-3.689zm-11-2c-.5522847 0-1-.44771525-1-1s.4477153-1 1-1 1 .44771525 1 1c0 .26521649-.1053568.5195704-.2928932.70710678s-.4418903.29289322-.7071068.29289322zm-25 27h27v2h-27c-.55228475 0-1-.4477153-1-1s.44771525-1 1-1zm3.742 17.313-2.534-13.313h25.792v19h-16.38c-3.3589719-.0032816-6.24367256-2.3884652-6.878-5.687zm11.258 8.687c0 .5522847-.4477153 1-1 1h-1c-.5522847 0-1-.4477153-1-1v-1h3zm40-1.819c.0000068.271596-.1104577.5315124-.306.72l-1.237 1.191c-.8253523.8991459-2.2093103.9970282-3.153.223l-.635-.489c-1.5725261-1.2121339-3.7644739-1.2121339-5.337 0l-.886.682c-.8521283.6578845-2.0408717.6578845-2.893 0l-.884-.68c-1.5725261-1.2121339-3.7644739-1.2121339-5.337 0l-.636.489c-.9438512.7746673-2.3285377.6767646-3.154-.223l-1.236-1.194c-.1955423-.1884876-.3060068-.448404-.306-.72v-43.613c-.0044139-.0379335.0192868-.0734846.056-.084.0328841-.0201911.0756354-.0129234.1.017 1.5378935 1.5921357 4.0350893 1.7515957 5.763.368l.637-.49c.8524867-.656833 2.0405133-.656833 2.893 0l.884.68c1.5725261 1.2121339 3.7644739 1.2121339 5.337 0l.886-.682c.8526058-.6564834 2.0403942-.6564834 2.893 0l.636.49c1.7274889 1.3832418 4.2239649 1.2242334 5.762-.367.024542-.0294834.0667175-.037075.1-.018.0367132.0105154.0604139.0460665.056.084zm-1-45.492c-.1993784.09477412-.3826158.22030693-.543.372-.8253523.8991459-2.2093103.9970282-3.153.223l-.635-.484c-.4935566-.37818959-1.0628082-.64559117-1.669-.784v-3.016h6z"/><path id="Shape" d="m41 16c-.5522847 0-1 .4477153-1 1v11c0 .5522847.4477153 1 1 1s1-.4477153 1-1v-11c0-.5522847-.4477153-1-1-1z"/><path id="Shape" d="m41 31c-.5522847 0-1 .4477153-1 1v20c0 .5522847.4477153 1 1 1s1-.4477153 1-1v-20c0-.5522847-.4477153-1-1-1z"/><path id="Shape" d="m51 16c-.5522847 0-1 .4477153-1 1v3c0 .5522847.4477153 1 1 1s1-.4477153 1-1v-3c0-.5522847-.4477153-1-1-1z"/><path id="Shape" d="m51 27c-.5522847 0-1 .4477153-1 1v16c0 .5522847.4477153 1 1 1s1-.4477153 1-1v-16c0-.5522847-.4477153-1-1-1z"/></g></g></svg>