<svg xmlns="http://www.w3.org/2000/svg" height="512" viewBox="0 0 60 60" width="512"><g id="Page-1" fill="none" fill-rule="evenodd"><g id="049---Beach-Towel" fill="rgb(0,0,0)" fill-rule="nonzero"><path id="Shape" d="m53 0h-46c-3.86393756.00495836-6.99504164 3.13606244-7 7v38c0 1.6568542 1.34314575 3 3 3h9v9c0 1.6568542 1.3431458 3 3 3h42c1.6568542 0 3-1.3431458 3-3v-50c-.0049584-3.86393756-3.1360624-6.99504164-7-7zm-51 7c0-2.76142375 2.23857625-5 5-5s5 2.23857625 5 5v31h-10zm12 45h44v2h-44zm0-2v-23.936l3.034 2.4c1.0317769.711927 2.3962231.711927 3.428 0l3.461-2.409c.3434571-.2391972.7995429-.2391972 1.143 0l3.463 2.411c1.0317769.711927 2.3962231.711927 3.428 0l3.463-2.41c.3434571-.2391972.7995429-.2391972 1.143 0l3.462 2.411c1.0311969.7126146 2.3958031.7126146 3.427 0l3.468-2.417c.3432366-.2387333.7987634-.2387333 1.142 0l3.471 2.413c1.0507573.7184017 2.4383559.7040225 3.474-.036l2.993-2.363v23.936zm44-26.485-4.184 3.306c-.3437773.2370025-.7982227.2370025-1.142 0l-3.474-2.413c-1.0305256-.7135931-2.3954744-.7135931-3.426 0l-3.464 2.411c-.3432366.2387333-.7987634.2387333-1.142 0l-3.462-2.411c-1.0320442-.7110684-2.3959558-.7110684-3.428 0l-3.464 2.41c-.3432366.2387333-.7987634.2387333-1.142 0l-3.463-2.411c-1.0317769-.711927-2.3962231-.711927-3.428 0l-3.461 2.412c-.3244216.2300977-.7547733.2446525-1.094.037l-4.226-3.34v-9.452l3.034 2.4c1.0317769.711927 2.3962231.711927 3.428 0l3.461-2.409c.3434571-.2391972.7995429-.2391972 1.143 0l3.463 2.411c1.0317769.711927 2.3962231.711927 3.428 0l3.463-2.41c.3434571-.2391972.7995429-.2391972 1.143 0l3.462 2.411c1.0311969.7126146 2.3958031.7126146 3.427 0l3.468-2.417c.3432366-.2387333.7987634-.2387333 1.142 0l3.471 2.413c1.0507573.7184017 2.4383559.7040225 3.474-.036l2.993-2.363zm-56 16.485h10v2h-10zm1 6c-.55228475 0-1-.4477153-1-1v-1h10v2zm54 12h-42c-.5522847 0-1-.4477153-1-1v-1h44v1c0 .5522847-.4477153 1-1 1zm1-46.485-4.184 3.306c-.3437773.2370025-.7982227.2370025-1.142 0l-3.474-2.413c-1.0305256-.7135931-2.3954744-.7135931-3.426 0l-3.464 2.411c-.3432366.2387333-.7987634.2387333-1.142 0l-3.462-2.411c-1.0320442-.7110684-2.3959558-.7110684-3.428 0l-3.464 2.41c-.3432366.2387333-.7987634.2387333-1.142 0l-3.463-2.411c-1.0317769-.711927-2.3962231-.711927-3.428 0l-3.461 2.412c-.3242448.2306213-.7549144.2451869-1.094.037l-4.226-3.34v-4.516c.0025347-1.88158826-.7546908-3.68450614-2.1-5h41.1c2.7600532.00330612 4.9966939 2.23994685 5 5z"/></g></g></svg>