<svg xmlns="http://www.w3.org/2000/svg" height="512" viewBox="0 0 60 58" width="512"><g id="Page-1" fill="none" fill-rule="evenodd"><g id="066---Coffee-Beans" fill="rgb(0,0,0)" fill-rule="nonzero"><path id="Shape" d="m36.65 49h10.461c.1105991-.0017035.2201251-.0219861.324-.06.0343278-.0142203.0677271-.0305859.1-.049.0438668-.0161816.0863409-.0359137.127-.059l5.89-3.926 5.078-1.693c.9192425-.3066511 1.4864045-1.2281839 1.346-2.187l-5.876-40.171c0-.027-.021-.048-.027-.075-.0152691-.05946088-.0360248-.117376-.062-.173-.0289708-.07101681-.0665879-.13819032-.112-.2-.0113001-.02340376-.0239894-.04611094-.038-.068-.02-.023-.049-.032-.071-.053-.0602456-.05746681-.1274322-.10718487-.2-.148-.042052-.02420426-.0858384-.04526182-.131-.063-.0791959-.02881438-.1619649-.04664674-.246-.053-.0338639-.00938088-.0682586-.01672734-.103-.022h-35.12c-1.0060153-.00283967-1.8562516.74487069-1.982 1.743l-3.4 26.611c-.069864.5481426.3178574 1.049136.866 1.119s1.049136-.3178574 1.119-.866l3.397-26.607h33.985l-5.746 45h-9.579c-.5522847 0-1 .4477153-1 1s.4477153 1 1 1zm16.528-40.632 4.822 32.948-3.89 1.3v-12.616c0-.5522847-.4477153-1-1-1s-1 .4477153-1 1v13.465l-3.73 2.487z"/><path id="Shape" d="m47 10c.5522847 0 1-.44771525 1-1s-.4477153-1-1-1h-2c-.5522847 0-1 .44771525-1 1s.4477153 1 1 1z"/><path id="Shape" d="m41 10c.5522847 0 1-.44771525 1-1s-.4477153-1-1-1h-2c-.5522847 0-1 .44771525-1 1s.4477153 1 1 1z"/><path id="Shape" d="m35 10c.5522847 0 1-.44771525 1-1s-.4477153-1-1-1h-2c-.5522847 0-1 .44771525-1 1s.4477153 1 1 1z"/><path id="Shape" d="m28.909 10c.5522847 0 1-.44771525 1-1s-.4477153-1-1-1h-2c-.5522847 0-1 .44771525-1 1s.4477153 1 1 1z"/><path id="Shape" d="m22.909 10c.5522847 0 1-.44771525 1-1s-.4477153-1-1-1h-2c-.5522847 0-1 .44771525-1 1s.4477153 1 1 1z"/><path id="Shape" d="m42.221 31.281 1.72-12.009c.0785807-.5724307-.0942421-1.1508743-.4739649-1.5863768-.3797229-.4355024-.929236-.6855025-1.5070351-.6856232h-18.241c-.9944999.0039411-1.8364502.734907-1.98 1.719l-1.721 12.009c-.0786044.5726036.0943471 1.1512146.4742935 1.5867536.3799465.435539.9297329.6854147 1.5077065.6852464h18.24c.9944006-.0047224 1.8361988-.7351873 1.981-1.719zm-20.221-.281 1.72-12h18.24l-1.72 12z"/><path id="Shape" d="m31.824 39.391c-3.513-3.489-10.056-2.643-14.583 1.884-2.4764036 2.3354458-3.9359448 5.5504587-4.064 8.952-.0982033 2.0859239.6880618 4.1164988 2.1654277 5.5923417 1.477366 1.4758429 3.5087508 2.2600131 5.5945723 2.1596583 3.4116197-.1189348 6.6415379-1.5670148 9-4.035 2.4746637-2.3332781 3.933773-5.545258 4.063-8.944.065324-2.087393-.7200358-4.1117876-2.176-5.609zm-13.171 3.3c1.9792542-2.0959464 4.6952327-3.3411732 7.575-3.473 1.5512304-.0511655 3.0582519.5215315 4.184 1.59.053.053.09.119.141.175-.6406833.3680264-1.3568178.5851923-2.094.635-3.1258854.2433647-5.6107626 2.7235774-5.86 5.849-.1221645 2.2456346-1.9181063 4.0376947-4.164 4.155-1.0116089.0843338-1.9908782.3971939-2.864.915-.2696854-.738867-.4031776-1.5205075-.394-2.307.1426114-2.8673463 1.3880674-5.5685812 3.476-7.539zm9.872 9.835c-3.75 3.752-9.027 4.6-11.758 1.885-.054-.054-.091-.12-.142-.176.6405576-.3681643 1.3568025-.5850217 2.094-.634 3.1265965-.243844 5.6118172-2.7248244 5.861-5.851.1245329-2.2429589 1.9186909-4.0319439 4.162-4.15 1.0111972-.0848253 1.9900335-.3976563 2.863-.915.2693095.7386477.4031202 1.5198307.395 2.306-.1430559 2.8658726-1.3881127 5.5655858-3.475 7.535z"/><path id="Shape" d="m17.093 37.6c.2713904.4712703.8696442.6392678 1.3466934.378169s.6579907-.8555657.4073066-1.338169c-1.933-3.52-5.092-5.629-8.454-5.64-.60219224.0008821-1.20246322.0679515-1.79.2-5 1.117-8.614 6.711-8.6 13.3-.014 7.433 4.647 13.489 10.39 13.5.6060806.0035914 1.2104019-.0655698 1.8-.206.0746247-.0185111.1470414-.0449969.216-.079.3465839-.1730567.5620378-.530718.553-.918-.0304061-1.6864487-.657125-3.3076279-1.769-4.576-.8937856-.9649282-1.38186224-2.2368638-1.363-3.552-.01519208-1.3190018.4708836-2.5945932 1.36-3.569 2.3533884-2.7381444 2.3533884-6.7848556 0-9.523-.6413865-.7273363-1.0846242-1.6076125-1.287-2.556.166-.014.3283333-.021.487-.021 2.659.009 5.102 1.687 6.703 4.6zm-6.136 2.73c.0146857 1.3201309-.473309 2.5964249-1.365 3.57-2.35353655 2.7384686-2.35353655 6.7855314 0 9.524.642751.7275715 1.0861425 1.6091866 1.287 2.559-.156.013-.316.019-.48.019-4.642-.011-8.408-5.169-8.399-11.502-.008-5.057 2.489-9.545 5.961-11 .26889364 1.210668.83180178 2.3364843 1.639 3.278.8912478.9660786 1.3770787 2.2377598 1.357 3.552z"/><path id="Shape" d="m27 24h10c.5522847 0 1-.4477153 1-1s-.4477153-1-1-1h-10c-.5522847 0-1 .4477153-1 1s.4477153 1 1 1z"/><path id="Shape" d="m35 26h-7c-.5522847 0-1 .4477153-1 1s.4477153 1 1 1h7c.5522847 0 1-.4477153 1-1s-.4477153-1-1-1z"/></g></g></svg>