<svg xmlns="http://www.w3.org/2000/svg" id="Capa_1" enable-background="new 0 0 511.964 511.964" height="512" viewBox="0 0 511.964 511.964" width="512"><g><g id="Page-1_22_"><g id="_x30_23---Double-Bedding"><path id="Shape_51_" d="m435.182 511.964c18.851 0 34.133-15.282 34.133-34.133v-384c0-18.851-15.282-34.133-34.133-34.133h-.452c-.988-14.473-4.293-28.694-9.788-42.121-2.213-5.327-6.92-9.213-12.57-10.377-46.885-9.6-95.229-9.6-142.114 0-5.65 1.164-10.357 5.05-12.57 10.377-.666 1.621-1.135 3.251-1.707 4.873-.597-1.621-1.067-3.251-1.707-4.873-2.213-5.327-6.92-9.213-12.57-10.377-46.885-9.6-95.229-9.6-142.114 0-5.65 1.164-10.357 5.05-12.57 10.377-5.493 13.427-8.798 27.647-9.788 42.121h-.452c-18.851 0-34.133 15.282-34.133 34.133v384c0 18.851 15.282 34.133 34.133 34.133zm-161.511-488.039c44.685-9.162 90.767-9.136 135.441.077 5.836 13.936 8.911 28.873 9.054 43.981 0 .085-.051.162-.051.247s.051.162.051.247c-.139 15.097-3.211 30.022-9.045 43.947-.04.054-.097.093-.162.111-44.685 9.161-90.767 9.135-135.441-.077-5.836-13.949-8.894-28.903-9.003-44.023v-.41c.15-15.156 3.26-30.137 9.156-44.1zm-170.666 0c44.685-9.162 90.767-9.136 135.441.077 5.812 13.889 8.884 28.772 9.045 43.827v.802c-.158 15.044-3.226 29.915-9.037 43.793-.04.054-.097.093-.162.111-44.685 9.161-90.767 9.135-135.441-.077-5.836-13.961-8.894-28.926-9.003-44.058 0-.06 0-.111 0-.171s0-.111 0-.171c.142-15.166 3.253-30.16 9.157-44.133zm-26.223 52.839h.452c.996 14.475 4.309 28.696 9.813 42.121 2.208 5.32 6.904 9.205 12.544 10.377 23.383 4.792 47.188 7.216 71.057 7.236 23.867-.009 47.673-2.422 71.057-7.202 5.64-1.172 10.336-5.056 12.544-10.377.666-1.621 1.135-3.251 1.707-4.873.597 1.621 1.067 3.251 1.707 4.873 2.208 5.32 6.904 9.205 12.544 10.377 23.401 4.784 47.224 7.197 71.108 7.202 23.867-.009 47.673-2.422 71.057-7.202 5.64-1.172 10.336-5.056 12.544-10.377 5.506-13.436 8.819-27.669 9.813-42.155h.452c9.426 0 17.067 7.641 17.067 17.067v52.907l-392.533 89.983v-142.891c0-9.425 7.641-17.066 17.067-17.066zm338.773 95.931-234.197 151.535c-6.122 3.959-14.083 3.592-19.814-.913l-91.042-71.561zm-355.84 305.135v-17.067h59.733c4.713 0 8.533-3.821 8.533-8.533s-3.821-8.533-8.533-8.533h-59.733v-178.714l91.307 71.723c11.466 9.008 27.387 9.738 39.629 1.818l261.598-169.276v274.449h-281.6c-4.713 0-8.533 3.82-8.533 8.533s3.821 8.533 8.533 8.533h281.6v17.067c0 9.426-7.641 17.067-17.067 17.067h-358.4c-9.426 0-17.067-7.641-17.067-17.067z"/><g clip-rule="evenodd" fill-rule="evenodd"><path id="Path_87_" d="m119.449 76.764c4.713 0 8.533-3.821 8.533-8.533.016-4.764.467-9.517 1.348-14.199 8.226-1.135 16.521-1.946 24.747-2.398 2.26-.128 4.376-1.148 5.884-2.836s2.283-3.907 2.154-6.166c-.324-4.674-4.313-8.239-8.994-8.038-10.692.597-21.513 1.749-32.154 3.413-3.359.527-6.084 2.998-6.938 6.289-2.041 7.816-3.088 15.858-3.115 23.936 0 2.263.899 4.434 2.499 6.034s3.772 2.498 6.036 2.498z"/><path id="Path_86_" d="m290.115 76.764c4.713 0 8.533-3.821 8.533-8.533.016-4.764.467-9.517 1.348-14.199 8.226-1.135 16.521-1.946 24.747-2.398 2.26-.128 4.376-1.148 5.884-2.836s2.283-3.907 2.154-6.166c-.32-4.676-4.311-8.244-8.994-8.038-10.692.597-21.513 1.749-32.154 3.413-3.359.527-6.085 2.998-6.938 6.289-2.041 7.816-3.088 15.858-3.115 23.936.002 4.711 3.822 8.532 8.535 8.532z"/></g></g></g></g></svg>