<svg xmlns="http://www.w3.org/2000/svg" height="512" viewBox="0 0 60 60" width="512"><g id="Page-1" fill="none" fill-rule="evenodd"><g id="011---Sleep" fill="rgb(0,0,0)" fill-rule="nonzero"><path id="Shape" d="m26 24c0-.5522847-.4477153-1-1-1s-1 .4477153-1 1-.4477153 1-1 1-1-.4477153-1-1-.4477153-1-1-1-1 .4477153-1 1c0 1.6568542 1.3431458 3 3 3s3-1.3431458 3-3z"/><path id="Shape" d="m39 23c-.5522847 0-1 .4477153-1 1s-.4477153 1-1 1-1-.4477153-1-1-.4477153-1-1-1-1 .4477153-1 1c0 1.6568542 1.3431458 3 3 3s3-1.3431458 3-3c0-.5522847-.4477153-1-1-1z"/><path id="Shape" d="m30 30c.5600167 0 1.0139999-.4539833 1.0139999-1.014s-.4539832-1.014-1.0139999-1.014c-.007732-.5522847-.4617153-.993732-1.014-.986s-.993732.4617153-.986 1.014c-.0112942.5338153.1957906 1.0491116.5733395 1.4266605s.8928452.5846337 1.4266605.5733395z"/><path id="Shape" d="m34.46 31.12c-.4877398-.2479757-1.0842428-.0615685-1.344.42-.6975384 1.01515-1.8895544 1.5736685-3.116 1.46-1.2243385.1122301-2.4138879-.4452636-3.111-1.458-.2566098-.4794737-.8493461-.6659856-1.3342788-.4198476s-.6842713.8346846-.4487212 1.3248476c1.0269005 1.6978031 2.9140103 2.6822312 4.894 2.553 1.9820329.1313026 3.8719214-.8533679 4.9-2.553.2423162-.4881312.045953-1.0803447-.44-1.327z"/><path id="Shape" d="m60 24c0-24-3.632-24-5-24-2.369 0-4.513 1.955-6.1 5.49-1.67-.3-3.452-.555-5.325-.77.1948983-1.42522509-.0401384-2.87618526-.675-4.167-.1436741-.28749334-.4167726-.48841051-.734-.54-.3173877-.04988908-.6395932.05404819-.868.28-1.039 1.037-4.686 1.707-9.298 1.707h-6c-2.756077.00091089-5.439564.8836092-7.658 2.519-2.583.244-5.008.572-7.242.971-1.587-3.535-3.731-5.49-6.1-5.49-1.368 0-5 0-5 24 0 18.287 2.108 22.636 3.717 23.672-2.19179376 3.3938815-3.47195982 7.29534-3.717 11.328 0 .5522847.44771525 1 1 1h58c.5522847 0 1-.4477153 1-1-.2450402-4.03266-1.5252062-7.9341185-3.717-11.328 1.609-1.036 3.717-5.385 3.717-23.672zm-28-20c2.637 0 6.981-.21 9.491-1.455.4834746 1.30617094.059827 2.77495083-1.045 3.623-.3042178.19515604-.4794522.53928349-.4583434.90010032s.2352753.68216321.5601743.84051411c.324899.15835089.7099611.12905957 1.0071691-.07661443.1616684-.10861397.3169271-.22647699.465-.353 1.9106341 2.03871355 2.9757676 4.7269245 2.98 7.521v6.318l-.029.01c-1.232-2.996-3.954-6.328-9.971-6.328h-.219l-.81-3.243c-.0934431-.3746096-.3941888-.6619628-.7726638-.7382562-.3784749-.0762933-.7670597.0721039-.9983362.3812562l-2.7 3.6h-4.5c-6.015 0-8.739 3.329-9.975 6.325l-.025-.008v-6.317c.0071635-6.07216255 4.9278374-10.9928365 11-11zm-2 32c-2.0389948-.0018046-4.0761717.1217619-6.1.37-2.8966633-1.612875-5.2811619-4.008116-6.881-6.912-.6248798-1.0487125-.9753419-2.2380137-1.019-3.458 0-.368.1-9 9-9h5c.3147573 0 .6111456-.1481942.8-.4l1.74-2.319.49 1.962c.1114591.4449311.5113206.7569879.97.757h1c8.856 0 9 8.635 9 9-.0431408 1.2201102-.3928991 2.4097011-1.017 3.459-1.6007041 2.9036558-3.9858665 5.2985211-6.883 6.911-2.0238283-.2482381-4.0610052-.3718046-6.1-.37zm-16.158-12.923c.192005.03104.380552.0806047.563.148-.2330592.9080138-.3688237 1.838252-.405 2.775.0167811.9597584.2005244 1.909268.543 2.806-.9281596-.5746996-1.6474175-1.4320607-2.052-2.446-.5378791-.9025968-.6272483-2.0034629-.242-2.981.1348581-.2536202.4077288-.4026375.694-.379.3014426-.0032238.6024962.0225616.899.077zm31.754.151c.1946119-.0708726.3955134-.123107.6-.156.2870712-.0514538.5783758-.0755618.87-.072.2883044-.0258632.5640653.1234416.7.379.3845069.9756318.296279 2.0742354-.239 2.976-.4061041 1.0176072-1.1291254 1.8773784-2.062 2.452.3397393-.8975688.5207705-1.8473907.535-2.807-.0347819-.9355589-.1688679-1.8647745-.4-2.772zm-43.596.772c0-18.048 2.166-22 3-22 1.859 0 3.284 2.219 4.091 3.877-1.50673764.29498207-2.99179456.69155407-4.445 1.187-.45271178.17024763-.71869234.64009397-.63169591 1.11587105s.50203149.82109887.98569591.82012895c.12020309-.0002591.23939871-.02193103.352-.064 1.74648954-.58131092 3.53418822-1.03057551 5.348-1.344 1.63-.31 3.389-.575 5.236-.8-1.8989691 2.31383304-2.936605 5.2146897-2.936 8.208v6h-.06c-.99345-.025779-1.9207548.4962621-2.414 1.359-.75866219 1.5875679-.67998275 3.4481492.21 4.966.875 1.575 2.039 3.675 4.687 3.675.056 0 .121-.013.178-.015 1.3628479 2.2872126 3.168441 4.2794505 5.311 5.86-8 1.592-12.948 5.245-15.995 9.144-.886-.251-2.917-4.508-2.917-21.989zm.054 34c.381-4.221 3.446-20 27.946-20 24.435 0 27.548 15.776 27.943 20zm37.034-21.156c2.1423781-1.5810481 3.9482097-3.573174 5.312-5.86.059 0 .126.015.184.015 2.647 0 3.812-2.1 4.687-3.68.8872643-1.5170645.9647998-3.3752944.207-4.961-.4946392-.8617045-1.4217346-1.3830277-2.415-1.358h-.063v-6c-.0062832-2.9943146-1.0446125-5.89492634-2.94-8.213 1.853.227 3.61.5 5.242.8 1.8128012.31355639 3.5994928.76281991 5.345 1.344.1126027.04389351.2321572.06726253.353.069.4838544.00145741.8993439-.34371319.9866126-.81963483.0872687-.47592163-.1787206-.94605348-.6316126-1.11636517-1.4532054-.49544593-2.9382624-.89201793-4.445-1.187.806-1.658 2.231-3.877 4.09-3.877.834 0 3 3.952 3 22 0 17.481-2.031 21.738-2.917 21.988-3.047-3.899-7.992-7.552-15.995-9.144z"/></g></g></svg>