<svg xmlns="http://www.w3.org/2000/svg" height="512" viewBox="0 0 60 60" width="512"><g id="Page-1" fill="none" fill-rule="evenodd"><g id="038---Light-Bulb" fill="rgb(0,0,0)" fill-rule="nonzero" transform="translate(0 -1)"><path id="Shape" d="m.88 50.218c1.17149955 1.1711458 3.07050045 1.1711458 4.242 0l4.6-4.6 5.664 5.665-4.605 4.595c-.7582962.7584748-1.0543493 1.8638807-.7766389 2.8998219s1.0869934 1.8450337 2.123 2.1225c1.0360066.2774664 2.1413427-.0188471 2.8996389-.7773219l4.725-4.733c1.1421865.5606272 2.5148106.329173 3.41-.575l2.123-2.123 5.66 5.661c1.1719483 1.171672 3.0718278 1.1714481 4.2434999-.0005001s1.1714482-3.0718278-.0004999-4.2434999l-2.123-2.123.709-.709c1.5615278-1.5619994 1.5615278-4.0940006 0-5.656l-1.414-1.421 2.123-2.123c.7501901-.7501514 1.1716458-1.7675983 1.1716458-2.8285s-.4214557-2.0783486-1.1716458-2.8285l-1.415-1.416.686-.686c.4917286-.4495093 1.1861511-.6020458 1.821-.4 1.3800504.3613268 2.8482789-.0342581 3.86-1.04l19.1-19.1c1.3141246-1.3124717 1.5537953-3.3560891.579-4.937 1.3741969-1.98748692 1.1304893-4.67332099-.579-6.381-1.7205659-1.70916921-4.4123892-1.9559022-6.415-.588-1.5741569-.95823226-3.599871-.71307952-4.9.593l-19.1 19.1c-1.0064686 1.0113021-1.4021656 2.4799467-1.04 3.86.2016183.6348684.0491293 1.3290745-.4 1.821l-.687.687-1.416-1.416c-1.5619994-1.5615278-4.0940006-1.5615278-5.656 0l-2.121 2.123-1.416-1.416c-1.5821292-1.5121388-4.0738708-1.5121388-5.656 0l-.709.709-2.125-2.123c-1.1875836-1.135503-3.0584164-1.135503-4.246 0-1.17114581 1.1714996-1.17114581 3.0705004 0 4.242l5.661 5.66-2.123 2.125c-.89058917.8981091-1.12073692 2.2589828-.575 3.4l-4.732 4.737c-.56289247.562797-.87904712 1.3262246-.87885957 2.1222072.00018756.7959826.31670195 1.5592612.87985957 2.1217928zm12.734 8.49c-.3973002.3765137-1.0196998.3765137-1.417 0-.1880834-.1876085-.2937876-.4423455-.2937876-.708s.1057042-.5203915.2937876-.708l4.603-4.592 1.41 1.4zm14.486-30.048c.9560449-.9930719 1.3057362-2.4227597.916-3.745-.1823213-.6918856.0155505-1.4285776.52-1.936l19.1-19.1c.6488441-.65573537 1.6631569-.77988626 2.451-.3.6829387.41913855 1.5481135.39918201 2.211-.051 1.1929328-.82742354 2.8071725-.68189847 3.832888.34553809 1.0257156 1.02743657 1.1685343 2.64191795.339112 3.83346191-.4522098.66223598-.4721941 1.52861766-.051 2.211.4787518.7880877.3546934 1.8016449-.3 2.451l-19.1 19.1c-.5074273.5044429-1.2439381.7026465-1.936.521-1.3222147-.3908194-2.7524507-.040994-3.745.916l-.687.686-1.415-1.415 4.246-4.245c1.1719482 1.1719482 3.0720518 1.1719482 4.244 0s1.1719482-3.0720518 0-4.244l9.9-9.9c.3789722-.3923789.3735524-1.0160848-.0121814-1.4018186s-1.0094397-.3911536-1.4018186-.0121814l-9.9 9.9c-.7581176-.7581176-1.863098-1.0541963-2.8987059-.776706s-1.8445098 1.0863922-2.1220001 2.1220001.0185884 2.1405883.776706 2.8987059l-4.245 4.245-1.416-1.415zm9.213-3.56c.2533013.2524081.3527032.6207775.260762.966347-.0919412.3455694-.3612575.6158387-.7065.709s-.7139607-.0049388-.967262-.257347l-1.418-1.418c-.187777-.1875683-.2932867-.4420908-.2932867-.7075s.1055097-.5199317.2932867-.7075c.3956857-.3776519 1.0183143-.3776519 1.414 0zm-16.977 2.831c.7915755-.7547943 2.0364245-.7547943 2.828 0 2.03 2.028 6.142 6.142 9.905 9.9.375248.375096.5860729.8839266.5860729 1.4145s-.2108249 1.039404-.5860729 1.4145l-2.123 2.123-12.734-12.729zm-9.9 1.416.709-.709c.791167-.755814 2.036833-.755814 2.828 0l18.394 18.4c.7807639.7809997.7807639 2.0470003 0 2.828l-.709.709zm-6.385-2.1.02-.02c.39534953-.3775255 1.01765047-.3775255 1.413 0 12.431 12.431 23.946 23.94 28.3 28.3.1880834.1876085.2937876.4423455.2937876.708s-.1057042.5203915-.2937876.708c-.3958895.3771429-1.0181105.3771429-1.414 0l-28.3-28.3c-.38788664-.3822763-.39855596-1.0046533-.024-1.4zm3.549 12.003 2.123-2.123c8.813 8.814 5.364 5.365 14.149 14.149l-2.122 2.124c-.1875683.187777-.4420908.2932867-.7075.2932867s-.5199317-.1055097-.7075-.2932867l-12.735-12.734c-.1880834-.1876085-.29378757-.4423455-.29378757-.708s.10570417-.5203915.29378757-.708zm-5.307 8.138 4.6-4.6 1.417 1.412-4.6 4.6c-.39534953.3775255-1.01765047.3775255-1.413 0-.39015867-.3891667-.39194752-1.020629-.004-1.412z"/></g></g></svg>