<svg xmlns="http://www.w3.org/2000/svg" height="512" viewBox="0 0 60 60" width="512"><g id="018---Car-Door-Open"><path id="Shape" d="m23.283 38.888-5-.715c-.5739979-.0820462-1.1553504.0890539-1.5933901.468957-.4380398.3799031-.6896457.931211-.6896099 1.511043v1.847c0 1.1045695.8954305 2 2 2h5c1.1045695 0 2-.8954305 2-2v-1.133c-.0038619-.9936243-.7338565-1.8350101-1.717-1.979zm-5.283 3.112v-1.847l5 .714v1.133z"/><path id="Shape" d="m41.717 38.173-5 .715c-.9831435.1439899-1.7131381.9853757-1.717 1.979v1.133c0 1.1045695.8954305 2 2 2h5c1.1045695 0 2-.8954305 2-2v-1.847c.0000358-.579832-.2515701-1.1311399-.6896099-1.511043-.4380397-.3799031-1.0193922-.5510032-1.5933901-.468957zm.283 3.827h-5v-1.133l5-.714z"/><path id="Shape" d="m32 38h-4c-.5522847 0-1 .4477153-1 1s.4477153 1 1 1h4c.5522847 0 1-.4477153 1-1s-.4477153-1-1-1z"/><path id="Shape" d="m32 42h-4c-.5522847 0-1 .4477153-1 1s.4477153 1 1 1h4c.5522847 0 1-.4477153 1-1s-.4477153-1-1-1z"/><path id="Shape" d="m23 28.667c.482 0 .5-.117 2.64-1.9.4241547-.3540145.4810145-.9848453.127-1.409s-.9848453-.4810145-1.409-.127l-2 1.666c-.3251434.2694163-.446018.7140285-.3020378 1.1109832.1439801.3969547.5217813.6606913.9440378.6590168z"/><path id="Shape" d="m24.231 31.64c.1698334.2042121.413931.3324707.6784483.3564836.2645172.0240129.5277208-.0581928.7315517-.2284836l6-5c.27438-.2290072.4057436-.5869986.3446075-.9391223-.0611361-.3521236-.3054839-.6448836-.641-.768s-.7112275-.0578849-.9856075.1711223l-6 5c-.4240023.3535422-.4812979.9837941-.128 1.408z"/><path id="Shape" d="m4 46h8.184c.3025307.846935.969065 1.5134693 1.816 1.816v1.574c-5.306 1.091-8 2.64-8 4.61 0 7.98 48 8 48 0 0-1.97-2.694-3.519-8-4.61v-1.574c1.1943509-.4222546 1.9947486-1.5492146 2-2.816v-6c-.0011503-1.2938037-.5061789-2.5362888-1.408-3.464 1.1273215-.7124332 1.6490265-2.083503 1.280465-3.3651337-.3685614-1.2816308-1.5389012-2.1661154-2.872465-2.1708663h-2.709l-1.3-3.679c-.7534029-2.5563266-3.0969729-4.3138007-5.762-4.321h-10.458c-2.2751007.0071796-4.3523439 1.2946759-5.371 3.329-7.53-2.814-4.637-2.329-15.4-2.329-2.209139 0-4 1.790861-4 4v15c0 2.209139 1.790861 4 4 4zm-2-4v-6h11.026c-.6618067.8603889-1.0223232 1.9145307-1.026 3v5h-8c-1.1045695 0-2-.8954305-2-2zm12.287-8.306c-.2775156-.2878831-.3568564-.7134098-.2017349-1.0819595.1551216-.3685497.5148801-.6092608.9147349-.6120405h2l-.707 2c-1.293 0-1.616.091-2.006-.306zm1.713 14.306h3v3c0 .5522847-.4477153 1-1 1h-1c-.5522847 0-1-.4477153-1-1zm36 6c0 .814-5.742 4-22 4s-22-3.186-22-4c0-.287 1.064-1.506 6.043-2.577.2098643 1.4736303 1.468515 2.5705336 2.957 2.577h1c1.6568542 0 3-1.3431458 3-3v-3h18v3c0 1.6568542 1.3431458 3 3 3h1c1.488485-.0064664 2.7471357-1.1033697 2.957-2.577 4.979 1.071 6.043 2.29 6.043 2.577zm-11-6h3v3c0 .5522847-.4477153 1-1 1h-1c-.5522847 0-1-.4477153-1-1zm5-3c0 .5522847-.4477153 1-1 1h-30c-.5522847 0-1-.4477153-1-1v-6c0-1.6568542 1.3431458-3 3-3h26c1.6568542 0 3 1.3431458 3 3zm-1-13c.4042387.003293.7667342.2496464.9186036.6242868.1518695.3746405.0632373.8038692-.2246036 1.0877132-.374.384-.759.288-1.988.288l-.706-2zm-20.229-8h10.458c1.7835187.0053647 3.3497074 1.1866253 3.845 2.9.178.591-.725-2.045 2.511 7.1h-23.171c.6-1.7-1.423 4.019 2.512-7.1.4952926-1.7133747 2.0614813-2.8946353 3.845-2.9zm-20.771 1c8.318 0 8.484-.128 9.841.387l4.859 1.813-.991 2.8h-2.709c-.9739959-.0015479-1.887703.4714122-2.448789 1.2675611-.5610859.7961489-.6992213 1.8156932-.370211 2.7324389h-10.181v-7c0-1.1045695.8954305-2 2-2z"/><path id="Shape" d="m7 38h-2c-.55228475 0-1 .4477153-1 1s.44771525 1 1 1h2c.55228475 0 1-.4477153 1-1s-.44771525-1-1-1z"/><path id="Shape" d="m48 0c-6.627417 0-12 5.372583-12 12s5.372583 12 12 12 12-5.372583 12-12c-.0071648-6.62444695-5.375553-11.99283515-12-12zm0 22c-5.5228475 0-10-4.4771525-10-10s4.4771525-10 10-10 10 4.4771525 10 10c-.0060624 5.5203344-4.4796656 9.9939376-10 10z"/><path id="Shape" d="m48 5c-.5522847 0-1 .44771525-1 1v8c0 .5522847.4477153 1 1 1s1-.4477153 1-1v-8c0-.55228475-.4477153-1-1-1z"/><circle id="Oval" cx="48" cy="18" r="1"/></g></svg>