<svg xmlns="http://www.w3.org/2000/svg" height="512" viewBox="0 0 60 49" width="512"><g id="Page-1" fill="none" fill-rule="evenodd"><g id="037---Cash-Lock" fill="rgb(0,0,0)" fill-rule="nonzero"><path id="Shape" d="m28 9.5c0 .5522847.4477153 1 1 1s1-.4477153 1-1c-.0965423-2.24159872-1.7783513-4.09537268-4-4.409v-.091c0-.55228475-.4477153-1-1-1s-1 .44771525-1 1v.091c-2.2216487.31362732-3.9034577 2.16740128-4 4.409.0965423 2.2415987 1.7783513 4.0953727 4 4.409v4.937c-1.1128409-.2524624-1.9267959-1.2072317-2-2.346 0-.5522847-.4477153-1-1-1s-1 .4477153-1 1c.0965423 2.2415987 1.7783513 4.0953727 4 4.409v.091c0 .5522847.4477153 1 1 1s1-.4477153 1-1v-.091c2.2216487-.3136273 3.9034577-2.1674013 4-4.409-.0965423-2.2415987-1.7783513-4.0953727-4-4.409v-4.937c1.1128409.25246244 1.9267959 1.20723172 2 2.346zm-6 0c.0732041-1.13876828.8871591-2.09353756 2-2.346v4.692c-1.1128409-.2524624-1.9267959-1.2072317-2-2.346zm6 7c-.0732041 1.1387683-.8871591 2.0935376-2 2.346v-4.692c1.1128409.2524624 1.9267959 1.2072317 2 2.346z"/><path id="Shape" d="m2 26h2v3c0 1.1045695.8954305 2 2 2h2v3c0 1.1045695.8954305 2 2 2h21c.5522847 0 1-.4477153 1-1s-.4477153-1-1-1h-21v-3h21c.5522847 0 1-.4477153 1-1s-.4477153-1-1-1h-25v-3h19c6.617 0 12-5.832 12-13 .0496733-4.37111431-2.0578731-8.48595462-5.634-11h16.634v13c0 .5522847.4477153 1 1 1s1-.4477153 1-1v-13c0-1.1045695-.8954305-2-2-2h-37c-.5522847 0-1 .44771525-1 1s.4477153 1 1 1h7.634c-3.5761269 2.51404538-5.6836733 6.62888569-5.634 11-.0496733 4.3711143 2.0578731 8.4859546 5.634 11h-16.634v-22h4c.55228475 0 1-.44771525 1-1s-.44771525-1-1-1h-4c-1.1045695 0-2 .8954305-2 2v22c0 1.1045695.8954305 2 2 2zm13-13c0-6.065 4.486-11 10-11s10 4.935 10 11-4.486 11-10 11-10-4.935-10-11z"/><path id="Shape" d="m9 4h-4c-.55228475 0-1 .44771525-1 1v4c0 .55228475.44771525 1 1 1s1-.44771525 1-1v-3h3c.55228475 0 1-.44771525 1-1s-.44771525-1-1-1z"/><path id="Shape" d="m45 10c.5522847 0 1-.44771525 1-1v-4c0-.55228475-.4477153-1-1-1h-4c-.5522847 0-1 .44771525-1 1s.4477153 1 1 1h3v3c0 .55228475.4477153 1 1 1z"/><path id="Shape" d="m5 16c-.55228475 0-1 .4477153-1 1v4c0 .5522847.44771525 1 1 1h4c.55228475 0 1-.4477153 1-1s-.44771525-1-1-1h-3v-3c0-.5522847-.44771525-1-1-1z"/><path id="Shape" d="m56 28h-1v-4c-.0033074-3.3123376-2.6876624-5.9966926-6-6h-4c-3.3123376.0033074-5.9966926 2.6876624-6 6v4h-1c-2.209139 0-4 1.790861-4 4v13c0 2.209139 1.790861 4 4 4h18c2.209139 0 4-1.790861 4-4v-13c0-2.209139-1.790861-4-4-4zm-15-4c0-2.209139 1.790861-4 4-4h4c2.209139 0 4 1.790861 4 4v4h-12zm17 21c0 1.1045695-.8954305 2-2 2h-18c-1.1045695 0-2-.8954305-2-2v-13c0-1.1045695.8954305-2 2-2h18c1.1045695 0 2 .8954305 2 2z"/><path id="Shape" d="m50.944 36.321c-.3470652-2.0526131-2.2104844-3.4958831-4.2846696-3.3185957-2.0741851.1772875-3.665642 1.9158572-3.6593304 3.9975957-.0027234.9162695.3117395 1.8052455.89 2.516l-.524 1.972c-.1589422.6001785-.0301363 1.2401377.3486216 1.7320923.378758.4919545.9645106.7801084 1.5853784.7799077h3.4c.6210961.0002831 1.2070756-.2880042 1.5858782-.7802125.3788026-.4922084.507433-1.1324706.3481218-1.7327875l-.524-1.97c.7268454-.8947278 1.0309766-2.0601997.834-3.196zm-2.911 3.165.667 2.514h-3.4l.667-2.514c.0974596-.3682308-.0227407-.7598512-.31-1.01-.4222111-.3737894-.6618352-.9121229-.657-1.476-.000569-.5934875.2624737-1.1565746.718-1.537.358849-.3015776.8132629-.4656912 1.282-.463.1311509.0002141.2620149.0122629.391.036.8064781.1611438 1.4330314.7980009 1.581 1.607.124378.6783906-.1135877 1.3725834-.628 1.832-.2880006.2501052-.4086359.6422667-.311 1.011z"/></g></g></svg>