<svg xmlns="http://www.w3.org/2000/svg" id="Capa_1" enable-background="new 0 0 512.002 512.002" height="512" viewBox="0 0 512.002 512.002" width="512"><g><path d="m238.922 298.669h34.133c4.713 0 8.533-3.821 8.533-8.533 0-4.713-3.82-8.533-8.533-8.533h-34.133c-4.713 0-8.533 3.821-8.533 8.533-.001 4.712 3.82 8.533 8.533 8.533z"/><path d="m264.522 307.202h-17.067c-4.713 0-8.533 3.821-8.533 8.533 0 4.713 3.821 8.533 8.533 8.533h17.067c4.713 0 8.533-3.821 8.533-8.533s-3.821-8.533-8.533-8.533z"/><path d="m230.388 213.336c0-4.713-3.821-8.533-8.533-8.533h-17.067c-4.713 0-8.533 3.821-8.533 8.533s3.821 8.533 8.533 8.533c0 4.713 3.821 8.533 8.533 8.533 4.713 0 8.533-3.821 8.533-8.533 4.714 0 8.534-3.821 8.534-8.533z"/><path d="m290.122 221.869c0 4.713 3.821 8.533 8.533 8.533 4.713 0 8.533-3.821 8.533-8.533 4.713 0 8.533-3.821 8.533-8.533s-3.82-8.533-8.533-8.533h-17.067c-4.713 0-8.533 3.821-8.533 8.533s3.821 8.533 8.534 8.533z"/><path d="m247.455 264.536h17.067c4.713 0 8.533-3.821 8.533-8.533 0-4.713-3.821-8.533-8.533-8.533h-17.067c-4.713 0-8.533 3.821-8.533 8.533s3.82 8.533 8.533 8.533z"/><path d="m330.663 385.461c-7.372-19.242-10.006-39.976-7.68-60.45l20.855-18.253c9.252-8.106 14.555-19.81 14.549-32.111v-10.965c23.043-4.649 37.955-27.097 33.307-50.141-3.388-16.793-16.513-29.919-33.307-33.307v-35.772c32.645-4.758 55.252-35.079 50.493-67.724-4.758-32.645-35.079-55.252-67.724-50.493-7.6 1.108-14.915 3.671-21.545 7.549-23.756-35.139-71.499-44.367-106.638-20.611-8.123 5.492-15.119 12.488-20.611 20.611-28.476-16.657-65.063-7.076-81.72 21.4s-7.076 65.063 21.4 81.72c6.63 3.878 13.945 6.441 21.545 7.549v35.763c-23.046 4.637-37.969 27.078-33.332 50.124 3.382 16.81 16.522 29.95 33.332 33.332v10.974c.001 12.305 5.314 24.01 14.575 32.111l20.855 18.253c2.33 20.474-.305 41.209-7.68 60.45-18.987 5.367-95.949 28.203-120.09 52.224-21.786 21.666-32.085 40.371-35.55 64.572-.665 4.666 2.579 8.987 7.245 9.651.39.056.784.084 1.178.085h443.733c4.713.001 8.534-3.819 8.534-8.532 0-.406-.029-.811-.086-1.213-3.465-24.201-13.764-42.906-35.55-64.572-24.096-24.021-101.101-46.856-120.088-52.224zm-16.324 5.487c-5.692 5.581-20.599 16.418-49.818 18.27v-11.776c-.068-2.783 1.922-5.191 4.668-5.649 14.656-1.333 28.674-6.621 40.559-15.3 1.238 4.907 2.771 9.734 4.591 14.455zm-112.111-14.481c11.826 8.646 25.769 13.932 40.354 15.3h.196c2.749.454 4.743 2.864 4.676 5.649v11.776c-29.269-1.852-44.177-12.723-49.826-18.261 1.823-4.724 3.359-9.554 4.6-14.464zm-31.573-214.331h170.667v17.067h-170.667zm-51.2-76.8c-.052-23.512 18.966-42.615 42.478-42.667 7.949-.018 15.744 2.191 22.503 6.375-3.469 8.844-5.249 18.259-5.248 27.759 0 4.713 3.821 8.533 8.533 8.533s8.533-3.82 8.533-8.533c-.026-9.293 2.14-18.462 6.323-26.761 0-.051.077-.077.102-.128 14.822-29.441 50.704-41.292 80.145-26.47 11.434 5.756 20.714 15.036 26.47 26.47 0 .051.077.077.102.128 4.183 8.299 6.349 17.467 6.323 26.761 0 4.713 3.821 8.533 8.533 8.533 4.713 0 8.533-3.82 8.533-8.533.001-9.5-1.779-18.915-5.248-27.759 20.044-12.39 46.337-6.186 58.727 13.858s6.186 46.337-13.858 58.727c-6.776 4.188-14.589 6.396-22.554 6.374-4.713 0-8.533 3.821-8.533 8.533v8.533h-170.664v-8.533c0-4.713-3.821-8.533-8.533-8.533-23.553-.029-42.639-19.115-42.667-42.667zm51.2 189.312v-18.645c0-4.713-3.821-8.533-8.533-8.533-14.053.118-25.541-11.179-25.659-25.232-.092-10.925 6.801-20.689 17.126-24.261v15.36c0 4.713 3.82 8.533 8.533 8.533s8.533-3.821 8.533-8.533v-17.067h170.667v17.067c0 4.713 3.82 8.533 8.533 8.533s8.533-3.821 8.533-8.533v-15.36c13.281 4.595 20.323 19.087 15.728 32.368-3.572 10.325-13.336 17.217-24.261 17.126-4.713 0-8.533 3.821-8.533 8.533v18.645c-.003 7.381-3.191 14.401-8.747 19.26l-46.933 41.097c-4.668 4.078-10.655 6.327-16.853 6.332h-25.6c-6.199 0-12.187-2.25-16.853-6.332l-46.933-41.097c-5.557-4.861-8.745-11.881-8.748-19.261zm44.467 73.207c7.771 6.795 17.743 10.543 28.066 10.547h25.6c10.334-.001 20.318-3.748 28.1-10.547l8.252-7.228c.031 5.446.353 10.887.964 16.299-10.25 10.628-24.114 17.022-38.852 17.92-4.123.472-8.029 2.102-11.264 4.702-3.147-2.534-6.933-4.149-10.94-4.668h-.282c-14.736-.914-28.598-7.306-38.861-17.92.611-5.406.933-10.841.964-16.282zm-141.867 101.931c18.594-18.492 82.569-39.364 111.565-47.59 7.68 7.799 26.607 22.187 62.635 24.201v8.209c-.011 8.571 4.269 16.579 11.401 21.333l10.402 6.929c2.363 1.576 3.786 4.225 3.797 7.066v25.003h-128v-8.533c0-4.713-3.821-8.533-8.533-8.533s-8.533 3.82-8.533 8.533v8.533h-83.465c5.203-17.425 15.151-33.058 28.731-45.151zm310.733 45.15v-8.533c0-4.713-3.82-8.533-8.533-8.533s-8.533 3.82-8.533 8.533v8.533h-76.8v-25.003c.011-8.571-4.269-16.579-11.401-21.333l-10.402-6.929c-2.363-1.576-3.786-4.225-3.797-7.066v-8.209c36.028-2.014 54.963-16.401 62.635-24.201 29.013 8.226 92.971 29.099 111.565 47.59 13.583 12.091 23.531 27.725 28.732 45.15h-83.466z"/><circle cx="238.922" cy="469.336" r="8.533"/></g></svg>