<svg xmlns="http://www.w3.org/2000/svg" id="Capa_1" enable-background="new 0 0 512.016 512.016" height="512" viewBox="0 0 512.016 512.016" width="512"><g><g id="Page-1_55_"><g id="_x30_56---Kitchen-Towel" transform="translate(-1)"><path id="Shape_225_" d="m154.606 486.408c0 14.138 11.462 25.6 25.6 25.6h221.867c14.138 0 25.6-11.462 25.6-25.6v-375.466h8.533c8.031 10.776 20.694 17.107 34.133 17.067 3.576-.006 7.138-.43 10.615-1.263 15.266-3.778 27.145-15.763 30.788-31.061 3.185-12.747.319-26.251-7.769-36.606s-20.496-16.406-33.635-16.403c-13.449-.082-26.129 6.259-34.133 17.067h-8.533v-17.068c-.028-23.552-19.114-42.638-42.667-42.667h-256c-23.551.028-42.637 19.114-42.665 42.667v17.067h-8.585c-7.951-10.587-20.366-16.883-33.605-17.042s-25.802 5.838-34.004 16.231c-8.14 10.363-11.055 23.898-7.902 36.693 3.64 15.314 15.527 27.312 30.805 31.095 3.479.843 7.045 1.275 10.624 1.289 13.321.12 25.868-6.246 33.638-17.067h9.028v247.467c0 14.138 11.462 25.6 25.6 25.6h42.667zm76.8-469.333c14.138 0 25.6 11.462 25.6 25.6v8.533h-34.133v-8.533c-.031-9.263-3.108-18.258-8.755-25.6zm51.2 0c14.138 0 25.6 11.462 25.6 25.6v8.533h-34.133v-8.533c-.031-9.263-3.108-18.258-8.755-25.6zm51.2 0c14.138 0 25.6 11.462 25.6 25.6v8.533h-34.133v-8.533c-.031-9.263-3.108-18.258-8.755-25.6zm76.8 119.467v25.6h-238.933v-25.6zm-136.533-17.067v-51.2h34.133v51.2zm0 247.467v-51.2h34.133v51.2zm34.133 17.066v51.2h-34.133v-51.2zm-51.2-204.8v51.2h-34.133v-51.2zm51.2 0v51.2h-34.133v-51.2zm51.2 0v51.2h-34.133v-51.2zm0 68.267v51.2h-34.133v-51.2zm-153.6-17.067h-34.133v-51.2h34.133zm0 17.067v51.2h-34.133v-51.2zm17.067 0h34.133v51.2h-34.133zm51.2 0h34.133v51.2h-34.133zm51.2 68.267h34.133v51.2h-34.133zm51.2 0h34.133v51.2h-34.133zm0-17.067v-51.2h34.133v51.2zm0-68.267v-51.2h34.133v51.2zm-204.8 85.334h34.133v51.2h-34.133zm51.2 0h34.133v51.2h-34.133zm34.133 68.266v51.2h-34.133v-51.2zm0 68.267v42.667h-34.133v-42.667zm17.067 0h34.133v42.667h-34.133zm51.2 0h34.133v42.667h-34.133zm0-17.067v-51.2h34.133v51.2zm51.2-51.2h34.133v51.2h-34.133zm34.133-264.533h-34.133v-51.2h34.133zm-51.2 0h-34.133v-51.2h34.133zm-102.4-51.2v51.2h-34.133v-51.2zm-51.2 51.2h-34.133v-51.2h34.133zm0 264.533v51.2h-34.133v-51.2zm-34.133 102.4v-34.133h34.133v42.667h-25.6c-4.712 0-8.533-3.821-8.533-8.534zm230.4 8.534h-25.6v-42.667h34.133v34.133c0 4.713-3.82 8.534-8.533 8.534zm34.833-418.134c5.146-.028 9.965-2.526 12.954-6.716 4.74-6.407 12.199-10.234 20.168-10.35 7.969-.115 15.535 3.494 20.459 9.761 4.955 6.278 6.691 14.511 4.693 22.255-2.206 9.012-9.191 16.079-18.176 18.389-10.126 2.631-20.84-1.097-27.145-9.446-3.049-4.236-7.931-6.771-13.15-6.827h-9.037v-17.066zm-26.3-34.133v8.533h-34.133v-8.533c-.031-9.263-3.108-18.258-8.755-25.6h17.289c14.138 0 25.599 11.461 25.599 25.6zm-230.4-25.6c14.138 0 25.6 11.462 25.6 25.6v8.533h-34.133v-8.533c.017-9.235-2.979-18.222-8.533-25.6zm-76.8 25.6c0-14.138 11.462-25.6 25.6-25.6 14.139 0 25.6 11.462 25.6 25.6v17.067h-51.2zm-39.253 58.027c-6.291 8.348-16.991 12.083-27.11 9.463-9-2.313-15.994-9.395-18.193-18.423-1.981-7.673-.297-15.83 4.56-22.091s12.34-9.92 20.264-9.909c8.109-.04 15.743 3.817 20.523 10.368 2.985 4.173 7.789 6.664 12.919 6.699h77.491v17.067h-77.321c-5.213.06-10.087 2.594-13.133 6.826zm39.253 257.706v-247.466h51.2v256h-42.666c-4.713 0-8.534-3.821-8.534-8.534z"/></g></g></g></svg>