<svg xmlns="http://www.w3.org/2000/svg" height="512" viewBox="0 0 60 40" width="512"><g id="Page-1" fill="none" fill-rule="evenodd"><g id="001---Connectivity" fill="rgb(0,0,0)" fill-rule="nonzero"><path id="Shape" d="m11.651 31.933c-1.349107.3032086-2.73007901-.358533-3.339-1.6-.46530247-.8765793-1.47836395-1.3106891-2.434-1.043l-3.718.53c-.58721082.0828756-1.1073622.4220729-1.42.926-.31006802.4972154-.38333681 1.1064454-.2 1.663 1.48040492 4.5275329 5.7035819 7.5903146 10.467 7.591.2466667 0 .4953333-.0083333.746-.025 5.8789176-.3737397 10.4198913-5.3124854 10.299822-11.2020471-.1200694-5.8895617-4.8585568-10.6391288-10.747822-10.7729529h7.695c1.1045695 0 2-.8954305 2-2v-4c0-1.1045695-.8954305-2-2-2h-13.607c-.93905108-.00448291-1.75330073.6484177-1.953 1.566l-2.779 12.521c-.11495616.5179771-.01937896 1.0604059.26569488 1.5078968.28507385.4474909.73627924.7633669 1.25430512.8781032l4.43.981c.58027408.1254225 1.18629875-.0126266 1.655-.377 1.05172877-.9724798 2.5506817-1.2927525 3.908-.835 1.4085937.6046976 2.1398337 2.1695513 1.7 3.638-.3085931 1.0401216-1.1616627 1.8279542-2.223 2.053zm1.3-7.533c-2.0205551-.7617065-4.29697886-.3378632-5.908 1.1l-4.431-.98 2.781-12.52h13.607v4h-9.59c-.4686077.0000804-.87431214.3255585-.976.783l-.49 2.21c-.07543367.332241.02347511.6800281.26245413.9228518s.58514333.3472701.91854587.2771482c4.739411-1.0057906 9.4245266 1.9207699 10.5996278 6.6210644 1.1751012 4.7002946-1.5815665 9.4873445-6.2366981 10.8302447-4.6551317 1.3429002-9.53795807-1.2403286-11.0469297-5.8443091l3.719-.53c.234-.033.351-.016.37-.028 1.02969173 2.0307479 3.29490047 3.1168013 5.523 2.648 2.1319207-.4583295 3.7209277-2.2454502 3.9267647-4.4163447s-1.0189754-4.2248122-3.0267647-5.0756553z"/><path id="Shape" d="m38.5 40c3.1351395.0073522 6.1973744-.9453431 8.775-2.73l.863-.6c.5390633-.3729932.8611228-.9864755.862-1.642v-12.028c0-1.1045695-.8954305-2-2-2h-9c-1.1045695 0-2 .8954305-2 2v4c0 1.1045695.8954305 2 2 2h3v2.574c-2.9407845 1.0352813-6.2153766.1448883-8.227-2.237-2.4735471-2.9126395-2.3590689-7.2200368.2656962-9.9971778s6.91886-3.1342484 9.9663038-.8288222c.8119978.6134621 1.9567267.5118718 2.648-.235l2.747-2.932c.3796111-.4055934.5734232-.9508031.535-1.505-.0405633-.5637999-.3141389-1.0852243-.755-1.439-4.4577469-3.57608075-10.5225425-4.40678039-15.7777026-2.1610838-5.2551601 2.2456966-8.8466329 7.2028259-9.3432974 12.8960838-.3981281 4.3366559 1.0634308 8.6384589 4.021 11.835 2.9367335 3.1985375 7.0777668 5.0224778 11.42 5.03zm-13.449-16.693c.5195942-5.9617973 4.9069775-10.8675711 10.774-12.047.8742172-.1720162 1.7630205-.2590881 2.654-.26 3.077135-.0053797 6.0631158 1.0443019 8.46 2.974l-2.724 2.942c-3.3029668-2.4917134-7.8387572-2.559196-11.2143881-.1668454-3.375631 2.3923506-4.8147399 6.6943169-3.5580847 10.6362763 1.2566552 3.9419593 4.920056 6.6172991 9.0574728 6.6145691 1.350436.003791 2.6858017-.2837475 3.915-.843.356406-.1625687.58507-.5182682.585-.91v-4.247c0-.5522847-.4477153-1-1-1h-4v-4h9v12.028l-.862.6c-2.2440804 1.552007-4.9095275 2.3797683-7.638 2.372-3.7822377-.0069286-7.3890951-1.595875-9.947-4.382-2.5759726-2.7853083-3.8488283-6.5329995-3.502-10.311z"/><path id="Shape" d="m45 2c7.1762751.00826602 12.991734 5.82372494 13 13 0 .5522847.4477153 1 1 1s1-.4477153 1-1c-.0093685-8.28038757-6.7196124-14.99063148-15-15-.5522847 0-1 .44771525-1 1s.4477153 1 1 1z"/><path id="Shape" d="m45 8c3.8641657.00440864 6.9955914 3.1358343 7 7 0 .5522847.4477153 1 1 1s1-.4477153 1-1c-.006061-4.9680501-4.0319499-8.99393904-9-9-.5522847 0-1 .44771525-1 1s.4477153 1 1 1z"/></g></g></svg>