<svg xmlns="http://www.w3.org/2000/svg" viewBox="0 0 60 60" width="512" height="512"><g id="Icons"><path d="M2,52H5a.978.978,0,0,0,.443-.115L9.236,50H10v1a3,3,0,0,0,3,3H47a3,3,0,0,0,3-3V50h.764l3.793,1.885A.978.978,0,0,0,55,52h3a2,2,0,0,0,2-2V8a2,2,0,0,0-2-2H55a.978.978,0,0,0-.443.115L50.764,8H9.236L5.443,6.115A.978.978,0,0,0,5,6H2A2,2,0,0,0,0,8V50A2,2,0,0,0,2,52Zm6-3.618-2,1V8.618l2,1ZM48,51a1,1,0,0,1-1,1H13a1,1,0,0,1-1-1V50H48ZM14,35h6a3,3,0,0,1-6,0Zm0,5h6a3,3,0,0,1-6,0Zm0,5h6a3,3,0,0,1-6,0Zm13,1a11.725,11.725,0,0,1,1.833-5.446A1.009,1.009,0,0,0,29,40V37a1,1,0,0,0-1-1V35h4v1a1,1,0,0,0-1,1v3a1.006,1.006,0,0,0,.168.555A11.647,11.647,0,0,1,33,46c0,1.645-.533,2-3,2S27,47.645,27,46ZM41,36V34h4v2Zm4,2v2H41V38Zm-4,4h4v6H41Zm8,6H47V34a2,2,0,0,0-2-2H41a2,2,0,0,0-2,2V48H34.617A4.752,4.752,0,0,0,35,46a13.3,13.3,0,0,0-2-6.289v-1.98A2,2,0,0,0,34,36V35a2,2,0,0,0-2-2H28a2,2,0,0,0-2,2v1a2,2,0,0,0,1,1.731v1.98A13.3,13.3,0,0,0,25,46a4.752,4.752,0,0,0,.383,2H20.974A4.948,4.948,0,0,0,22,45a2,2,0,0,0-1.176-1.818A4.951,4.951,0,0,0,22,40a2,2,0,0,0-1.176-1.818A4.951,4.951,0,0,0,22,35a2,2,0,0,0-2-2H14a2,2,0,0,0-2,2,4.951,4.951,0,0,0,1.176,3.182A2,2,0,0,0,12,40a4.951,4.951,0,0,0,1.176,3.182A2,2,0,0,0,12,45a4.948,4.948,0,0,0,1.026,3H10V30H50V48ZM15,27V22.236a3.75,3.75,0,0,1,.395-1.671A5.771,5.771,0,0,0,16,18h2a5.771,5.771,0,0,0,.605,2.565A3.75,3.75,0,0,1,19,22.236V27a1,1,0,0,1-1,1H16A1,1,0,0,1,15,27Zm3-11H16V14h2Zm9,3V17h6v2H27Zm0,8V22a1,1,0,0,1,1-1h4a1,1,0,0,1,1,1v5a1,1,0,0,1-1,1H28A1,1,0,0,1,27,27Zm14-7a2,2,0,0,1,4,0H41Zm-.788,7.615a.992.992,0,0,1-.182-.857l1-4A1,1,0,0,1,42,22h2a1,1,0,0,1,.97.758l1,4A1,1,0,0,1,45,28H41A.991.991,0,0,1,40.212,27.615ZM52,9.618l2-1V49.382l-2-1ZM56,8h2V50H56Zm-6,2V28H47.811a2.972,2.972,0,0,0,.1-1.728l-1-4a3.019,3.019,0,0,0-.424-.947A1.987,1.987,0,0,0,47,20a4,4,0,0,0-8,0,1.987,1.987,0,0,0,.513,1.325,3.019,3.019,0,0,0-.424.947l-1,4a2.972,2.972,0,0,0,.1,1.728H34.816A2.966,2.966,0,0,0,35,27V22a2.982,2.982,0,0,0-.513-1.676A1.983,1.983,0,0,0,35,19V17a2,2,0,0,0-2-2H27a2,2,0,0,0-2,2v2a1.983,1.983,0,0,0,.513,1.324A2.982,2.982,0,0,0,25,22v5a2.966,2.966,0,0,0,.184,1H20.816A2.966,2.966,0,0,0,21,27V22.236a5.771,5.771,0,0,0-.605-2.565A3.743,3.743,0,0,1,20,18V14a2,2,0,0,0-2-2H16a2,2,0,0,0-2,2v4a3.743,3.743,0,0,1-.395,1.671A5.771,5.771,0,0,0,13,22.236V27a2.966,2.966,0,0,0,.184,1H10V10ZM2,8H4V50H2Z"/></g></svg>