<svg xmlns="http://www.w3.org/2000/svg" height="512" viewBox="0 0 50 60" width="512"><g id="Page-1" fill="none" fill-rule="evenodd"><g id="040---Paper-Towel-Dispenser" fill="rgb(0,0,0)" fill-rule="nonzero"><path id="Shape" d="m41.446.117c-.1372026-.07402518-.2901278-.11414233-.446-.117h-32c-.15587215.00285767-.30879735.04297482-.446.117-4.90635374.7195848-8.54553061 4.9241657-8.554 9.883v26c0 1.1045695.8954305 2 2 2h2v19c0 .7575441.42800475 1.4500704 1.10557281 1.7888544s1.4883919.2656721 2.09442719-.1888544l1.807-1.354 2.807 2.1c.712102.5303522 1.687898.5303522 2.4 0l2.8-2.1 2.8 2.1c.712102.5303522 1.687898.5303522 2.4 0l2.8-2.1 2.8 2.1c.7118834.5310114 1.6881166.5310114 2.4 0l2.8-2.1 2.8 2.1c.7127528.5283855 1.6872472.5283855 2.4 0l2.8-2.1 1.786 1.354c.6060353.4545265 1.4168591.5276384 2.0944272.1888544.677568-.338784 1.1055728-1.0313103 1.1055728-1.7888544v-19h2c1.1045695 0 2-.8954305 2-2v-26c-.0084694-4.9588343-3.6476463-9.1634152-8.554-9.883zm2.554 56.883-1.8-1.348c-.7124284-.5293668-1.6875716-.5293668-2.4 0l-2.8 2.1-2.8-2.1c-.7124284-.5293668-1.6875716-.5293668-2.4 0l-2.8 2.1-2.8-2.1c-.7125367-.5290392-1.6874633-.5290392-2.4 0l-2.8 2.1-2.8-2.1c-.7124284-.5293668-1.6875716-.5293668-2.4 0l-2.8 2.1-2.807-2.1c-.71199283-.5306816-1.68800717-.5306816-2.4 0l-1.793 1.348v-19h4v8c0 .5522847.4477153 1 1 1s1-.4477153 1-1v-8h4v4c0 .5522847.4477153 1 1 1s1-.4477153 1-1v-4h14v4c0 .5522847.4477153 1 1 1s1-.4477153 1-1v-4h4v8c0 .5522847.4477153 1 1 1s1-.4477153 1-1v-8h4zm4-21h-46v-26c.00690003-3.6436815 2.47271856-6.82335449 6-7.737v26.737c0 .5522847.44771525 1 1 1s1-.4477153 1-1v-27h30v27c0 .5522847.4477153 1 1 1s1-.4477153 1-1v-26.737c3.5272814.91364551 5.9931 4.0933185 6 7.737z"/><path id="Shape" d="m28.293 47.293-2.293 2.293v-8.586c0-.5522847-.4477153-1-1-1s-1 .4477153-1 1v8.586l-2.293-2.293c-.3923789-.3789722-1.0160848-.3735524-1.4018186.0121814s-.3911536 1.0094397-.0121814 1.4018186l4 4c.3904999.3903819 1.0235001.3903819 1.414 0l4-4c.3789722-.3923789.3735524-1.0160848-.0121814-1.4018186s-1.0094397-.3911536-1.4018186-.0121814z"/><path id="Shape" d="m15 6c.5522847 0 1-.44771525 1-1s-.4477153-1-1-1h-2c-.5522847 0-1 .44771525-1 1s.4477153 1 1 1z"/><path id="Shape" d="m19 6h12c.5522847 0 1-.44771525 1-1s-.4477153-1-1-1h-12c-.5522847 0-1 .44771525-1 1s.4477153 1 1 1z"/><path id="Shape" d="m25 22c-5.963 0-12 1.717-12 5s6.037 5 12 5 12-1.717 12-5-6.037-5-12-5zm0 8c-6.012 0-10-1.806-10-3s3.988-3 10-3 10 1.806 10 3-3.988 3-10 3z"/></g></g></svg>