<svg xmlns="http://www.w3.org/2000/svg" viewBox="0 0 60 60" width="512" height="512"><g id="Icons"><path d="M6.063,39.292a1.433,1.433,0,0,0-1.4-.188,1.373,1.373,0,0,0-.855,1.073,10.912,10.912,0,0,1-1.734,3.729C.674,46.18-.91,48.756.625,51.693a6.146,6.146,0,0,0,1.18,1.559A3,3,0,0,0,0,56v1a3,3,0,0,0,3,3H37a3,3,0,0,0,3-3V56a3,3,0,0,0-1.741-2.714A5.637,5.637,0,0,0,40,49.215c0-4.85-4.152-8.554-5.937-9.923a1.432,1.432,0,0,0-1.4-.188,1.373,1.373,0,0,0-.855,1.073,10.912,10.912,0,0,1-1.734,3.729c-1.4,2.274-2.981,4.85-1.446,7.787A6.145,6.145,0,0,0,29.549,53H24.531A5.614,5.614,0,0,0,26,49.215c0-4.85-4.152-8.554-5.937-9.923a1.433,1.433,0,0,0-1.4-.188,1.373,1.373,0,0,0-.855,1.073,10.912,10.912,0,0,1-1.734,3.729c-1.4,2.274-2.981,4.85-1.446,7.787A6.145,6.145,0,0,0,15.549,53H10.531A5.614,5.614,0,0,0,12,49.215C12,44.365,7.848,40.661,6.063,39.292ZM3.775,44.954a16.112,16.112,0,0,0,1.779-3.5c1.6,1.371,4.446,4.3,4.446,7.76a3.661,3.661,0,0,1-1.157,2.662A4.085,4.085,0,0,1,6,53H6a4.134,4.134,0,0,1-3.6-2.233C1.388,48.836,2.494,47.037,3.775,44.954ZM38,57a1,1,0,0,1-1,1H3a1,1,0,0,1-1-1V56a1,1,0,0,1,1-1H37a1,1,0,0,1,1,1Zm-7.6-6.233c-1.009-1.931.1-3.73,1.378-5.813a16.112,16.112,0,0,0,1.779-3.5c1.6,1.371,4.446,4.3,4.446,7.76a3.661,3.661,0,0,1-1.157,2.662A4.085,4.085,0,0,1,34,53h0A4.134,4.134,0,0,1,30.4,50.767Zm-14,0c-1.009-1.931.1-3.73,1.378-5.813a16.112,16.112,0,0,0,1.779-3.5c1.6,1.371,4.446,4.3,4.446,7.76a3.661,3.661,0,0,1-1.157,2.662A4.085,4.085,0,0,1,20,53h0A4.134,4.134,0,0,1,16.4,50.767Z"/><path d="M55.993,16a4.019,4.019,0,0,0-1.51.294L44.02,20.585a3.956,3.956,0,0,0-1.987,1.826l-4.475,1.678A1.98,1.98,0,0,0,37,24H2a2,2,0,0,0-2,2v2a9.011,9.011,0,0,0,9,9H30a9.008,9.008,0,0,0,8.756-6.954l5.383-2.02a3.968,3.968,0,0,0,1.4.264,4.122,4.122,0,0,0,1.519-.3l10.452-4.28A4,4,0,0,0,55.993,16ZM37,28a7.008,7.008,0,0,1-7,7H9a7.008,7.008,0,0,1-7-7V26H37Zm1.969-2.3,2.614-.98a3.956,3.956,0,0,0,.253,1.086,4.089,4.089,0,0,0,.445.786L39,27.819V26A1.91,1.91,0,0,0,38.969,25.7Zm18.876-4.921a1.986,1.986,0,0,1-1.09,1.079h0L46.314,26.13a1.957,1.957,0,0,1-2.627-1.086,2.01,2.01,0,0,1,1.093-2.609l10.458-4.289a2.005,2.005,0,0,1,2.607,2.629Z"/><path d="M8,20a1,1,0,0,0,2,0,2.958,2.958,0,0,1,.8-2.065,5.046,5.046,0,0,0,0-6.533,3.07,3.07,0,0,1,0-4.134A4.917,4.917,0,0,0,12,4a1,1,0,0,0-2,0,2.963,2.963,0,0,1-.8,2.067A4.915,4.915,0,0,0,8,9.334,4.915,4.915,0,0,0,9.2,12.6a3.068,3.068,0,0,1,0,4.132A4.912,4.912,0,0,0,8,20Z"/><path d="M27,20a1,1,0,0,0,2,0,2.958,2.958,0,0,1,.8-2.065,5.046,5.046,0,0,0,0-6.533,3.07,3.07,0,0,1,0-4.134A4.917,4.917,0,0,0,31,4a1,1,0,0,0-2,0,2.963,2.963,0,0,1-.8,2.067A4.915,4.915,0,0,0,27,9.334,4.915,4.915,0,0,0,28.2,12.6a3.068,3.068,0,0,1,0,4.132A4.912,4.912,0,0,0,27,20Z"/><path d="M18,17a1,1,0,0,0,2,0,2.958,2.958,0,0,1,.8-2.065,5.046,5.046,0,0,0,0-6.533A2.964,2.964,0,0,1,20,6.334a2.961,2.961,0,0,1,.8-2.066A4.917,4.917,0,0,0,22,1a1,1,0,0,0-2,0,2.963,2.963,0,0,1-.8,2.067A4.915,4.915,0,0,0,18,6.334,4.915,4.915,0,0,0,19.2,9.6a3.068,3.068,0,0,1,0,4.132A4.912,4.912,0,0,0,18,17Z"/></g></svg>