<svg width="411" height="512" viewBox="0 0 411 512" fill="none" xmlns="http://www.w3.org/2000/svg">
<path d="M367.991 88.8655C367.846 71.8878 361.082 55.6367 349.137 43.5704C320.221 12.7798 263.013 -2.64601 187.634 0.371797C36.0488 6.39242 34.4869 111.899 34.4869 170.172C23.9875 179.889 15.5555 191.624 9.69498 204.675C3.83448 217.725 0.665907 231.823 0.378727 246.126C0.300966 262.106 1.4401 278.069 3.78625 293.877C3.82223 294.184 3.87319 294.493 3.94314 294.798C9.17733 327.984 20.1853 352.459 37.138 367.432C45.9083 375.396 56.8667 380.544 68.5952 382.211V384.092C68.6731 454.701 125.894 511.921 196.502 511.999H213.556C284.165 511.921 341.381 454.701 341.463 384.092V382.386C354.113 381.041 365.96 375.535 375.145 366.734C395.916 347.033 404.66 312.011 401.127 262.625C400.578 254.798 399.084 247.067 396.677 239.599C434.852 148.615 384.182 101.11 367.991 88.8655ZM188.309 17.4244C282.959 13.7751 321.927 39.5383 336.677 55.2529C343.629 62.2864 348.373 71.1993 350.324 80.8943C345.719 79.799 341.05 78.9845 336.346 78.4551C315.149 62.3525 290.798 50.8965 264.878 44.8333C238.959 38.7702 212.053 38.236 185.913 43.2656C184.431 43.5997 183.066 44.3234 181.958 45.3619C180.849 46.4003 180.038 47.7159 179.609 49.1726C179.179 50.6293 179.146 52.1743 179.514 53.648C179.881 55.1217 180.635 56.4706 181.698 57.5553C182.762 58.6387 184.096 59.4186 185.562 59.8147C187.029 60.2108 188.574 60.2087 190.039 59.8086C228.466 52.7793 268.14 58.875 302.684 77.116C229.35 78.7279 115.992 104.822 51.6435 154.953C52.6927 96.8127 64.0914 22.3398 188.309 17.4244ZM48.0281 354.291C38.1373 345.363 26.9304 328.122 21.2196 295.201C57.506 246.586 104.198 206.696 157.882 178.445C162.039 176.228 163.612 171.057 161.395 166.9C159.177 162.743 154.01 161.169 149.849 163.386C99.2253 190.121 54.4859 226.749 18.2847 271.1C17.7221 263.426 17.4333 255.139 17.4333 246.126C17.4333 220.707 29.3697 197.103 52.9735 175.981C123.049 113.074 268.309 88.7286 331.127 94.9111C331.849 95.1344 332.597 95.2581 333.352 95.2788C333.509 95.2788 333.653 95.1849 333.804 95.1769C340.984 95.7353 348.024 97.4638 354.645 100.294C360.93 104.369 411.666 140.199 386.454 218.275C378.062 206.458 367.33 196.491 354.924 188.995C342.518 181.499 328.704 176.634 314.339 174.701C233.697 160.275 123.758 208.22 69.3606 327.899C69.118 328.559 68.9579 329.247 68.884 329.947C68.7526 330.394 68.656 330.849 68.5952 331.31V364.942C60.8889 363.354 53.7713 359.668 48.0281 354.29V354.291ZM324.409 384.093C324.339 445.287 274.75 494.875 213.556 494.946H196.502C135.309 494.876 85.7197 445.287 85.6488 384.093V333.443C105.934 287.782 139.002 248.968 180.862 221.688C243.87 223.394 286.601 235.553 307.745 257.9C325.728 276.89 325.05 300.069 324.561 317.001C324.487 319.656 324.409 322.119 324.409 324.405V384.093ZM363.635 354.095C357.589 360.023 349.833 363.901 341.463 365.181V324.406C341.463 322.29 341.53 319.972 341.608 317.489C342.154 298.729 342.99 270.309 320.127 246.177C298.963 223.842 262.629 210.696 209.649 206.203C241.342 191.355 276.727 186.238 311.329 191.499C345.617 197.658 369.833 216.231 379.545 242.572C382.067 249.416 383.6 256.584 384.1 263.86C387.204 307.016 380.135 338.228 363.678 354.095H363.635Z" fill="white"/>
<path d="M145.341 315.875C144.221 315.875 143.112 316.096 142.077 316.525C141.042 316.953 140.102 317.581 139.31 318.374C138.518 319.166 137.89 320.106 137.461 321.141C137.033 322.176 136.812 323.285 136.813 324.405V358.513C136.813 363.22 140.63 367.038 145.341 367.038C150.048 367.038 153.866 363.221 153.866 358.513V324.405C153.866 323.285 153.646 322.176 153.218 321.142C152.79 320.107 152.162 319.167 151.37 318.375C150.579 317.583 149.639 316.954 148.604 316.525C147.57 316.097 146.461 315.876 145.341 315.875ZM264.72 315.875C263.6 315.876 262.491 316.096 261.456 316.525C260.422 316.954 259.481 317.582 258.69 318.374C257.898 319.166 257.27 320.107 256.842 321.142C256.414 322.176 256.193 323.285 256.194 324.405V358.513C256.194 363.22 260.011 367.038 264.72 367.038C265.839 367.039 266.948 366.818 267.983 366.39C269.018 365.962 269.958 365.334 270.75 364.542C271.542 363.75 272.17 362.81 272.599 361.776C273.027 360.741 273.248 359.632 273.248 358.513V324.405C273.249 323.285 273.028 322.176 272.6 321.141C272.171 320.106 271.543 319.166 270.751 318.374C269.959 317.581 269.019 316.953 267.984 316.525C266.949 316.096 265.84 315.875 264.72 315.875ZM247.665 409.847C246.567 409.625 245.436 409.622 244.337 409.837C243.238 410.053 242.192 410.483 241.26 411.103C240.327 411.723 239.525 412.52 238.901 413.45C238.277 414.38 237.843 415.423 237.622 416.521C234.386 432.409 220.412 443.822 204.197 443.822C187.986 443.822 174.011 432.409 170.776 416.521C170.582 415.399 170.164 414.326 169.549 413.368C168.933 412.409 168.132 411.583 167.192 410.939C166.252 410.295 165.192 409.846 164.076 409.619C162.96 409.391 161.809 409.39 160.692 409.614C159.575 409.839 158.514 410.285 157.573 410.926C156.631 411.568 155.827 412.391 155.209 413.348C154.591 414.306 154.171 415.377 153.974 416.499C153.776 417.621 153.806 418.771 154.061 419.882C158.905 443.729 179.87 460.864 204.205 460.864C228.535 460.864 249.5 443.729 254.344 419.882C254.788 417.666 254.333 415.364 253.081 413.482C251.829 411.601 249.881 410.293 247.665 409.847Z" fill="white"/>
</svg>
