<svg xmlns="http://www.w3.org/2000/svg" id="Icons" viewBox="0 0 60 60" width="512" height="512"><path d="M59,58H47V49.816A3,3,0,0,0,49,47V15a3.017,3.017,0,0,0,3-3,3,3,0,0,0-3-3h-.339C47.6,6.782,43.284,0,30,0S12.4,6.782,11.339,9H11a3.017,3.017,0,0,0-3,3,3,3,0,0,0,3,3V47a3,3,0,0,0,2,2.816V58H1a1,1,0,0,0,0,2H59a1,1,0,0,0,0-2ZM47,47a1,1,0,0,1-1,1H35V15H47ZM25,50v8H19V50Zm2-33h6v4H27Zm0,6h6v4H27Zm0,6h6v4H27Zm0,6h6v4H27Zm0,6h6v4H27Zm6-26H27V11h6ZM27,47h6v4H27Zm8,3h6v8H35ZM50,12a.978.978,0,0,1-.306.712A.957.957,0,0,1,49,13H35V11H49A1,1,0,0,1,50,12ZM30,2C40.7,2,44.931,6.648,46.386,9H13.614C15.069,6.648,19.3,2,30,2ZM10,12a.978.978,0,0,1,.306-.712A.957.957,0,0,1,11,11H25v2H11A1,1,0,0,1,10,12Zm15,3V48H14a1,1,0,0,1-1-1V15ZM15,58V50h2v8Zm12,0V53h6v5Zm16,0V50h2v8Z"/><path d="M28,6h4a1,1,0,0,0,0-2H28a1,1,0,0,0,0,2Z"/><path d="M18,46h1a3,3,0,0,0,3-3V20a3,3,0,0,0-3-3H18a3,3,0,0,0-3,3V43A3,3,0,0,0,18,46Zm1-2H18a1,1,0,0,1-1-1V40h3v3A1,1,0,0,1,19,44Zm1-14v3H17V30Zm-3-2V25h3v3Zm3,7v3H17V35ZM18,19h1a1,1,0,0,1,1,1v3H17V20A1,1,0,0,1,18,19Z"/></svg>