<svg xmlns="http://www.w3.org/2000/svg" height="512" viewBox="0 0 60 60" width="512"><g id="Page-1" fill="none" fill-rule="evenodd"><g id="014---Heatproof-Fabric" fill="rgb(0,0,0)" fill-rule="nonzero"><path id="Shape" d="m0 57c0 1.6568542 1.34314575 3 3 3h54c1.6568542 0 3-1.3431458 3-3s-1.3431458-3-3-3h-2.132l2.706-4.058c1.5104137-.3013189 2.5472744-1.6974466 2.3991821-3.2304865-.1480924-1.5330398-1.4330202-2.7048817-2.9731821-2.7115135h-6v-6h2c.3879065-.0001454.7407342-.2246105.9052432-.5759056.1645089-.3512952.111017-.7660368-.1372432-1.0640944l-5-6c-.1959066-.2177862-.4750662-.3421563-.768-.3421563s-.5720934.1243701-.768.3421563l-5 6c-.2482602.2980576-.3017521.7127992-.1372432 1.0640944.164509.3512951.5173367.5757602.9052432.5759056h2v6h-30v-6h2c.3879065-.0001454.7407342-.2246105.9052432-.5759056.1645089-.3512952.111017-.7660368-.1372432-1.0640944l-5-6c-.1959066-.2177862-.4750662-.3421563-.768-.3421563s-.5720934.1243701-.768.3421563l-5 6c-.24826022.2980576-.30175214.7127992-.13724319 1.0640944.16450896.3512951.51733667.5757602.90524319.5759056h2v6h-6c-1.6568542.0000001-2.99999987 1.3431458-2.99999987 3s1.34314567 2.9999999 2.99999987 3h2.132l-2.706 4.058c-1.40807163.2744815-2.42476839 1.5074254-2.426 2.942zm58 0c0 .5522847-.4477153 1-1 1h-54c-.55228475 0-1-.4477153-1-1s.44771525-1 1-1h54c.5522847 0 1 .4477153 1 1zm-42.868-7-2.667 4h-2.6l2.667-4zm29.736 4 2.667-4h2.6l-2.667 4zm-2.4 0h-2.6l2.667-4h2.6zm-5 0h-2.6l2.667-4h2.6zm-5 0h-2.6l2.667-4h2.6zm-5 0h-2.6l2.667-4h2.6zm-5 0h-2.6l2.667-4h2.6zm-5 0h-2.6l2.667-4h2.6zm32.4 0 2.667-4h2.6l-2.667 4zm-3.868-18h-.865l2.865-3.438 2.865 3.438h-.865c-.5522847 0-1 .4477153-1 1v7h-2v-7c0-.5522847-.4477153-1-1-1zm-36 0h-.865l2.865-3.438 2.865 3.438h-.865c-.5522847 0-1 .4477153-1 1v7h-2v-7c0-.5522847-.4477153-1-1-1zm-8 11c0-.5522847.44771525-1 1-1h54c.5522847 0 1 .4477153 1 1s-.4477153 1-1 1h-54c-.55228475 0-1-.4477153-1-1zm8.132 3-2.667 4h-2.6l2.667-4z"/><path id="Shape" d="m30 0c-3.8641657.00440864-6.9955914 3.13583434-7 7v13.26c-4.2324328 3.0396691-6.0194479 8.4634188-4.4228178 13.4236454 1.5966301 4.9602267 6.2119565 8.3231489 11.4228178 8.3231489s9.8261877-3.3629222 11.4228178-8.3231489c1.5966301-4.9602266-.190385-10.3839763-4.4228178-13.4236454v-13.26c-.0044086-3.86416566-3.1358343-6.99559136-7-7zm10 30c.0032347 4.7868636-3.3862881 8.9046741-8.0845154 9.8215895-4.6982272.9169155-9.38733-1.6242542-11.1842065-6.061067s-.197512-9.5247654 3.8147219-12.1355225c.283275-.1846155.4540726-.4998763.454-.838v-13.787c0-2.76142375 2.2385763-5 5-5s5 2.23857625 5 5v13.787c-.0000726.3381237.170725.6533845.454.838 2.8368941 1.8407002 4.5481243 4.9932636 4.546 8.375z"/><path id="Shape" d="m33 22.411v-12.411c0-1.65685425-1.3431458-3-3-3s-3 1.34314575-3 3v12.411l-1.36.888c-2.9701781 1.9306745-4.3169303 5.5848387-3.3100687 8.981262 1.0068617 3.3964233 4.1275467 5.7262264 7.6700687 5.7262264s6.663207-2.3298031 7.6700687-5.7262264c1.0068616-3.3964233-.3398906-7.0505875-3.3100687-8.981262zm3 7.589c.0031427 2.8732392-2.0310908 5.3454111-4.851172 5.8955527-2.8200811.5501415-5.6343421-.9761858-6.7113552-3.6399344-1.0770131-2.6637485-.1144337-5.7171369 2.2955272-7.2816183l1.814-1.184c.2825966-.1846545.4529552-.4994231.453-.837v-12.953c0-.55228475.4477153-1 1-1s1 .44771525 1 1v12.953c.0000448.3375769.1704034.6523455.453.837l1.814 1.184c1.7042993 1.1035299 2.7331695 2.9956271 2.733 5.026z"/></g></g></svg>