<svg xmlns="http://www.w3.org/2000/svg" height="512" viewBox="0 0 60 60" width="512"><g id="Page-1" fill="none" fill-rule="evenodd"><g id="025---Safe-at-Home" fill="rgb(0,0,0)" fill-rule="nonzero"><path id="Shape" d="m58.605 16.455-7.605-4.816v-7.639c0-1.1045695-.8954305-2-2-2h-4c-1.1045695 0-2 .8954305-2 2v2.574l-8.2-5.19c-2.9384385-1.84107627-6.6705615-1.84107627-9.609 0l-23.791 15.071c-1.27320842.8226208-1.73272861 2.4657671-1.07095907 3.8295214.66176953 1.3637543 2.2368809 2.019584 3.67095907 1.5284786v30.187c0 1.6568542 1.34314575 3 3 3h1v3c0 1.1045695.8954305 2 2 2h40c1.1045695 0 2-.8954305 2-2v-3h1c1.6568542 0 3-1.3431458 3-3v-30.186c1.4348454.4932392 3.012077-.1624618 3.6743656-1.5275406.6622886-1.3650787.2011142-3.0097433-1.0743656-3.8314594zm-13.605-12.455h4v6.373l-4-2.533zm-26 48c-.5522847 0-1 .4477153-1 1v5h-4v-5c0-.5522847-.4477153-1-1-1s-1 .4477153-1 1v5h-2v-5c.0033061-2.7600532 2.2399468-4.9966939 5-5h2c1.5799748-.0025161 3.0661907.7495091 4 2.024v6.976c.0033144.3414397.0655622.679743.184 1h-1.184v-5c0-.5522847-.4477153-1-1-1zm-3-6c-2.209139 0-4-1.790861-4-4s1.790861-4 4-4 4 1.790861 4 4-1.790861 4-4 4zm14-3c-2.0223112 0-3.8454927-1.2182109-4.6193977-3.0865828-.773905-1.868372-.3461262-4.0189611 1.0838638-5.4489511s3.5805791-1.8577688 5.4489511-1.0838638c1.8683719.773905 3.0865828 2.5970865 3.0865828 4.6193977-.0033061 2.7600532-2.2399468 4.9966939-5 5zm2 2c2.7600532.0033061 4.9966939 2.2399468 5 5v7c0 .5522847-.4477153 1-1 1s-1-.4477153-1-1v-7c0-.5522847-.4477153-1-1-1s-1 .4477153-1 1v7c.0033144.3414397.0655622.679743.184 1h-6.368c.1184378-.320257.1806856-.6585603.184-1v-7c0-.5522847-.4477153-1-1-1s-1 .4477153-1 1v7c0 .5522847-.4477153 1-1 1s-1-.4477153-1-1v-7c.0033061-2.7600532 2.2399468-4.9966939 5-5zm18 13h-2v-5c0-.5522847-.4477153-1-1-1s-1 .4477153-1 1v5h-4v-5c0-.5522847-.4477153-1-1-1s-1 .4477153-1 1v5h-1.184c.1184378-.320257.1806856-.6585603.184-1v-6.976c.9338093-1.2744909 2.4200252-2.0265161 4-2.024h2c2.7600532.0033061 4.9966939 2.2399468 5 5zm-6-12c-2.209139 0-4-1.790861-4-4s1.790861-4 4-4 4 1.790861 4 4-1.790861 4-4 4zm9 7h-1c-.0038653-2.7656998-1.6344213-5.2702996-4.162-6.393 1.9430795-1.6159467 2.6652916-4.2761932 1.806149-6.6528959s-3.1154288-3.9602665-5.642649-3.9602665-4.7835064 1.5835638-5.642649 3.9602665-.1369305 5.0369492 1.806149 6.6528959c-.576043.2549623-1.1143934.5877301-1.6.989-.7116642-1.9304432-2.2340445-3.451727-4.165-4.162 2.3050401-1.8657131 3.1843369-4.9814209 2.1947573-7.7769222-.9895797-2.7955013-3.6332733-4.6641056-6.5987573-4.6641056s-5.6091776 1.8686043-6.5987573 4.6641056c-.9895796 2.7955013-.1102828 5.9112091 2.1947573 7.7769222-1.9291319.7128619-3.4488475 2.2355015-4.158 4.166-.4856066-.4012699-1.023957-.7340377-1.6-.989 1.9430795-1.6159467 2.6652916-4.2761932 1.806149-6.6528959s-3.1154288-3.9602665-5.642649-3.9602665-4.7835064 1.5835638-5.642649 3.9602665c-.85914257 2.3767027-.1369305 5.0369492 1.806149 6.6528959-2.5258651 1.1224088-4.1557332 3.6249869-4.161 6.389h-1c-.55228475 0-1-.4477153-1-1v-31.358l22.406-14.188c.9744935-.6134571 2.2145065-.6134571 3.189 0l22.405 14.188v31.358c0 .5522847-.4477153 1-1 1zm4.846-33.476c-.1417152.2245776-.3669365.3835659-.6260014.4419071-.2590648.0583412-.5306965.0112437-.7549986-.1309071l-23.801-15.071c-1.628331-1.02547849-3.700669-1.02547849-5.329 0l-23.801 15.072c-.4672329.29492-1.08507991.1552329-1.37999996-.312-.29492004-.4672329-.15523291-1.0850799.31199996-1.38l23.8-15.068c2.2844572-1.43206178 5.1865428-1.43206178 7.471 0l23.8 15.069c.4657769.2957195.604049.9127981.309 1.379z"/><path id="Shape" d="m37.995 13.9c-.0443116-.4372624-.3689268-.7943391-.8-.88-4.488-.9-6.293-3.471-6.364-3.575-.1853279-.27777516-.4970758-.44471597-.831-.445-.3373224-.01938392-.6577706.14911108-.833.438-.074.109-1.879 2.682-6.367 3.58-.4310732.0856609-.7556884.4427376-.8.88l-.451 4.515c-.357238 3.7127598 1.600199 7.2643366 4.93 8.945l3.074 1.542c.2814108.1406214.6125892.1406214.894 0l3.069-1.535c3.329801-1.6806634 5.287238-5.2322402 4.93-8.945zm-5.373 11.671-2.622 1.311-2.622-1.311c-2.5902285-1.3066234-4.1127343-4.0692924-3.834-6.957l.379-3.8c2.2864395-.5249766 4.3870643-1.6618789 6.077-3.289 1.6895835 1.6282122 3.7902405 2.7661689 6.077 3.292l.379 3.8c.2774432 2.8866642-1.2448667 5.6477866-3.834 6.954z"/><path id="Shape" d="m32.219 16.375-3.3 4.128-1.21-1.21c-.3923789-.3789722-1.0160848-.3735524-1.4018186.0121814s-.3911536 1.0094397-.0121814 1.4018186l2 2c.1870024.1870602.4404985.2924139.705.293h.055c.2841976-.0156652.5482536-.1516941.726-.374l4-5c.223291-.2790244.2807626-.655978.1507659-.9888659s-.4277123-.5711365-.781-.625c-.3532878-.0538634-.7084749.0848415-.9317659.3638659z"/></g></g></svg>