<svg xmlns="http://www.w3.org/2000/svg" height="512" viewBox="0 0 60 60" width="512"><g id="Page-1" fill="none" fill-rule="evenodd"><g id="025---Hot-Towel" fill="rgb(0,0,0)" fill-rule="nonzero"><path id="Shape" d="m3 29h4v19c0 1.6568542 1.34314575 3 3 3h10v6c0 1.6568542 1.3431458 3 3 3h27c1.6568542 0 3-1.3431458 3-3v-28h4c1.6568542 0 3-1.3431458 3-3v-1c0-1.6568542-1.3431458-3-3-3h-4.89c-1.2892021-2.4577091-3.8346852-3.9980922-6.61-4h-31c-2.7751707.0115542-5.31903634 1.5486331-6.62 4h-4.88c-1.65685425 0-3 1.3431458-3 3v1c0 1.6568542 1.34314575 3 3 3zm35 14h-29v-2h29zm-29 5v-3h29v3c0 .5522847-.4477153 1-1 1h-27c-.55228475 0-1-.4477153-1-1zm41 10h-27c-.5522847 0-1-.4477153-1-1v-6h15c1.6568542 0 3-1.3431458 3-3v-17.42c1.4130331 1.5420004 3.4084868 2.42 5.5 2.42s4.0869669-.8779996 5.5-2.42v26.42c0 .5522847-.4477153 1-1 1zm-8.74-29h8.48c-1.0428448 1.2678682-2.5983499 2.0025224-4.24 2.0025224s-3.1971552-.7346542-4.24-2.0025224zm16.74-4v1c0 .5522847-.4477153 1-1 1h-17v-1.5c.009845-.5087289.0906237-1.0135961.24-1.5h16.76c.5522847 0 1 .4477153 1 1zm-8.26-3h-8.48c1.0428448-1.2678682 2.5983499-2.0025224 4.24-2.0025224s3.1971552.7346542 4.24 2.0025224zm-40.74 3.07c.22961069-2.8662039 2.6246165-5.0739638 5.5-5.07l25.91-.0000053c-1.5322103 1.4191478-2.4052483 3.4115582-2.41 5.5000053v13.5h-29v-13.47s0-.31 0-.46zm-7-.07c0-.5522847.44771525-1 1-1h4.16c-.06.31-.11.62-.14.94s0 .53 0 .56v1.5h-4.02c-.55228475 0-1-.4477153-1-1z"/><path id="Shape" d="m16.84 10.94c1.540437-1.59940495 1.540437-4.13059505 0-5.73l-.25-.21c-.7898936-.82083369-.7898936-2.11916631 0-2.94l.31-.31c.1893127-.1877666.2957983-.44336246.2957983-.71s-.1064856-.5222334-.2957983-.71c-.1877666-.18931265-.4433625-.29579832-.71-.29579832s-.5222334.10648567-.71.29579832l-.3.31c-1.541681 1.60277842-1.541681 4.13722158 0 5.74l.25.25c.809989.84405739.7876666 2.18340354-.05 3l-.2.21c-1.541681 1.6027784-1.541681 4.1372216 0 5.74l.16.16c.3900375.3877236 1.0199625.3877236 1.41 0 .1893127-.1877666.2957983-.4433625.2957983-.71s-.1064856-.5222334-.2957983-.71l-.16-.16c-.7898936-.8208337-.7898936-2.1191663 0-2.94z"/><path id="Shape" d="m23.84 10.94c1.540437-1.59940495 1.540437-4.13059505 0-5.73l-.25-.21c-.7898936-.82083369-.7898936-2.11916631 0-2.94l.31-.31c.1893127-.1877666.2957983-.44336246.2957983-.71s-.1064856-.5222334-.2957983-.71c-.1877666-.18931265-.4433625-.29579832-.71-.29579832s-.5222334.10648567-.71.29579832l-.3.31c-1.541681 1.60277842-1.541681 4.13722158 0 5.74l.25.25c.809989.84405739.7876666 2.18340354-.05 3l-.2.21c-1.541681 1.6027784-1.541681 4.1372216 0 5.74l.16.16c.3900375.3877236 1.0199625.3877236 1.41 0 .1893127-.1877666.2957983-.4433625.2957983-.71s-.1064856-.5222334-.2957983-.71l-.16-.16c-.7898936-.8208337-.7898936-2.1191663 0-2.94z"/><path id="Shape" d="m30.59 11.2.25-.26c1.540437-1.59940495 1.540437-4.13059505 0-5.73l-.25-.21c-.7898936-.82083369-.7898936-2.11916631 0-2.94l.31-.31c.1893127-.1877666.2957983-.44336246.2957983-.71s-.1064856-.5222334-.2957983-.71c-.1877666-.18931265-.4433625-.29579832-.71-.29579832s-.5222334.10648567-.71.29579832l-.3.31c-1.541681 1.60277842-1.541681 4.13722158 0 5.74l.25.25c.809989.84405739.7876666 2.18340354-.05 3l-.2.21c-1.541681 1.6027784-1.541681 4.1372216 0 5.74l.16.16c.3900375.3877236 1.0199625.3877236 1.41 0 .1893127-.1877666.2957983-.4433625.2957983-.71s-.1064856-.5222334-.2957983-.71l-.16-.16c-.802809-.8233637-.802809-2.1366363 0-2.96z"/><path id="Shape" d="m37.84 10.94c1.540437-1.59940495 1.540437-4.13059505 0-5.73l-.25-.21c-.7898936-.82083369-.7898936-2.11916631 0-2.94l.31-.31c.1893127-.1877666.2957983-.44336246.2957983-.71s-.1064856-.5222334-.2957983-.71c-.1877666-.18931265-.4433625-.29579832-.71-.29579832s-.5222334.10648567-.71.29579832l-.3.31c-1.541681 1.60277842-1.541681 4.13722158 0 5.74l.25.25c.8236667.83039329.8236667 2.16960671 0 3l-.2.21c-1.541681 1.6027784-1.541681 4.1372216 0 5.74l.16.16c.3900375.3877236 1.0199625.3877236 1.41 0 .1893127-.1877666.2957983-.4433625.2957983-.71s-.1064856-.5222334-.2957983-.71l-.16-.16c-.7898936-.8208337-.7898936-2.1191663 0-2.94z"/><path id="Shape" d="m44.84 10.94c1.540437-1.59940495 1.540437-4.13059505 0-5.73l-.25-.21c-.7898936-.82083369-.7898936-2.11916631 0-2.94l.31-.31c.1893127-.1877666.2957983-.44336246.2957983-.71s-.1064856-.5222334-.2957983-.71c-.1877666-.18931265-.4433625-.29579832-.71-.29579832s-.5222334.10648567-.71.29579832l-.3.31c-1.541681 1.60277842-1.541681 4.13722158 0 5.74l.25.25c.8236667.83039329.8236667 2.16960671 0 3l-.2.21c-1.541681 1.6027784-1.541681 4.1372216 0 5.74l.16.16c.3900375.3877236 1.0199625.3877236 1.41 0 .1893127-.1877666.2957983-.4433625.2957983-.71s-.1064856-.5222334-.2957983-.71l-.16-.16c-.7898936-.8208337-.7898936-2.1191663 0-2.94z"/></g></g></svg>