<svg xmlns="http://www.w3.org/2000/svg" height="512" viewBox="0 0 60 60" width="512"><g id="Page-1" fill="none" fill-rule="evenodd"><g id="011---Five-Star-Hotel" fill="rgb(0,0,0)" fill-rule="nonzero"><path id="Shape" d="m35.933 4.372c-.2396205-.7199025-.8627943-1.24455848-1.613-1.358l-1.745-.266-.744-1.584c-.3328279-.7103818-1.046515-1.16414045-1.831-1.16414045s-1.4981721.45375865-1.831 1.16414045l-.744 1.584-1.745.267c-.7496633.11412572-1.3724538.63810501-1.6131345 1.35719649-.2406806.71909149-.0587875 1.51239923.4711345 2.05480351l1.325 1.359-.3 1.863c-.1272269.7653692.1947142 1.5360431.8285763 1.9834752.6338622.4474321 1.4678492.4927075 2.1464237.1165248l1.462-.814 1.465.811c.6776005.3769813 1.5114455.3314777 2.144-.117.6362692-.4440239.9597955-1.2148807.831-1.98l-.3-1.863 1.325-1.359c.530364-.5423079.7112345-1.33651494.468-2.055zm-3.58 2.378c-.2214749.22713731-.322036.54589011-.271.859l.351 2.386-1.949-1.078c-.301168-.166576-.666832-.166576-.968 0l-1.983 1.054.385-2.362c.051036-.31310989-.0495251-.63186269-.271-.859l-1.665-1.758 2.272-.347c.3300298-.05019625.6132477-.26176567.755-.564l1-2.08.007.012.97 2.068c.1417523.30223433.4249702.51380375.755.564l2.285.385z"/><path id="Shape" d="m21.9 6c-.2264977-.68006431-.814516-1.17619262-1.523-1.285l-1.5-.231-.641-1.376c-.3131341-.67489483-.9895-1.10669984-1.7335-1.10669984s-1.4203659.43180501-1.7335 1.10669984l-.641 1.376-1.5.231c-.7089438.11184793-1.2966027.60918612-1.524131 1.28987852-.2275283.68069239-.057056 1.43144362.442131 1.94712148l1.15 1.188-.264 1.631c-.1232448.7253697.181118 1.4570378.7824629 1.8809892s1.3927402.4647985 2.0345371.1050108l1.255-.7 1.254.7c.6422034.3559951 1.431416.3134368 2.0316125-.1095548.6001966-.4229916.9056814-1.1519269.7863875-1.8764452l-.264-1.631 1.15-1.188c.5006435-.51696912.669767-1.27068877.438-1.952zm-3.378 2.108c-.219523.22660734-.3192308.54352275-.269.855l.317 1.958-1.584-.881c-.302208-.16805492-.669792-.16805492-.972 0l-1.584.881.317-1.958c.0502308-.31147725-.049477-.62839266-.269-.855l-1.395-1.441 1.875-.289c.3302419-.05040088.6135053-.26237945.755-.565l.76-1.75.814 1.75c.1414947.30262055.4247581.51459912.755.565l1.875.289z"/><path id="Shape" d="m9.9 9.63c-.21353891-.64281358-.76864359-1.1122206-1.438-1.216l-1.276-.2-.544-1.165c-.29616896-.63948743-.93675876-1.04876402-1.6415-1.04876402s-1.34533104.40927659-1.6415 1.04876402l-.545 1.17-1.276.2c-.66921446.10714241-1.22356081.57706934-1.4388249 1.21971143-.2152641.64264207-.05582682 1.35166317.4138249 1.84028857l.987 1.015-.226 1.394c-.11545459.6860511.17251955 1.3775605.74079981 1.7788751s1.31628249.4414028 1.92420019.1031249l1.061-.591 1.061.591c.60813641.3372353 1.35557903.2969213 1.92391476-.1037682.56833574-.4006894.85741352-1.0911456.74408524-1.7772318l-.229-1.395.984-1.015c.47415474-.489705.6347278-1.2034058.416-1.849zm-3.182 1.833c-.21952296.2266073-.31923085.5435227-.269.855l.245 1.515-1.207-.672c-.30272682-.1687974-.67127318-.1687974-.974 0l-1.207.672.245-1.515c.05023085-.3114773-.04947704-.6283927-.269-.855l-1.09-1.126 1.455-.224c.3297083-.051227.61214561-.26352386.753-.566l.6-1.286.6 1.286c.14104566.30274128.42391867.5150836.754.566l1.455.224z"/><path id="Shape" d="m48.9 6c-.2264977-.68006431-.814516-1.17619262-1.523-1.285l-1.5-.231-.642-1.377c-.3133724-.67431071-.9894294-1.10562307-1.733-1.10562307s-1.4196276.43131236-1.733 1.10562307l-.641 1.376-1.5.231c-.7089438.11184793-1.2966027.60918612-1.524131 1.28987852-.2275283.68069239-.057056 1.43144362.442131 1.94712148l1.15 1.188-.264 1.631c-.1232448.7253697.181118 1.4570378.7824629 1.8809892s1.3927402.4647985 2.0345371.1050108l1.255-.7 1.254.7c.6422034.3559951 1.431416.3134368 2.0316125-.1095548.6001966-.4229916.9056814-1.1519269.7863875-1.8764452l-.264-1.631 1.15-1.188c.5002599-.516768.669357-1.26998382.438-1.951zm-3.378 2.108c-.219523.22660734-.3192308.54352275-.269.855l.317 1.958-1.584-.881c-.302208-.16805492-.669792-.16805492-.972 0l-1.584.881.317-1.958c.0502308-.31147725-.049477-.62839266-.269-.855l-1.4-1.441 1.875-.289c.3302419-.05040088.6135053-.26237945.755-.565l.792-1.691.787 1.691c.1414947.30262055.4247581.51459912.755.565l1.875.289z"/><path id="Shape" d="m52.021 15.67c.5666534.4001286 1.3128085.4390314 1.918.1l1.061-.591 1.061.591c.6081364.3372353 1.355579.2969213 1.9239148-.1037682.5683357-.4006894.8574135-1.0911456.7440852-1.7772318l-.229-1.395.984-1.015c.4725469-.4883938.6338228-1.19928.41829-1.8437756-.2155328-.64449564-.7720078-1.11535097-1.44329-1.2212244l-1.276-.2-.544-1.169c-.2965277-.63936423-.9372197-1.04846471-1.642-1.04846471s-1.3454723.40910048-1.642 1.04846471l-.544 1.169-1.276.2c-.6712822.10587343-1.2277572.57672876-1.44329 1.2212244-.2155328.6444956-.0542569 1.3553818.41829 1.8437756l.984 1.015-.226 1.394c-.114878.689654.1783946 1.3836934.753 1.782zm1.626-5.557c.3300813-.0509164.6129543-.26325872.754-.566l.599-1.286.6 1.286c.1410457.30274128.4239187.5150836.754.566l1.455.224-1.09 1.126c-.219523.2266073-.3192308.5435227-.269.855l.245 1.515-1.207-.672c-.3027268-.1687974-.6712732-.1687974-.974 0l-1.207.672.245-1.515c.0502308-.3114773-.049477-.6283927-.269-.855l-1.09-1.126z"/><path id="Shape" d="m2 60h56c1.1045695 0 2-.8954305 2-2v-10c0-1.1045695-.8954305-2-2-2h-3v-25c0-1.6568542-1.3431458-3-3-3h-11v-1c0-1.6568542-1.3431458-3-3-3h-16c-1.6568542 0-3 1.3431458-3 3v1h-11c-1.65685425 0-3 1.3431458-3 3v25h-3c-1.1045695 0-2 .8954305-2 2v10c0 1.1045695.8954305 2 2 2zm6-2v-5h4v5zm18-6h3v6h-3zm5 6v-6h3v6zm17 0v-5h4v5zm4-38c.5522847 0 1 .4477153 1 1v25h-12v-26zm-31-3c0-.5522847.4477153-1 1-1h16c.5522847 0 1 .4477153 1 1v29h-18zm-14 4c0-.5522847.44771525-1 1-1h11v26h-12zm-5 27h56v10h-4v-5c.5522847 0 1-.4477153 1-1s-.4477153-1-1-1h-8c-.5522847 0-1 .4477153-1 1s.4477153 1 1 1v5h-10v-6h1c.5522847 0 1-.4477153 1-1s-.4477153-1-1-1h-14c-.5522847 0-1 .4477153-1 1s.4477153 1 1 1h1v6h-10v-5c.5522847 0 1-.4477153 1-1s-.4477153-1-1-1h-8c-.55228475 0-1 .4477153-1 1s.44771525 1 1 1v5h-4z"/><path id="Shape" d="m25 25h2c1.1045695 0 2-.8954305 2-2v-2c0-1.1045695-.8954305-2-2-2h-2c-1.1045695 0-2 .8954305-2 2v2c0 1.1045695.8954305 2 2 2zm0-4h2v2h-2z"/><path id="Shape" d="m33 25h2c1.1045695 0 2-.8954305 2-2v-2c0-1.1045695-.8954305-2-2-2h-2c-1.1045695 0-2 .8954305-2 2v2c0 1.1045695.8954305 2 2 2zm0-4h2v2h-2z"/><path id="Shape" d="m25 34h2c1.1045695 0 2-.8954305 2-2v-2c0-1.1045695-.8954305-2-2-2h-2c-1.1045695 0-2 .8954305-2 2v2c0 1.1045695.8954305 2 2 2zm2-4v2h-2v-2z"/><path id="Shape" d="m33 34h2c1.1045695 0 2-.8954305 2-2v-2c0-1.1045695-.8954305-2-2-2h-2c-1.1045695 0-2 .8954305-2 2v2c0 1.1045695.8954305 2 2 2zm2-4v2h-2v-2z"/><path id="Shape" d="m27 37h-2c-1.1045695 0-2 .8954305-2 2v2c0 1.1045695.8954305 2 2 2h2c1.1045695 0 2-.8954305 2-2v-2c0-1.1045695-.8954305-2-2-2zm-2 4v-2h2v2z"/><path id="Shape" d="m11 28h4c1.1045695 0 2-.8954305 2-2v-2c0-1.1045695-.8954305-2-2-2h-4c-1.1045695 0-2 .8954305-2 2v2c0 1.1045695.8954305 2 2 2zm0-4h4v2h-4z"/><path id="Shape" d="m15 30h-4c-1.1045695 0-2 .8954305-2 2v2c0 1.1045695.8954305 2 2 2h4c1.1045695 0 2-.8954305 2-2v-2c0-1.1045695-.8954305-2-2-2zm-4 4v-2h4v2z"/><path id="Shape" d="m15 38h-4c-1.1045695 0-2 .8954305-2 2v2c0 1.1045695.8954305 2 2 2h4c1.1045695 0 2-.8954305 2-2v-2c0-1.1045695-.8954305-2-2-2zm-4 4v-2h4v2z"/><path id="Shape" d="m45 28h4c1.1045695 0 2-.8954305 2-2v-2c0-1.1045695-.8954305-2-2-2h-4c-1.1045695 0-2 .8954305-2 2v2c0 1.1045695.8954305 2 2 2zm0-4h4v2h-4z"/><path id="Shape" d="m43 32v2c0 1.1045695.8954305 2 2 2h4c1.1045695 0 2-.8954305 2-2v-2c0-1.1045695-.8954305-2-2-2h-4c-1.1045695 0-2 .8954305-2 2zm6 2h-4v-2h4z"/><path id="Shape" d="m49 38h-4c-1.1045695 0-2 .8954305-2 2v2c0 1.1045695.8954305 2 2 2h4c1.1045695 0 2-.8954305 2-2v-2c0-1.1045695-.8954305-2-2-2zm0 4h-4v-2h4z"/><path id="Shape" d="m35 37h-2c-1.1045695 0-2 .8954305-2 2v2c0 1.1045695.8954305 2 2 2h2c1.1045695 0 2-.8954305 2-2v-2c0-1.1045695-.8954305-2-2-2zm-2 4v-2h2v2z"/></g></g></svg>