<svg xmlns="http://www.w3.org/2000/svg" height="512" viewBox="0 0 60 60" width="512"><g id="Page-1" fill="none" fill-rule="evenodd"><g id="006---Internet-Browser" fill="rgb(0,0,0)" fill-rule="nonzero"><path id="Shape" d="m57 7h-11.832c-3.7871632-4.44171963-9.3309221-7.00024063-15.168-7.00024063s-11.3808368 2.558521-15.168 7.00024063h-11.832c-1.65685425 0-3 1.34314575-3 3v37c0 1.6568542 1.34314575 3 3 3h17.987c-.2221472 1.602555-1.0384403 3.0631022-2.287 4.092h-.7c-1.6060441 0-2.908 1.3019559-2.908 2.908s1.3019559 2.908 2.908 2.908h24c1.6060441 0 2.908-1.3019559 2.908-2.908s-1.3019559-2.908-2.908-2.908h-.7c-1.2485597-1.0288978-2.0648528-2.489445-2.287-4.092h17.987c1.6568542 0 3-1.3431458 3-3v-37c0-1.65685425-1.3431458-3-3-3zm-27-5c9.9411255 0 18 8.0588745 18 18s-8.0588745 18-18 18-18-8.0588745-18-18c.0115721-9.9363282 8.0636718-17.98842786 18-18zm13.093 55c-.0005519.6032567-.4897431 1.0920003-1.093 1.092h-24c-.390134 0-.7506328-.208134-.9456998-.546-.1950671-.337866-.1950671-.754134 0-1.092.195067-.337866.5555658-.546.9456998-.546h24c.6032569-.0000003 1.0924481.4887433 1.093 1.092zm-4.317-2.908h-17.552c.8569847-1.2138434 1.40483-2.6184693 1.596-4.092h14.36c.19117 1.4735307.7390153 2.8781566 1.596 4.092zm18.224-6.092h-54c-.55228475 0-1-.4477153-1-1v-2h4c.55228475 0 1-.4477153 1-1s-.44771525-1-1-1h-4v-33c0-.55228475.44771525-1 1-1h10.314c-5.51899606 8.3519116-4.0129336 19.4978077 3.5247364 26.0854687 7.5376699 6.5876609 18.7848573 6.5876609 26.3225272 0 7.53767-6.587661 9.0437325-17.7335571 3.5247364-26.0854687h10.314c.5522847 0 1 .44771525 1 1v33h-48c-.55228475 0-1 .4477153-1 1s.44771525 1 1 1h48v2c0 .5522847-.4477153 1-1 1z"/><path id="Shape" d="m15 21h5.028c.0468861 2.3855392.3245134 4.7609432.829 7.093-.831.209-1.665.444-2.531.741-.3379732.1159327-.5884241.4033655-.65701.7540252-.068586.3506598.0551127.711273.3245.946.2693872.2347271.6435368.3079075.98151.1919748.807-.277 1.583-.5 2.356-.691.3790215 1.3904674.8858472 2.7428952 1.514 4.04.1696643.3414467.5187272.5567022.9.555.1545028.0002759.306917-.035687.445-.105.4940809-.2459531.6954836-.8456857.45-1.34-.5561863-1.1475564-1.0073603-2.3431007-1.348-3.572 1.8844456-.3437864 3.7929794-.5390533 5.708-.584v5.971c0 .5522847.4477153 1 1 1s1-.4477153 1-1v-5.971c1.9166487.0453905 3.8268094.2406529 5.713.584-.3410246 1.2289124-.7925316 2.424452-1.349 3.572-.2454836.4943143-.0440809 1.0940469.45 1.34.138083.069313.2904972.1052759.445.105.3812728.0017022.7303357-.2135533.9-.555.6283583-1.2970168 1.1351912-2.6494639 1.514-4.04.772.2 1.549.414 2.356.691.3379732.1159327.7121228.0427523.98151-.1919748.2693873-.234727.393086-.5953402.3245-.946-.0685859-.3506597-.3190368-.6380925-.65701-.7540252-.867-.3-1.7-.532-2.531-.741.5028453-2.3322373.7791295-4.7076111.825-7.093h5.028c.5522847 0 1-.4477153 1-1s-.4477153-1-1-1h-5.028c-.0468861-2.3855392-.3245134-4.7609432-.829-7.093.831-.209 1.665-.444 2.531-.741.3379733-.1159327.5884241-.4033655.6570101-.7540252.068586-.3506598-.0551127-.71127299-.3245-.94600007s-.6435368-.30790744-.9815101-.19197473c-.807.277-1.583.5-2.356.691-.3790215-1.39046739-.8858472-2.74289517-1.514-4.04-.2481223-.49017625-.8452206-.68838674-1.3372194-.44389824s-.6946219.84010389-.4537806 1.33389824c.5561863 1.14755645 1.0073603 2.34310067 1.348 3.572-1.8857621.3439947-3.7956415.5392625-5.712.584v-5.971c0-.55228475-.4477153-1-1-1s-1 .44771525-1 1v5.971c-1.9166487-.0453905-3.8268094-.2406529-5.713-.584.3410246-1.22891242.7925316-2.42445199 1.349-3.572.2408413-.49379435.0382182-1.08940974-.4537806-1.33389824s-1.0890971-.04627801-1.3372194.44389824c-.6283583 1.29701678-1.1351912 2.64946392-1.514 4.04-.772-.2-1.549-.414-2.356-.691-.3379733-.1159327-.7121228-.04275235-.9815101.19197473-.2693872.23472708-.393086.59534027-.3245.94600007.068586.3506597.3190368.6380925.6570101.7540252.867.3 1.7.532 2.531.741-.5041904 2.332106-.7818142 4.7074812-.829 7.093h-5.028c-.5522847 0-1 .4477153-1 1s.4477153 1 1 1zm7.811 6.668c-.474295-2.192403-.7365036-4.4253621-.783-6.668h6.972v6.03c-2.0767757.0462795-4.1464577.259635-6.189.638zm14.379 0c-2.0428305-.3787017-4.112872-.5920598-6.19-.638v-6.03h6.972c-.04647 2.2425848-.3083403 4.4755145-.782 6.668zm0-15.335c.4735169 2.1921713.735386 4.4247555.782 6.667h-6.972v-6.025c2.0773044-.0461776 4.1474341-.2608825 6.19-.642zm-14.38 0c2.0425823.3810043 4.1127028.5957082 6.19.642v6.025h-6.972c.0464107-2.2422585.308282-4.4748621.782-6.667z"/></g></g></svg>