<svg xmlns="http://www.w3.org/2000/svg" id="Icons" viewBox="0 0 60 60" width="512" height="512"><path d="M13.936,15.064l-1.073-1.959a2.125,2.125,0,0,0-3.726,0L8.064,15.064,6.105,16.136a2.126,2.126,0,0,0,0,3.728l1.959,1.072L9.137,22.9a2.125,2.125,0,0,0,3.726,0l1.073-1.959L15.9,19.864a2.126,2.126,0,0,0,0-3.728Zm1,3.045c-2.118,1.167-2.407,1.231-2.615,1.61l-1.212,2.216a.239.239,0,0,1-.218,0c-1.313-2.382-1.267-2.427-1.61-2.614C6.867,18,7,18.106,7,18s-.116-.011,2.281-1.321c.349-.191.307-.251,1.61-2.614a.123.123,0,0,1,.218,0c1.348,2.362,1.267,2.427,1.61,2.614C15.133,18,15,17.894,15,18A.116.116,0,0,1,14.936,18.109Z"/><path d="M27.105,21.864l1.959,1.072L30.137,24.9a2.125,2.125,0,0,0,3.726,0l1.073-1.959L36.9,21.864a2.126,2.126,0,0,0,0-3.728l-1.959-1.072-1.073-1.959a2.125,2.125,0,0,0-3.726,0l-1.073,1.959-1.959,1.072A2.126,2.126,0,0,0,27.105,21.864Zm.959-1.973c2.118-1.167,2.407-1.231,2.615-1.61C31.983,15.9,31.889,16,32,16s.009-.115,1.321,2.281c.191.349.245.3,2.615,1.61a.124.124,0,0,1,0,.218c-2.118,1.167-2.407,1.231-2.615,1.61l-1.212,2.216a.239.239,0,0,1-.218,0c-1.313-2.382-1.267-2.427-1.61-2.614C27.867,20,28,20.106,28,20A.116.116,0,0,1,28.064,19.891Z"/><path d="M20.341,13.72a2.462,2.462,0,0,0,4.318,0L26.1,11.1,28.721,9.66a2.465,2.465,0,0,0,0-4.32L26.1,3.905,24.659,1.28a2.462,2.462,0,0,0-4.318,0L18.905,3.905,16.279,5.34a2.465,2.465,0,0,0,0,4.32L18.905,11.1ZM17.239,7.1l2.882-1.576c.343-.187.243-.114,1.974-3.279a.461.461,0,0,1,.81,0c1.683,3.065,1.622,3.087,1.974,3.279L27.76,7.1a.461.461,0,0,1,0,.81L24.879,9.481c-.343.187-.243.114-1.974,3.279a.461.461,0,0,1-.81,0c-1.678-3.068-1.622-3.087-1.974-3.279L17.24,7.905A.461.461,0,0,1,17.239,7.1Z"/><path d="M58,15H46a2,2,0,0,0-2,2V34H2a2,2,0,0,0-2,2V58a2,2,0,0,0,2,2H58a2,2,0,0,0,2-2V17A2,2,0,0,0,58,15Zm0,2V29H46V17ZM24,46h9V58H24Zm11,0h9V58H35Zm9-2H24V36H44ZM22,36v6H2V36ZM2,44H22V58H2ZM46,58V31H58V58Z"/><circle cx="6" cy="39" r="1"/><circle cx="12" cy="39" r="1"/><circle cx="18" cy="39" r="1"/><path d="M18,46H6a2,2,0,0,0-2,2v6a2,2,0,0,0,2,2H18a2,2,0,0,0,2-2V48A2,2,0,0,0,18,46ZM6,54V48H18v6Z"/><path d="M49,26a1,1,0,0,0,1-1V23a1,1,0,0,0-2,0v2A1,1,0,0,0,49,26Z"/><path d="M49,34a1,1,0,0,0-1,1v2a1,1,0,0,0,2,0V35A1,1,0,0,0,49,34Z"/><path d="M38,48a1,1,0,0,0-1,1v2a1,1,0,0,0,2,0V49A1,1,0,0,0,38,48Z"/><path d="M30,48a1,1,0,0,0-1,1v2a1,1,0,0,0,2,0V49A1,1,0,0,0,30,48Z"/></svg>