<svg xmlns="http://www.w3.org/2000/svg" height="512" viewBox="0 0 56 60" width="512"><g id="Page-1" fill="none" fill-rule="evenodd"><g id="053---Leaking-Pipe" fill="rgb(0,0,0)" fill-rule="nonzero"><path id="Shape" d="m54 32h-3.184c-.4222546-1.1943509-1.5492146-1.9947486-2.816-2h-6c-1.3483845.0055709-2.5273833.91007-2.882 2.211l-4.942 1.413c-.7408229.2156579-1.3700725.7084567-1.757 1.376h-9.919c-.2761424 0-.5-.2238576-.5-.5v-10.919c.6675433-.3869275 1.1603421-1.0161771 1.376-1.757l1.412-4.942c1.3013266-.3542413 2.2063053-1.533332 2.212-2.882v-6c-.0052514-1.26678543-.8056491-2.39374545-2-2.816v-3.184c0-1.1045695-.8954305-2-2-2h-17c-1.1045695 0-2 .8954305-2 2v3.184c-1.19435087.42225455-1.99474861 1.54921457-2 2.816v6c.00569466 1.348668.91067342 2.5277587 2.212 2.882l1.412 4.943c.21588531.7404513.70865812 1.3693096 1.376 1.756v10.919c.00052477 3.9652335 1.52785491 7.7780082 4.265 10.647v.007c.0556486.080595.1230644.1523928.2.213 2.9064451 2.9642535 6.8835881 4.6340408 11.035 4.633h9.919c.3869275.6675433 1.0161771 1.1603421 1.757 1.376l4.943 1.413c.3527155 1.3017822 1.5322861 2.207034 2.881 2.211h6c1.2667854-.0052514 2.3937454-.8056491 2.816-2h3.184c1.1045695 0 2-.8954305 2-2v-17c0-1.1045695-.8954305-2-2-2zm-13 7h8v7h-8zm1-7h6c.5522847 0 1 .4477153 1 1v4h-8v-4c0-.5522847.4477153-1 1-1zm-17-18c0 .5522847-.4477153 1-1 1h-4v-8h4c.5522847 0 1 .44771525 1 1zm-14 1v-8h7v8zm-5-13h17v3h-17zm-2 6c0-.55228475.44771525-1 1-1h4v8h-4c-.55228475 0-1-.4477153-1-1zm2.326 9h16.348l-1.221 4.274c-.1224392.4297572-.5151414.7261208-.962.726h-11.982c-.44657884.0002482-.83919087-.2956393-.962-.725zm7.386 27.727 2.843-1.895c.2780697-.1855246.44505-.4977215.445-.832v-2h2.586l1.707 1.707c.3923789.3789722 1.0160848.3735524 1.4018186-.0121814s.3911536-1.0094397.0121814-1.4018186l-2-2c-.1874927-.1875494-.4418052-.2929434-.707-.293h-3.586l-2.127-2.127 1.545-2.318c.306518-.4595009.1825009-1.0804819-.277-1.387-.4595009-.306518-1.080482-.1825009-1.387.277l-2 3c-.2645074.3966765-.2121853.9249206.125 1.262l2.707 2.707v2.051l-2.73 1.819c-2.1094453-2.4403295-3.27017521-5.5583268-3.27-8.784v-10.5h11v10.5c0 1.3807119 1.1192881 2.5 2.5 2.5h9.5v11h-9.5c-3.227402.0001238-6.3469664-1.1617258-8.788-3.273zm20.288 3.764v-11.982c.0003258-.4464878.2965993-.8386624.726-.961l4.274-1.222v16.348l-4.275-1.222c-.4290043-.1227072-.7248018-.5147918-.725-.961zm14 4.509h-6c-.5522847 0-1-.4477153-1-1v-4h8v4c0 .5522847-.4477153 1-1 1zm6-2h-3v-17h3z"/><path id="Shape" d="m6.582 44.187c-.34802471-.2490816-.81597529-.2490816-1.164 0-.218.158-5.418 3.938-5.418 9.813.00000005 3.3137085 2.68629154 5.9999999 6 5.9999999s6-2.6862914 6-5.9999999c0-5.875-5.2-9.655-5.418-9.813zm-.582 13.813c-2.209139 0-4-1.790861-4-4 0-3.772 2.765-6.625 4-7.71 1.235 1.085 4 3.938 4 7.71 0 2.209139-1.790861 4-4 4z"/></g></g></svg>