<svg xmlns="http://www.w3.org/2000/svg" id="Capa_1" enable-background="new 0 0 512.03 512.03" height="512" viewBox="0 0 512.03 512.03" width="512"><g><g id="Page-1_89_"><g id="_x30_90---Fan-Repair" transform="translate(-1 -1)"><path id="Shape_570_" d="m188.815 180.219c-4.68 0-8.487 3.769-8.533 8.448-.019 4.715 3.768 8.562 8.482 8.619 4.713 0 8.533-3.821 8.533-8.533s-3.821-8.533-8.533-8.533h.051z"/><path id="Shape_569_" d="m313.692 140.522c.049-10.457-2.103-20.807-6.315-30.379-6.867-18.038-21.481-32.031-39.799-38.11-10.822-4.228-22.895-3.895-33.468.922-12.658 5.237-20.827 17.68-20.599 31.377.045 7.285-1.147 14.524-3.524 21.41-1.272 5.106-4.253 9.623-8.448 12.8-1.26-20.27-8.837-39.637-21.666-55.381-9.481-12.064-23.911-19.192-39.253-19.388-10.454.036-20.791 2.193-30.387 6.34-18.082 6.842-32.115 21.473-38.195 39.825-4.163 10.804-3.806 22.827.99 33.365 5.199 12.711 17.654 20.94 31.386 20.736 7.286.022 14.52 1.215 21.427 3.533 5.104 1.256 9.623 4.226 12.8 8.414-20.247 1.291-39.587 8.861-55.33 21.658-12.081 9.492-19.225 23.934-19.439 39.296-.056 10.474 2.083 20.842 6.281 30.438 6.862 18.057 21.493 32.062 39.834 38.127 5.209 1.844 10.687 2.816 16.213 2.876 5.942.017 11.813-1.301 17.178-3.857 12.667-5.223 20.853-17.66 20.642-31.36-.042-7.297 1.168-14.547 3.575-21.436 1.257-5.102 4.223-9.619 8.405-12.8 1.278 20.256 8.853 39.607 21.666 55.347 9.434 12.127 23.889 19.282 39.253 19.43h1.382c9.997-.193 19.857-2.359 29.013-6.374 18.062-6.866 32.07-21.504 38.135-39.851 4.156-10.795 3.806-22.806-.973-33.34-5.171-12.732-17.646-20.967-31.386-20.719-7.29.027-14.533-1.17-21.427-3.541-5.113-1.262-9.634-4.249-12.8-8.457 20.26-1.271 39.621-8.823 55.39-21.606 12.102-9.473 19.252-23.927 19.439-39.295zm-124.928 82.364c-18.851-.014-34.122-15.308-34.108-34.159s15.308-34.122 34.159-34.108 34.122 15.308 34.108 34.159-15.308 34.122-34.159 34.108zm-57.421-71.407c-8.694-2.981-17.825-4.489-27.017-4.463-7.134.167-13.565-4.276-15.932-11.008-2.839-6.515-2.925-13.901-.239-20.48 4.496-13.686 14.999-24.567 28.518-29.542 7.399-3.314 15.411-5.038 23.518-5.06 10.342.008 20.092 4.823 26.385 13.03 10.185 12.502 16.373 27.779 17.758 43.844-15.147 1.328-28.92 9.32-37.589 21.811-4.584-3.646-9.808-6.407-15.403-8.141v.009zm20.138 94.72c-3.024 8.691-4.556 17.831-4.531 27.034.148 7.122-4.27 13.542-10.974 15.949-6.519 2.833-13.908 2.904-20.48.196-13.691-4.484-24.579-14.983-29.559-28.501-3.295-7.393-5.018-15.39-5.06-23.484.03-10.387 4.898-20.167 13.167-26.453 12.493-10.159 27.744-16.341 43.785-17.749 1.015 11.979 6.242 23.211 14.754 31.701 2.176 2.168 4.541 4.139 7.066 5.888-3.653 4.587-6.422 9.813-8.166 15.411v.008zm94.72-20.139c8.418 2.947 17.269 4.47 26.189 4.506 7.369-.321 14.117 4.11 16.751 10.999 2.821 6.522 2.892 13.906.196 20.48-4.478 13.686-14.967 24.574-28.476 29.559-7.378 3.333-15.38 5.06-23.475 5.069-10.374-.044-20.142-4.891-26.453-13.124-10.171-12.497-16.357-27.758-17.758-43.81 15.152-1.321 28.931-9.31 37.606-21.803 4.589 3.638 9.815 6.39 15.411 8.115zm37.342-59.494c-12.507 10.144-27.766 16.308-43.81 17.698-1.349-15.137-9.352-28.893-21.845-37.547 3.635-4.582 6.408-9.787 8.183-15.36 3.028-8.707 4.551-17.866 4.506-27.085-.154-7.126 4.265-13.551 10.974-15.957 6.544-2.843 13.965-2.895 20.548-.145 13.677 4.489 24.559 14.974 29.551 28.476 3.302 7.381 4.998 15.38 4.975 23.467.013 10.377-4.827 20.164-13.082 26.453z"/><path id="Shape_568_" d="m188.764 376.486c20.971.029 41.798-3.479 61.602-10.377 2.951-.947 5.157-3.419 5.763-6.459.605-3.04-.485-6.169-2.849-8.174s-5.628-2.571-8.529-1.478c-68.447 23.784-144.451 1.752-189.567-54.95s-49.509-135.713-10.954-197.067 111.648-91.672 182.309-75.621 123.483 74.973 131.748 146.962c.53 4.685 4.758 8.052 9.442 7.522s8.052-4.758 7.522-9.442c-11.476-100.257-100.155-173.506-200.775-165.84s-177.18 93.501-173.337 194.34 86.713 180.599 187.625 180.584z"/><path id="Shape_567_" d="m497.474 7.692-10.752-4.642c-9.415-3.97-20.287-1.997-27.708 5.026l-32.597 31.155c-5.896 5.709-8.744 13.87-7.68 22.007l4.941 35.951c.21 1.527.007 3.083-.589 4.506l-62.234 145.749-.649-.273c-7.913-3.382-16.997-2.562-24.176 2.183s-11.494 12.78-11.485 21.386l.043 31.206c.01 2.509-1.097 4.892-3.021 6.502l-34.509 29.295c-3.039 2.576-5.439 5.821-7.014 9.481l-35.277 82.62c-6.74 15.82-6.343 33.776 1.09 49.283 7.433 15.506 21.182 27.062 37.737 31.716 5.091 1.446 10.358 2.178 15.65 2.176 24.575-.312 46.615-15.194 56.09-37.871l34.577-80.998c1.566-3.656 2.258-7.627 2.022-11.597l-2.731-45.227c-.147-2.502.815-4.943 2.628-6.673l22.562-21.581c6.073-5.763 8.925-14.143 7.626-22.414s-6.581-15.374-14.129-18.998l62.293-145.92c.628-1.433 1.623-2.675 2.884-3.601l29.38-21.265c6.615-4.824 10.543-12.506 10.581-20.693l-.085-45.039c.021-10.214-6.071-19.448-15.468-23.45zm-94.857 289.075-22.579 21.555c-5.446 5.193-8.325 12.525-7.868 20.036l2.731 45.227c.074 1.324-.16 2.647-.683 3.866l-34.586 80.99c-8.205 20.299-30.157 31.403-51.371 25.984-11.843-3.309-21.687-11.559-27.014-22.643-5.327-11.083-5.62-23.924-.805-35.239l35.277-82.611c.526-1.221 1.329-2.302 2.347-3.157l34.526-29.303c5.75-4.864 9.06-12.018 9.045-19.55l-.043-31.198c-.003-2.87 1.438-5.549 3.833-7.13s5.425-1.852 8.063-.721l8.107 3.465c.137.06.222.179.358.239.137.06.282 0 .418.085l30.72 13.116c.111 0 .179.145.29.188s.222 0 .333.077l6.357 2.714c2.638 1.124 4.535 3.497 5.05 6.317s-.42 5.711-2.49 7.695h-.016zm89.788-213.657-29.372 21.265c-3.755 2.739-6.702 6.438-8.533 10.709l-62.251 145.766-15.693-6.699 62.293-145.877c1.763-4.249 2.352-8.894 1.707-13.449l-4.924-35.84c-.365-2.748.583-5.507 2.56-7.45l32.58-31.13c2.479-2.353 6.113-3.022 9.267-1.707l10.718 4.634c3.117 1.323 5.135 4.388 5.12 7.774l.085 45.09c-.018 2.741-1.339 5.307-3.557 6.914z"/></g></g></g></svg>