<svg xmlns="http://www.w3.org/2000/svg" id="Icons" viewBox="0 0 60 60" width="512" height="512"><path d="M32,31H28a1,1,0,0,0,0,2h4a1,1,0,0,0,0-2Z"/><path d="M31,34H29a1,1,0,0,0,0,2h2a1,1,0,0,0,0-2Z"/><path d="M27,23a1,1,0,0,0-1-1H24a1,1,0,0,0,0,2,1,1,0,0,0,2,0A1,1,0,0,0,27,23Z"/><path d="M36,22H34a1,1,0,0,0,0,2,1,1,0,0,0,2,0,1,1,0,0,0,0-2Z"/><path d="M29,29h2a1,1,0,0,0,0-2H29a1,1,0,0,0,0,2Z"/><path d="M27,21a1,1,0,0,0,0-2H23a1,1,0,0,0,0,2Z"/><path d="M33,21h4a1,1,0,0,0,0-2H33a1,1,0,0,0,0,2Z"/><path d="M3,59a1,1,0,0,0,1,1H56a1,1,0,0,0,1-1c0-4.494-1.716-7.131-4.293-9.707-2.814-2.814-11.746-5.49-13.955-6.121a15.048,15.048,0,0,1-.9-7.085l2.44-2.134A5.01,5.01,0,0,0,42,30.18V28.9a5,5,0,0,0,4-4.89,4.943,4.943,0,0,0-1-2.966V12C45,5.383,39.235,0,32.15,0h-4.3C20.765,0,15,5.383,15,12v9.044a4.943,4.943,0,0,0-1,2.966,5,5,0,0,0,4,4.89v1.28a5.01,5.01,0,0,0,1.712,3.773l2.44,2.134a15.048,15.048,0,0,1-.9,7.085c-2.209.631-11.141,3.307-13.955,6.121C4.716,51.87,3,54.506,3,59ZM21.661,45.133C22.63,46.117,25.121,48,30,48s7.37-1.883,8.339-2.867c.48.138,1.044.306,1.661.5V52H20V45.632C20.617,45.439,21.181,45.271,21.661,45.133ZM44,52H42V46.282c.651.22,1.322.457,2,.707ZM18,52H16V46.989c.678-.25,1.349-.487,2-.707Zm-2,6V54H44v4Zm38.966,0H46V47.767a18.1,18.1,0,0,1,5.293,2.94C53.374,52.788,54.735,54.784,54.966,58ZM18,19.12a4.868,4.868,0,0,0-1,.331v-1.6c.268-.041.6-.089,1-.142Zm-.042-3.431C19.568,13.5,23.2,10,30,10s10.433,3.5,12.042,5.689A95.3,95.3,0,0,0,30,15,95.3,95.3,0,0,0,17.958,15.689ZM42,17.7c.4.053.732.1,1,.142v1.6a4.868,4.868,0,0,0-1-.331ZM27.85,2h4.3C38.133,2,43,6.486,43,12v1.683A16.355,16.355,0,0,0,30,8a16.355,16.355,0,0,0-13,5.683V12C17,6.486,21.867,2,27.85,2ZM20,30.18V28a1,1,0,0,0-1-1,2.981,2.981,0,0,1-1-5.8V22a1,1,0,0,0,2,0V20.02h0V17.473A99.274,99.274,0,0,1,30,17a99.274,99.274,0,0,1,10,.474v2.546h0V22a1,1,0,0,0,2,0v-.8A2.981,2.981,0,0,1,41,27a1,1,0,0,0-1,1v2.18a3.01,3.01,0,0,1-1.028,2.267l-5.5,4.811A2.992,2.992,0,0,1,31.5,38h-3a2.993,2.993,0,0,1-1.972-.743l-5.5-4.81A3.01,3.01,0,0,1,20,30.18Zm5.211,8.582A4.991,4.991,0,0,0,28.5,40h3a4.99,4.99,0,0,0,3.288-1.237l.969-.847a16.468,16.468,0,0,0,1.081,5.9C36.108,44.53,34.108,46,30,46s-6.114-1.475-6.839-2.184a16.465,16.465,0,0,0,1.082-5.9ZM14,47.767V58H5.035c.23-3.216,1.591-5.212,3.672-7.293A18.1,18.1,0,0,1,14,47.767Z"/></svg>