<svg xmlns="http://www.w3.org/2000/svg" height="512" viewBox="0 0 60 60" width="512"><g id="Icons"><path d="m56 10h-52a4 4 0 0 0 -4 4v32a4 4 0 0 0 4 4h52a4 4 0 0 0 4-4v-32a4 4 0 0 0 -4-4zm-54 36v-32a2 2 0 0 1 2-2h38v36h-38a2 2 0 0 1 -2-2zm56 0a2 2 0 0 1 -2 2h-12v-36h12a2 2 0 0 1 2 2z"/><path d="m38 14h-32a2 2 0 0 0 -2 2v28a2 2 0 0 0 2 2h32a2 2 0 0 0 2-2v-28a2 2 0 0 0 -2-2zm-32 30v-28h32v28z"/><path d="m51 25a5 5 0 1 0 5 5 5.006 5.006 0 0 0 -5-5zm0 8a3 3 0 1 1 3-3 3 3 0 0 1 -3 3z"/><path d="m54 38h-6a1 1 0 0 0 0 2h6a1 1 0 0 0 0-2z"/><path d="m54 42h-6a1 1 0 0 0 0 2h6a1 1 0 0 0 0-2z"/><path d="m31.638 20.588a18.049 18.049 0 0 1 -8.915-2.388 1.379 1.379 0 0 0 -1.446 0 18.05 18.05 0 0 1 -8.915 2.383 1.39 1.39 0 0 0 -1.362 1.383v5.018a15.906 15.906 0 0 0 10.337 14.888 1.791 1.791 0 0 0 1.325 0 15.906 15.906 0 0 0 10.338-14.888v-5.018a1.39 1.39 0 0 0 -1.362-1.378zm-.638 6.396a13.933 13.933 0 0 1 -9 13 13.932 13.932 0 0 1 -9-13v-4.416a20.353 20.353 0 0 0 9-2.468 20.353 20.353 0 0 0 9 2.466z"/><path d="m18.707 30.293a1 1 0 0 0 -1.414 1.414l2 2a1 1 0 0 0 .707.293h.071a1 1 0 0 0 .729-.4l6-8a1 1 0 1 0 -1.6-1.2l-5.308 7.078z"/></g></svg>