<svg xmlns="http://www.w3.org/2000/svg" height="512" viewBox="0 0 60 60" width="512"><g id="Page-1" fill="none" fill-rule="evenodd"><g id="026---Mopping" fill="rgb(0,0,0)" fill-rule="nonzero" transform="translate(0 -1)"><path id="Shape" d="m19.121 35.221c-1.1714996-1.1711458-3.0705004-1.1711458-4.242 0-.4911854.4950068-.7924572 1.1471133-.851 1.842-.3413388-.0388529-.6844713-.0598814-1.028-.063-4.30832373-.0056682-8.13464277 2.7521428-9.49173868 6.8411495-1.3570959 4.0890068.06097837 8.5873736 3.51773868 11.1588505h-4.026c-1.65685425 0-3 1.3431458-3 3s1.34314575 3 3 3h54c1.6568542 0 3-1.3431458 3-3s-1.3431458-3-3-3h-3.8l2.652-14.139c1.4261525-.422057 2.3257797-1.8275935 2.1118241-3.2994176-.2139557-1.4718241-1.4765309-2.5630462-2.9638241-2.5615824-.0020035-1.8235275-1.2349944-3.4157298-3-3.874 0-.042 0-.084 0-.126-.0023054-2.1746021-1.4098954-4.0983645-3.4818339-4.7586451-2.0719386-.6602805-4.3330701.0943421-5.5931661 1.8666451-.3031594-.0714219-.6135412-.1076611-.925-.108-1.8624638.001394-3.4784245 1.2858756-3.9 3.1-1.8141244.4215755-3.098606 2.0375362-3.1 3.9-1.488058-.0034652-2.7525081 1.0871563-2.9675583 2.5595971s.6846659 2.8791391 2.1115583 3.3014029l2.656 14.139h-6.8c-.0033074-3.3123376-2.6876624-5.9966926-6-6h-1.21c.2164168-.9942189.2660936-2.0174931.147-3.028 1.1563198-.1039955 2.1477209-.8683792 2.5423966-1.9602224.3946757-1.0918433.1211679-2.3134619-.7013966-3.1327776l-.707-.707 34.05-34.05c.768259-.75566991 1.0721992-1.86533449.7962405-2.90701856-.2759588-1.04168408-1.0894153-1.85533239-2.1310343-2.13153668s-2.1513552.02747436-2.9072062.79555524l-34.05 34.05zm19.879-2.221c.5522847 0 1-.4477153 1-1-.0003719-.6972509.3624091-1.3443672.9574314-1.7078331s1.3363871-.3908107 1.9565686-.0721669c.2430895.1245994.5265691.1443328.7845774.0546154.2580084-.0897175.4680851-.2810754.5814226-.5296154.5927534-1.2740381 1.9904104-1.9659358 3.3629423-1.6647946 1.3725318.3011412 2.3521378 1.5146236 2.3570577 2.9197946-.0015856.2588116-.0351738.5164336-.1.767-.0808024.3227806.0042374.6646095.2268624.9119037.222625.2472943.5536708.3676578.8831376.3210963 1.1006623.0055034 1.9900138.899324 1.99 2h-16c0-1.1045695.8954305-2 2-2zm-4 4h20c.5522847 0 1 .4477153 1 1s-.4477153 1-1 1h-20c-.5522847 0-1-.4477153-1-1s.4477153-1 1-1zm1.2 4h17.6l-2.63 14h-12.34zm1.8 16h19c.5522847 0 1 .4477153 1 1s-.4477153 1-1 1h-54c-.55228475 0-1-.4477153-1-1s.44771525-1 1-1zm-19-8c-.5522847 0-1 .4477153-1 1s.4477153 1 1 1h5c2.209139 0 4 1.790861 4 4h-15c-4.418278 0-8-3.581722-8-8s3.581722-8 8-8c.5551818.0055388 1.1083611.0675244 1.651.185.0700667.0976948.1462175.1908793.228.279l5.656 5.657c.0887068.0818215.1822055.1582901.28.229.1177446.5422567.1797337 1.0951321.185 1.65.0008904.6748291-.0848093 1.3469837-.255 2zm4.364-5.293c-.1875683.187777-.4420908.2932867-.7075.2932867s-.5199317-.1055097-.7075-.2932867l-5.656-5.657c-.3789722-.3923789-.3735524-1.0160848.0121814-1.4018186s1.0094397-.3911536 1.4018186-.0121814l1.413 1.413.849.849 3.394 3.394c.3903819.3904999.3903819 1.0235001 0 1.414zm31.929-40.414c.2510745-.25995658.6228779-.3642126.9725073-.27269716.3496295.09151544.6226744.3645604.7141899.71418984.0915154.34962943-.0127406.72143285-.2726972.97250732l-34.05 34.05-.393-.392-1.021-1.022z"/><path id="Shape" d="m42 43h-2c-.5522847 0-1 .4477153-1 1s.4477153 1 1 1h2c.5522847 0 1-.4477153 1-1s-.4477153-1-1-1z"/><path id="Shape" d="m49 43h-3c-.5522847 0-1 .4477153-1 1s.4477153 1 1 1h3c.5522847 0 1-.4477153 1-1s-.4477153-1-1-1z"/><path id="Shape" d="m56 29c1.6568542 0 3-1.3431458 3-3s-1.3431458-3-3-3-3 1.3431458-3 3 1.3431458 3 3 3zm0-4c.5522847 0 1 .4477153 1 1s-.4477153 1-1 1-1-.4477153-1-1 .4477153-1 1-1z"/><path id="Shape" d="m51 17c-1.6568542 0-3 1.3431458-3 3s1.3431458 3 3 3 3-1.3431458 3-3-1.3431458-3-3-3zm0 4c-.5522847 0-1-.4477153-1-1s.4477153-1 1-1 1 .4477153 1 1-.4477153 1-1 1z"/><path id="Shape" d="m26.991 1c-.5411549-.0002276-.9843066.43007261-1 .971v.021.008c0 .368-.091 9-8.01 9-.5522847 0-1 .4477153-1 1s.4477153 1 1 1c7.888 0 8.009 8.634 8.01 9-.0074558.5522847.4342153 1.0060442.9865 1.0135s1.0060442-.4342153 1.0135-.9865v-.021-.006c0-.368.091-9 8.009-9 .5522847 0 1-.4477153 1-1s-.4477153-1-1-1c-7.87 0-8.007-8.6-8.009-9 0-.55228475-.4477153-1-1-1zm4.451 11c-2.0477501 1.0802193-3.6305499 2.8710483-4.451 5.036-.8204501-2.1649517-2.4032499-3.9557807-4.451-5.036 2.0477501-1.0802193 3.6305499-2.87104828 4.451-5.036.8204501 2.16495172 2.4032499 3.9557807 4.451 5.036z"/><path id="Shape" d="m6 31.005v.006c.00303757.5522847.45321526.9975376 1.0055.9945s.99753756-.4532153.9945-1.0055c0-.245.084-6 5-6 .5522847 0 1-.4477153 1-1s-.4477153-1-1-1c-4.916 0-5-5.757-5-6v-.006c-.00165687-.5522847-.45071526-.9986568-1.003-.997-.55228474.0016569-.99865684.4507153-.997 1.003 0 .245-.084 6-5 6-.55228475 0-1 .4477153-1 1s.44771525 1 1 1c4.916 0 5 5.757 5 6zm-1.344-7.005c1.01278032-.6751749 1.8229954-1.6129367 2.344-2.713.5210046 1.1000633 1.33121968 2.0378251 2.344 2.713-1.0125793.6754027-1.8227409 1.6131025-2.344 2.713-.5212591-1.0998975-1.3314207-2.0375973-2.344-2.713z"/><path id="Shape" d="m10.793 9.207 1.5 1.5c.3923789.3789722 1.0160848.3735524 1.4018186-.0121814s.3911536-1.00943971.0121814-1.4018186l-1.5-1.5c-.2510745-.25995658-.6228779-.3642126-.9725073-.27269716-.3496295.09151544-.6226744.3645604-.7141899.71418984-.0915154.34962943.0127406.72143285.2726972.97250732z"/><path id="Shape" d="m7.793 6.207c.39237889.37897221 1.01608478.37355237 1.40181858-.01218142.38573379-.3857338.39115363-1.00943969.01218142-1.40181858l-1.5-1.5c-.39237889-.37897221-1.01608478-.37355237-1.40181858.01218142-.38573379.3857338-.39115363 1.00943969-.01218142 1.40181858z"/><path id="Shape" d="m6.293 10.707c.39049985.3903819 1.02350015.3903819 1.414 0l1.5-1.5c.37897221-.39237889.37355237-1.01608478-.01218142-1.40181858-.3857338-.38573379-1.00943969-.39115363-1.40181858-.01218142l-1.5 1.5c-.39038194.39049985-.39038194 1.0235001 0 1.414z"/><path id="Shape" d="m11.5 6.5c.2651948-.00005664.5195073-.10545063.707-.293l1.5-1.5c.2599566-.25107447.3642126-.62287789.2726972-.97250732-.0915155-.34962944-.3645604-.6226744-.7141899-.71418984-.3496294-.09151544-.7214328.01274058-.9725073.27269716l-1.5 1.5c-.2859079.28599425-.3714219.71603662-.216678 1.08965456s.5192821.61725909.923678.61734544z"/></g></g></svg>