<svg xmlns="http://www.w3.org/2000/svg" id="Capa_1" enable-background="new 0 0 512 512" height="512" viewBox="0 0 512 512" width="512"><g><g id="Page-1_37_"><g id="_x30_38---Internet-Cursor" transform="translate(-1)"><path id="Shape_96_" d="m222.895 0c-88.701-.008-168.882 52.816-203.883 134.32s-18.094 176.02 42.99 240.336 154.605 86.069 237.803 55.313l21.905 68.821c2.41 7.768 9.548 13.102 17.681 13.21h.41c7.978.051 15.117-4.945 17.801-12.459l37.956-103.774c.202-.526.618-.942 1.143-1.143l103.851-38.067c7.618-2.796 12.617-10.125 12.44-18.239-.177-8.113-5.492-15.217-13.225-17.678l-68.787-21.888c25.148-68.073 15.416-144.142-26.061-203.691s-109.454-95.05-182.024-95.061zm136.396 213.333c-.606-35.796-7.065-71.251-19.123-104.96 13.646-4.872 26.791-11.048 39.253-18.441 29.304 34.64 46.216 78.065 48.06 123.401zm-86.511 35.081c-6.611-2.168-13.88-.443-18.812 4.464s-6.694 12.167-4.561 18.789l14.754 46.336c-10.743-1.203-21.7-1.869-32.734-2.116v-85.487h110.754c-.301 13.078-1.364 26.128-3.183 39.083zm-206.37 105.344c-29.233-34.655-46.094-78.057-47.923-123.358h68.062c.585 35.782 6.983 71.231 18.944 104.96-13.588 4.864-26.676 11.025-39.083 18.398zm0-263.791c12.463 7.392 25.608 13.567 39.253 18.441-12.069 33.696-18.543 69.139-19.166 104.926h-68.19c1.858-45.326 18.779-88.739 48.085-123.366h.018zm55.288 239.991c-11.399-31.983-17.506-65.61-18.082-99.558h110.746v85.495c-31.383.531-62.553 5.261-92.681 14.063zm-18.142-116.625c.573-33.951 6.624-67.587 17.92-99.61 30.191 8.838 61.432 13.585 92.885 14.114v85.495h-110.805zm214.323-115.49c-28.13 8.064-57.193 12.413-86.451 12.937v-93.133c35.2 4.284 66.227 34.782 86.451 80.196zm-103.518-80.196v93.133c-29.259-.52-58.323-4.872-86.451-12.945 20.233-45.406 51.251-75.904 86.451-80.188zm0 315.307v93.09c-33.818-4.156-65.434-33.545-86.298-80.213 28.083-8.031 57.094-12.36 86.298-12.877zm17.067-119.621v-85.495c31.442-.53 62.672-5.277 92.851-14.114 11.308 32.02 17.371 65.656 17.954 99.61h-110.805zm136.226-136.2c-10.826 6.134-22.171 11.306-33.903 15.454-10.19-24.269-25.268-46.18-44.297-64.367 29.441 10.159 56.183 26.886 78.2 48.913zm-211.319-48.913c-19.04 18.184-34.131 40.095-44.331 64.367-11.719-4.153-23.052-9.324-33.869-15.454 22.018-22.027 48.759-38.754 78.2-48.913zm-78.319 338.449c10.795-6.123 22.105-11.291 33.801-15.445 10.047 24.138 24.99 45.931 43.887 64-29.222-10.13-55.778-26.728-77.688-48.555zm153.412 59.793v-93.355c12.87.273 25.716 1.259 38.477 2.953l19.738 61.995c0 .119.068.239.111.358l4.864 15.258c-20.251 7.592-41.581 11.91-63.19 12.791zm264.533-87.748c.092.837-.441 1.616-1.254 1.835l-103.851 38.067c-5.243 1.923-9.375 6.055-11.298 11.298l-37.965 103.774c-.219.793-.973 1.317-1.792 1.246-.839.059-1.596-.502-1.783-1.323l-72.371-227.209c-.192-.503-.049-1.073.358-1.425.244-.273.59-.434.956-.444.19.002.378.039.555.111l227.106 72.269c.823.197 1.387.955 1.339 1.801zm-140.493-64c2.188-14.677 3.45-29.478 3.78-44.314h68.267c-.877 21.596-5.199 42.914-12.8 63.147z"/></g></g></g></svg>