<svg xmlns="http://www.w3.org/2000/svg" id="Capa_1" enable-background="new 0 0 512.001 512.001" height="512" viewBox="0 0 512.001 512.001" width="512"><g><g><g id="Page-1_43_"><g id="_x30_44---Unlock"><path id="Shape_130_" d="m89.6 392.533c18.851 0 34.133-15.282 34.133-34.133s-15.282-34.133-34.133-34.133-34.133 15.282-34.133 34.133 15.282 34.133 34.133 34.133zm0-51.2c9.426 0 17.067 7.641 17.067 17.067s-7.641 17.067-17.067 17.067-17.067-7.641-17.067-17.067 7.641-17.067 17.067-17.067z"/><path id="Shape_129_" d="m21.333 358.4c.061 56.529 45.871 102.339 102.4 102.4 2.867 0 5.726-.137 8.533-.375v8.909c.028 23.552 19.114 42.638 42.667 42.667h273.067c23.552-.028 42.638-19.114 42.667-42.667v-221.867c-.028-23.552-19.114-42.638-42.667-42.667v-68.267c0-75.405-61.128-136.533-136.533-136.533s-136.534 61.128-136.534 136.533v17.067c0 9.426 7.641 17.067 17.067 17.067h25.6c9.426 0 17.067-7.641 17.067-17.067v-17.067c.05-21.257 8.875-41.549 24.388-56.081 15.501-14.632 36.433-22.084 57.694-20.54 41.023 3.71 72.226 38.457 71.518 79.642v65.246h-213.334c-23.552.028-42.638 19.114-42.667 42.667v8.909c-2.825-.239-5.683-.375-8.533-.375-56.528.06-102.339 45.87-102.4 102.399zm296.551-315.52c-25.97-1.844-51.528 7.259-70.485 25.105-18.958 17.765-29.74 42.568-29.798 68.548v17.067h-25.601v-17.067c0-65.98 53.487-119.467 119.467-119.467s119.467 53.487 119.467 119.467v68.267h-25.6v-65.246c.696-50.165-37.467-92.353-87.45-96.674zm-168.551 204.587c0-14.138 11.462-25.6 25.6-25.6h273.067c14.138 0 25.6 11.462 25.6 25.6v221.867c0 14.138-11.462 25.6-25.6 25.6h-273.067c-14.139 0-25.6-11.462-25.6-25.6v-11.87c32.936-8.556 59.494-32.874 70.912-64.93h48.555v25.6c0 23.564 19.103 42.667 42.667 42.667s42.667-19.103 42.667-42.667v-40.594c24.852-19.897 32.651-54.331 18.799-82.995s-45.678-43.948-76.71-36.839-53.03 34.724-53.022 66.56h-22.955c-11.418-32.057-37.976-56.374-70.912-64.93zm-25.6 25.6c38.13.068 71.607 25.378 82.065 62.046 1.036 3.68 4.394 6.222 8.218 6.221h114.517c4.713 0 8.533-3.82 8.533-8.533s-3.82-8.533-8.533-8.533h-68.267c-.017-14.623 6.228-28.554 17.157-38.269 10.929-9.716 25.496-14.286 40.016-12.555 23.738 3.014 42.334 21.875 45.013 45.653 1.82 18.476-6.474 36.496-21.692 47.13-2.311 1.591-3.693 4.217-3.695 7.023v44.885c0 14.138-11.462 25.6-25.6 25.6s-25.6-11.462-25.6-25.6v-25.6h17.067c4.713 0 8.533-3.82 8.533-8.533s-3.82-8.533-8.533-8.533h-88.934c-3.824-.002-7.181 2.54-8.218 6.221-12.033 42.419-54.401 68.685-97.745 60.598s-73.39-47.864-69.318-91.768 40.924-77.477 85.016-77.453z"/><g clip-rule="evenodd" fill-rule="evenodd"><path id="Path_69_" d="m109.167 121.967c-3.331 3.332-3.331 8.734 0 12.066l25.6 25.6c3.348 3.234 8.671 3.188 11.962-.104 3.292-3.292 3.338-8.614.104-11.962l-25.6-25.6c-3.332-3.331-8.734-3.331-12.066 0z"/><path id="Path_68_" d="m81.067 179.2c0 4.713 3.821 8.533 8.533 8.533h34.133c4.713 0 8.533-3.82 8.533-8.533s-3.821-8.533-8.533-8.533h-34.133c-4.713 0-8.533 3.82-8.533 8.533z"/></g></g></g></g></g></svg>