<svg xmlns="http://www.w3.org/2000/svg" id="Capa_1" enable-background="new 0 0 593.335 593.335" height="512" viewBox="0 0 593.335 593.335" width="512"><g><g id="Page-1_13_"><g id="_x30_14---Paper-Towel"><path id="Shape_30_" d="m99.327 39.468v305.878c.067 17.942 12.228 33.582 29.601 38.067v31.002c0 16.348 13.253 29.601 29.601 29.601h5.674l-44.155 122.016c-2.45 7.368-.351 15.489 5.363 20.747s13.98 6.677 21.12 3.625l16.537-7.529c39.988-18.196 86.419-15.235 123.772 7.894 2.957 1.688 6.304 2.573 9.709 2.565 3.561-.009 7.057-.947 10.143-2.723 37.31-22.99 83.623-25.872 123.496-7.686l16.961 7.716c7.176 2.87 15.366 1.287 20.955-4.05s7.549-13.445 5.015-20.746l-43.987-121.828h5.674c16.348 0 29.601-13.253 29.601-29.601v-31.002c17.373-4.486 29.534-20.125 29.601-38.067v-305.879c0-21.798-17.67-39.468-39.468-39.468h-315.745c-21.798 0-39.468 17.67-39.468 39.468zm355.618 532.978-16.547-7.529c-45.664-20.911-98.764-17.578-141.454 8.88-42.895-26.45-96.151-29.781-142.006-8.88l-16.202 7.578 46.434-128.479h46.237l-8.16 54.269c-.39 2.588.264 5.225 1.818 7.331s3.882 3.508 6.47 3.897c.49.07.985.106 1.48.109 4.879-.004 9.022-3.573 9.749-8.397l8.604-57.229h7.094c9.084-.12 16.953-6.329 19.182-15.136 2.386-8.537 10.172-14.435 19.036-14.422 8.864.014 16.632 5.936 18.991 14.481 2.235 8.797 10.106 14.991 19.182 15.097h7.094l8.604 57.229c.727 4.824 4.87 8.393 9.749 8.397.495-.002.99-.038 1.48-.109 2.588-.389 4.916-1.792 6.47-3.897 1.554-2.106 2.208-4.743 1.818-7.331l-8.16-54.288h46.257zm-10.272-158.03c0 5.449-4.418 9.867-9.867 9.867l-100.111-.641c-4.788-17.187-20.511-29.024-38.352-28.874s-33.362 12.25-37.861 29.515h-99.953c-5.449 0-9.867-4.418-9.867-9.867v-29.601h63.465c12.216-.185 23.035-7.932 27.144-19.438 6.779-17.603 30.381-29.897 57.397-29.897s50.618 12.294 57.397 29.907c4.115 11.5 14.932 19.242 27.144 19.428h63.465v29.601zm29.601-374.948v305.878c0 10.899-8.835 19.734-19.734 19.734h-73.332c-4.034-.231-7.508-2.928-8.732-6.779-9.788-25.457-40.287-42.557-75.809-42.557s-66.02 17.1-75.808 42.547c-1.219 3.857-4.694 6.559-8.732 6.789h-73.332c-10.899 0-19.734-8.835-19.734-19.734v-305.878c0-10.899 8.835-19.734 19.734-19.734h315.745c10.899 0 19.734 8.835 19.734 19.734z"/><path id="Shape_29_" d="m168.396 226.942c0 32.393 64.53 49.335 128.272 49.335s128.272-16.942 128.272-49.335-64.53-49.335-128.272-49.335-128.272 16.941-128.272 49.335zm128.271-29.601c70.224 0 108.537 19.556 108.537 29.601s-38.314 29.601-108.537 29.601-108.537-19.556-108.537-29.601 38.314-29.601 108.537-29.601z"/><path id="Path_75_" clip-rule="evenodd" d="m138.795 78.936c0 5.449 4.418 9.867 9.867 9.867s9.867-4.418 9.867-9.867v-19.734h19.734c5.449 0 9.867-4.418 9.867-9.867s-4.418-9.867-9.867-9.867h-29.601c-5.449 0-9.867 4.418-9.867 9.867z" fill-rule="evenodd"/></g></g></g></svg>