<svg xmlns="http://www.w3.org/2000/svg" id="Capa_1" enable-background="new 0 0 512 512" height="512" viewBox="0 0 512 512" width="512"><g><g id="Page-1_9_"><g id="_x30_10---PC-Tower-Repair"><path id="Shape_23_" d="m42.671 477.092v9.302c0 14.139 11.463 25.602 25.602 25.602h68.273c14.139 0 25.602-11.463 25.602-25.602v-8.534h170.681v8.534c0 14.139 11.463 25.602 25.602 25.602h68.273c14.139 0 25.602-11.463 25.602-25.602v-8.534c14.139 0 25.602-11.463 25.602-25.602v-329.177l26.268-26.268c6.509-6.356 9.215-15.654 7.135-24.51-4.887-16.979-14.287-32.316-27.198-44.377-12.073-12.932-27.428-22.346-44.428-27.241-8.858-2.066-18.152.638-24.518 7.135l-26.259 26.268h-337.703c-28.268.028-51.177 22.936-51.205 51.203v341.363c.046 24.96 18.064 46.258 42.671 50.438zm102.409 9.302c0 4.713-3.821 8.534-8.534 8.534h-68.273c-4.713 0-8.534-3.82-8.534-8.534v-8.534h85.34v8.534zm290.158 0c0 4.713-3.82 8.534-8.534 8.534h-68.273c-4.713 0-8.534-3.82-8.534-8.534v-8.534h85.341zm-7.996-466.507c2.089-2.274 5.22-3.282 8.244-2.654 14.017 4.13 26.652 11.985 36.56 22.726 10.737 9.909 18.59 22.539 22.726 36.551.607 3.021-.402 6.142-2.662 8.236l-63.4 63.153c-9.681-3.635-20.594-1.247-27.873 6.098-7.279 7.346-9.568 18.28-5.844 27.927l-4.523 4.42c-2.758 3.303-7.652 3.792-11.009 1.101l-54.961-54.909c-1.221-1.317-1.839-3.082-1.707-4.873.152-2.327 1.165-4.514 2.842-6.136l4.634-4.429c9.684 3.634 20.598 1.245 27.878-6.102s9.57-18.283 5.849-27.932zm-80.211 65.404c.168 1.503.569 2.971 1.186 4.352 1.067 3.295.197 6.912-2.253 9.36s-6.067 3.316-9.362 2.246c-6.505-2.735-14.023-1.143-18.861 3.994l-4.207 4.207c-4.682 4.62-7.471 10.823-7.817 17.393-.397 6.605 2.046 13.064 6.717 17.751l9.388 9.345-80.988 80.946-18.519 7.954c-.154.068-.282.162-.427.23v-157.778zm-1.06 92.835-80.946 80.946c-1.538 1.528-2.767 3.339-3.618 5.333l-8.014 18.639c-1.076 2.499-2.964 4.562-5.359 5.855l-32.344 18.041-10.634-10.634 18.024-32.43c1.303-2.4 3.382-4.286 5.898-5.35l18.579-7.988c1.996-.853 3.809-2.081 5.342-3.618l80.954-80.946zm-107.017 205.859h-17.069v-34.136h17.069zm0-51.205h-17.069v-9.934c.35-.154.708-.222 1.05-.401l16.018-8.935v19.27zm17.069-28.785.299-.171c5.579-3.076 10-7.892 12.588-13.714h89.522v102.409h-102.409zm-51.205-42.372-15.361 27.565c-3.331 6.014-2.245 13.509 2.654 18.332l12.187 12.187c.154.154.333.265.486.41v106.539h-111.669c-3.598-21.479-20.431-38.308-41.911-41.903l.068-257.508c21.462-3.637 38.258-20.481 41.834-41.954h111.712zm17.069 139.43h19.441c3.024 5.263 8.625 8.516 14.695 8.534h102.409c9.427 0 17.068-7.642 17.068-17.069v-102.409c0-9.427-7.642-17.068-17.068-17.068h-82.157l.853-1.903 80.946-80.946 9.388 9.388c4.399 4.368 10.365 6.793 16.564 6.734 6.988-.043 13.671-2.861 18.579-7.835l4.198-4.198c5.142-4.84 6.739-12.366 4.002-18.878-1.068-3.293-.199-6.908 2.25-9.355s6.064-3.314 9.356-2.243c1.381.615 2.849 1.012 4.352 1.178l-.102 219.761c-21.45 3.639-38.247 20.456-41.86 41.911h-162.914zm-204.818-315.762c0-18.853 15.283-34.136 34.136-34.136h320.634l-17.069 17.069h-261.663c-8.324-.002-15.424 6.023-16.778 14.235-2.416 14.296-13.599 25.507-27.889 27.957-8.242 1.32-14.303 8.432-14.303 16.778v257.559c-.006 8.32 6.017 15.419 14.226 16.769 14.301 2.418 25.513 13.609 27.957 27.906 1.335 8.236 8.444 14.289 16.786 14.294h291.695c8.335-.001 15.439-6.043 16.779-14.269 2.445-14.274 13.618-25.46 27.889-27.923 8.242-1.32 14.303-8.432 14.303-16.778v-227.535l17.068-17.068v312.108c0 4.713-3.82 8.534-8.534 8.534h-401.101c-18.853 0-34.136-15.283-34.136-34.136z"/><path id="Shape_22_" d="m153.614 307.178h-59.739c-14.139 0-25.602 11.463-25.602 25.602v17.068c0 14.139 11.463 25.602 25.602 25.602h59.738c14.139 0 25.602-11.463 25.602-25.602v-17.068c.001-14.139-11.462-25.602-25.601-25.602zm8.533 42.671c0 4.713-3.821 8.534-8.534 8.534h-59.738c-4.713 0-8.534-3.821-8.534-8.534v-17.069c0-4.713 3.821-8.534 8.534-8.534h59.738c4.713 0 8.534 3.821 8.534 8.534z"/><path id="Shape_21_" d="m153.614 221.838h-59.739c-14.139 0-25.602 11.463-25.602 25.602v17.068c0 14.139 11.463 25.602 25.602 25.602h59.738c14.139 0 25.602-11.463 25.602-25.602v-17.068c.001-14.14-11.462-25.603-25.601-25.602zm8.533 42.669c0 4.713-3.821 8.534-8.534 8.534h-59.738c-4.713 0-8.534-3.821-8.534-8.534v-17.068c0-4.713 3.821-8.534 8.534-8.534h59.738c4.713 0 8.534 3.821 8.534 8.534z"/><path id="Shape_20_" d="m68.273 162.098v17.068c0 14.14 11.463 25.602 25.602 25.602h59.738c14.139 0 25.602-11.463 25.602-25.602v-17.068c0-14.139-11.463-25.602-25.602-25.602h-59.738c-14.14 0-25.602 11.463-25.602 25.602zm17.068 0c0-4.713 3.821-8.534 8.534-8.534h59.739c4.713 0 8.534 3.821 8.534 8.534v17.068c0 4.713-3.821 8.534-8.534 8.534h-59.739c-4.713 0-8.534-3.821-8.534-8.534z"/><g clip-rule="evenodd" fill-rule="evenodd"><path id="Path_12_" d="m162.147 392.519h-42.671c-4.713 0-8.534 3.82-8.534 8.534s3.821 8.534 8.534 8.534h42.671c4.713 0 8.534-3.82 8.534-8.534s-3.82-8.534-8.534-8.534z"/><path id="Path_11_" d="m119.478 119.429h42.671c4.713 0 8.534-3.821 8.534-8.534s-3.821-8.534-8.534-8.534h-42.671c-4.713 0-8.534 3.821-8.534 8.534-.001 4.712 3.82 8.534 8.534 8.534z"/><circle id="Oval_5_" cx="281.625" cy="315.712" r="8.534"/><path id="Path_10_" d="m332.829 358.383h-51.204c-4.713 0-8.534 3.82-8.534 8.534 0 4.713 3.82 8.534 8.534 8.534h51.204c4.713 0 8.534-3.82 8.534-8.534s-3.82-8.534-8.534-8.534z"/><path id="Path_9_" d="m401.102 307.178c4.713 0 8.534-3.82 8.534-8.534v-17.068c0-4.713-3.821-8.534-8.534-8.534-4.712 0-8.534 3.82-8.534 8.534v17.068c0 4.714 3.821 8.534 8.534 8.534z"/><path id="Path_8_" d="m401.102 358.383c4.713 0 8.534-3.821 8.534-8.534v-17.069c0-4.713-3.821-8.534-8.534-8.534-4.712 0-8.534 3.821-8.534 8.534v17.068c0 4.714 3.821 8.535 8.534 8.535z"/><path id="Path_5_" d="m391.56 104.783c2.264.006 4.437-.894 6.034-2.5l38.173-38.156c2.157-2.157 2.999-5.301 2.21-8.248-.79-2.946-3.091-5.248-6.038-6.038-2.946-.789-6.091.053-8.248 2.21l-38.164 38.164c-2.44 2.44-3.169 6.111-1.849 9.299 1.321 3.19 4.432 5.269 7.882 5.269z"/><path id="Path_6_" d="m409.704 126.46c3.332 3.331 8.735 3.331 12.067 0l38.164-38.164c3.332-3.334 3.33-8.739-.004-12.071s-8.739-3.33-12.071.004l-38.156 38.164c-3.331 3.332-3.331 8.735 0 12.067z"/><circle id="Oval_4_" cx="247.489" cy="110.894" r="8.534"/><circle id="Oval_2_" cx="281.625" cy="145.031" r="8.534"/><circle id="Oval_3_" cx="281.625" cy="110.894" r="8.534"/><path id="Path_7_" d="m247.489 204.769c4.713 0 8.534-3.821 8.534-8.534v-51.204c0-4.713-3.82-8.534-8.534-8.534s-8.534 3.82-8.534 8.534v51.204c-.001 4.714 3.82 8.534 8.534 8.534z"/></g></g></g></g></svg>