<svg xmlns="http://www.w3.org/2000/svg" height="512" viewBox="0 0 28 60" width="512"><g id="Page-1" fill="none" fill-rule="evenodd"><g id="030---Pipe-Flow" fill="rgb(0,0,0)" fill-rule="nonzero"><path id="Shape" d="m4 60h20c1.1045695 0 2-.8954305 2-2v-46.184c1.1943509-.4222546 1.9947486-1.5492146 2-2.816v-2c-.0052514-1.26678543-.8056491-2.39374545-2-2.816v-2.184c0-1.1045695-.8954305-2-2-2h-20c-1.1045695 0-2 .8954305-2 2v2.184c-1.19435086.42225455-1.99474861 1.54921457-2 2.816v2c.00525139 1.2667854.80564914 2.3937454 2 2.816v46.184c0 .530433.21071368 1.0391408.58578644 1.4142136.37507275.3750727.88378058.5857864 1.41421356.5857864zm20-27.027c-1.9442157-.0756141-3.8522346-.5493855-5.606-1.392-2.3062278-1.1005854-4.839352-1.6422231-7.394-1.581-2.40186557-.0192164-4.78284741.4471159-7 1.371v-19.371h20zm-20 25.027v-24.421c2.17439213-1.0759958 4.57424681-1.6173344 7-1.579 2.2834695-.05861 4.5480287.427828 6.606 1.419 2.0018704.9518278 4.1785528 1.480509 6.394 1.553v23.028zm0-56h20v2h-20zm-2 5c0-.55228475.44771525-1 1-1h22c.5522847 0 1 .44771525 1 1v2c0 .55228475-.4477153 1-1 1h-22c-.55228475 0-1-.44771525-1-1z"/><path id="Shape" d="m11.8 19.6 1.2-1.6v9c0 .5522847.4477153 1 1 1s1-.4477153 1-1v-9l1.2 1.6c.2143594.2858125.5649147.4355547.9196152.3928203.3547006-.0427344.6596589-.2714531.8-.6.1403412-.3285469.0947442-.7070078-.1196152-.9928203l-3-4c-.1967934-.2391708-.4902738-.3777478-.8-.3777478s-.6032066.138577-.8.3777478l-3 4c-.33137085.4418278-.2418278 1.0686292.2 1.4s1.0686292.2418278 1.4-.2z"/></g></g></svg>