<svg xmlns="http://www.w3.org/2000/svg" height="512" viewBox="0 0 60 60" width="512"><g id="Page-1" fill="none" fill-rule="evenodd"><g id="038---Broken-Pipe" fill="rgb(0,0,0)" fill-rule="nonzero" transform="translate(-1)"><path id="Shape" d="m56 34h-1v-3c-.0033061-2.7600532-2.2399468-4.9966939-5-5h-10c-.688908.0006201-1.3701016.1450331-2 .424v-18.424c1.1045695 0 2-.8954305 2-2v-4c0-1.1045695-.8954305-2-2-2h-24c-1.1045695 0-2 .8954305-2 2v4c0 1.1045695.8954305 2 2 2v20.237l-2.093-2.511c.0618148-.2370474.0930682-.4810254.093-.726-.0000583-.918784-.4211353-1.7868801-1.1426572-2.3557123-.7215219-.5688323-1.6639202-.7756706-2.5573428-.5612877-.70340694-.8491005-1.81680908-1.2425161-2.89751566-1.0238241-1.08070659.2186921-1.95354933 1.0140446-2.27148434 2.0698241-1.05216016.3185114-1.84584436 1.1869881-2.06857147 2.2635025-.2227271 1.0765143.16117927 2.1886304 1.00057147 2.8984975-1.0708463 1.153192-1.36470081 2.827706-.75048593 4.2766035.61421487 1.4488974 2.02199029 2.4020585 3.59536986 2.4343134 1.57337958.032255 3.01903619-.8624096 3.69211607-2.2849169l5.4-.6v19.883c-1.1045695 0-2 .8954305-2 2v4c0 1.1045695.8954305 2 2 2h42c2.7600532-.0033061 4.9966939-2.2399468 5-5v-16c-.0033061-2.7600532-2.2399468-4.9966939-5-5zm-48.229-3.2c-.40710119.0451688-.74549671.3340334-.854.729-.26058129.9489674-1.17450783 1.5659224-2.15207653 1.4527803-.97756869-.1131421-1.72641121-.9225432-1.76334348-1.9059443s.6490913-1.8466895 1.61542001-2.032836c.47390651-.0905539.81699141-.5045206.818-.987.00037268-.479164-.34246855-.8898154-.814-.975-.20514524-.0396959-.41253614-.0667469-.621-.081-.55228475 0-1-.4477153-1-1s.44771525-1 1-1 1-.4477153 1-1c.00965642-.480592.35988496-.8863179.83391412-.9660566.47402916-.0797386.93772486.1890733 1.10408588.6400566.10235798.2918591.33400536.5199304.6274214.6177358.29341605.0978053.61557678.0543367.8725786-.1177358.37706906-.2639832.88626584-.2335854 1.22925038.0733834.34298452.3069688.42945562.8096895.20874962 1.2136166-.18343861.3579357-.13458308.7909375.124 1.099l3.043 3.651zm42.229-2.8c1.6568542 0 3 1.3431458 3 3v3h-2v-2c0-1.1045695-.8954305-2-2-2h-8c-1.1045695 0-2 .8954305-2 2v2h-2v-3c0-1.6568542 1.3431458-3 3-3zm-1 6h-8v-2h8zm-35-32h24v4h-24zm15 8c-.5522847 0-1 .4477153-1 1s-.4477153 1-1 1-1-.4477153-1-1v-3h6v9c0 .5522847-.4477153 1-1 1s-1-.4477153-1-1v-6c0-.5522847-.4477153-1-1-1zm-13 18.281 2.225.556.7 2.086-1.427 2.854-1.498-.498zm0 7.107 1.684.561c.1019889.0335408.2086377.0507531.316.051.379026.0001766.7255754-.2139484.895-.553l1.829-3.66 4.035-1.614 2.534 2.534c.1874927.1875494.4418052.2929434.707.293.1546883.0013035.3076128-.0329078.447-.1l2-1c.3197527-.1596977.5300187-.4778505.5515928-.8346134.021574-.3567628-.1488214-.6979349-.4470001-.895-.2981786-.1970651-.67884-.2200843-.9985927-.0603866l-1.356.678-2.49-2.49c-.2826284-.2828749-.7066001-.3701863-1.078-.222l-4.016 1.607-.665-1.994c-.1080664-.324351-.3743442-.5710163-.706-.654l-3.242-.816v-18.219h8v3c-.000186.9740055.4724968 1.887479 1.2677153 2.4498973.7952185.5624182 1.8139835.7037712 2.7322847.3791027v3.171c0 1.6568542 1.3431458 3 3 3s3-1.3431458 3-3v-9h2v20.031c-.6458554.8553676-.9967562 1.897192-1 2.969v3h-1c-2.7600532.0033061-4.9966939 2.2399468-5 5v13h-13zm-2 18.612h15v1c.0036768 1.0854693.3641933 2.1396111 1.026 3h-16.026zm45 1c0 1.6568542-1.3431458 3-3 3h-22c-1.6568542 0-3-1.3431458-3-3v-16c0-1.6568542 1.3431458-3 3-3h22c1.6568542 0 3 1.3431458 3 3z"/><path id="Shape" d="m51 44h-3v-3c0-1.1045695-.8954305-2-2-2h-2c-1.1045695 0-2 .8954305-2 2v3h-3c-1.1045695 0-2 .8954305-2 2v2c0 1.1045695.8954305 2 2 2h3v3c0 1.1045695.8954305 2 2 2h2c1.1045695 0 2-.8954305 2-2v-3h3c1.1045695 0 2-.8954305 2-2v-2c0-1.1045695-.8954305-2-2-2zm0 4h-3c-1.1045695 0-2 .8954305-2 2v3h-2v-3c0-1.1045695-.8954305-2-2-2h-3v-2h3c1.1045695 0 2-.8954305 2-2v-3h2v3c0 1.1045695.8954305 2 2 2h3z"/></g></g></svg>