<svg xmlns="http://www.w3.org/2000/svg" viewBox="0 0 60 60" width="512" height="512"><g id="Icons"><path d="M14.521,40.908A19.491,19.491,0,0,0,53,36.5c0-.419-.037-.829-.063-1.242A15.993,15.993,0,1,0,29.2,15.948a16,16,0,1,0-14.677,24.96ZM33.5,54A17.5,17.5,0,1,1,51,36.5,17.521,17.521,0,0,1,33.5,54ZM52.666,32.987a19.312,19.312,0,0,0-2.01-5.746,23.151,23.151,0,0,1,5.606,1.537A13.879,13.879,0,0,1,52.666,32.987Zm4.43-6.026a25.377,25.377,0,0,0-7.826-1.884A19.188,19.188,0,0,0,30.853,17.2c.161-.443.347-.873.549-1.293,4.251-1.93,14.509-5.38,25.136-.1A13.9,13.9,0,0,1,58,22,14.042,14.042,0,0,1,57.1,26.961ZM44,8a13.957,13.957,0,0,1,10.464,4.731A31.34,31.34,0,0,0,33.284,13,13.973,13.973,0,0,1,44,8ZM16,11a13.93,13.93,0,0,1,12.007,6.8A19.339,19.339,0,0,0,14.159,38.868,13.994,13.994,0,0,1,16,11Z"/><path d="M38,23a9,9,0,1,0,9,9A9.01,9.01,0,0,0,38,23Zm0,16a7,7,0,1,1,7-7A7.008,7.008,0,0,1,38,39Z"/><path d="M38,27a2.987,2.987,0,0,0-2.22,5,3,3,0,1,0,4.44,0A2.987,2.987,0,0,0,38,27Zm0,2a1,1,0,1,1-1,1A1,1,0,0,1,38,29Zm0,6a1,1,0,1,1,1-1A1,1,0,0,1,38,35Z"/></g></svg>