<svg xmlns="http://www.w3.org/2000/svg" height="512" viewBox="0 0 60 60" width="512"><g id="Page-1" fill="none" fill-rule="evenodd"><g id="089---Locked-Safe" fill="rgb(0,0,0)" fill-rule="nonzero"><path id="Shape" d="m56 38.1v-6.1c-.0036873-2.700319-1.560237-5.1577219-4-6.315v-20.685c-.0033061-2.76005315-2.2399468-4.99669388-5-5h-42c-2.76005315.00330612-4.99669388 2.23994685-5 5v44c.00330612 2.7600532 2.23994685 4.9966939 5 5h1.28l1.32 3.949c.40786258 1.2231399 1.55165191 2.0488744 2.841 2.051h5.118c1.2893481-.0021256 2.4331374-.8278601 2.841-2.051l1.32-3.949h12.559l1.315 3.953c.4129535 1.2209978 1.5570638 2.043905 2.846 2.047h5.12c.2183009-.0025165.4356417-.0293487.648-.08.2614132.0479629.5262757.0747166.792.08h12c2.7600532-.0033061 4.9966939-2.2399468 5-5v-12c-.0029983-2.3751008-1.6735832-4.4215673-4-4.9zm-2-6.1v6h-2v-6c0-1.6568542-1.3431458-3-3-3s-3 1.3431458-3 3v6h-2v-6c0-2.7614237 2.2385763-5 5-5s5 2.2385763 5 5zm-4 6h-2v-6c0-.5522847.4477153-1 1-1s1 .4477153 1 1zm-12 5v5h-31c-.55228475 0-1-.4477153-1-1v-40c0-.55228475.44771525-1 1-1h38c.5522847 0 1 .44771525 1 1v18.685c-2.439763 1.1572781-3.9963127 3.614681-4 6.315v6.1c-2.3264168.4784327-3.9970017 2.5248992-4 4.9zm-36 6v-44c0-1.65685425 1.34314575-3 3-3h42c1.6568542 0 3 1.34314575 3 3v20.08c-.6624-.1066667-1.3376-.1066667-2 0v-18.08c0-1.65685425-1.3431458-3-3-3h-38c-1.65685425 0-3 1.34314575-3 3v40c0 1.6568542 1.34314575 3 3 3h31v2h-33c-1.65685425 0-3-1.3431458-3-3zm14.508 8.316c-.1360719.4085428-.5183926.6841037-.949.684h-5.118c-.4306074.0001037-.81292807-.2754572-.949-.684l-1.104-3.316h9.224zm18.981 0-1.102-3.316h3.613v1c.0036768 1.0854693.3641933 2.1396111 1.026 3h-2.586c-.4308764-.0024003-.8127828-.277887-.951-.686zm22.511-2.316c0 1.6568542-1.3431458 3-3 3h-12c-1.6568542 0-3-1.3431458-3-3v-12c0-1.6568542 1.3431458-3 3-3h12c1.6568542 0 3 1.3431458 3 3z"/><path id="Shape" d="m52.063 49.575c.685864-.817532 1.0171978-1.874926.9205166-2.9376681s-.6133858-2.0429872-1.4355166-2.7233319c-1.1210455-.9272889-2.6571701-1.1727829-4.0113836-.6410749-1.3542135.5317081-2.3129517 1.7567661-2.5036164 3.1990749-.1511439 1.1221531.1839365 2.2554598.921 3.115l-1.393 2.976c-.2467476.5316375-.2049101 1.1524697.110936 1.6461944.315846.4937247.861957.7919626 1.448064.7908056h5.76c.5874643.0016315 1.134837-.2977169 1.4504302-.7932145.3155933-.4954977.3554339-1.1181042.1055698-1.6497855zm-5.499 3.425 1.2-2.564c.3261462-.7147611.2091952-1.5536898-.3-2.152-.5651973-.6777629-.6193654-1.6458626-.1333052-2.3824466.4860602-.7365841 1.3974473-1.0675289 2.2428799-.8144394.8454326.2530894 1.425056 1.0303846 1.4264253 1.912886.0036792.4708148-.1620725.9272531-.467 1.286-.5136621.5951177-.6310438 1.4359615-.3 2.149l1.203 2.565z"/><path id="Shape" d="m26 14c-7.1797017 0-13 5.8202983-13 13s5.8202983 13 13 13 13-5.8202983 13-13c-.008266-7.1762751-5.8237249-12.991734-13-13zm0 24c-6.0751322 0-11-4.9248678-11-11s4.9248678-11 11-11 11 4.9248678 11 11c-.0071635 6.0721626-4.9278374 10.9928365-11 11z"/><path id="Shape" d="m26 23c-2.209139 0-4 1.790861-4 4s1.790861 4 4 4 4-1.790861 4-4-1.790861-4-4-4zm0 6c-1.1045695 0-2-.8954305-2-2s.8954305-2 2-2 2 .8954305 2 2-.8954305 2-2 2z"/><path id="Shape" d="m26 21c.5522847 0 1-.4477153 1-1v-1c0-.5522847-.4477153-1-1-1s-1 .4477153-1 1v1c0 .5522847.4477153 1 1 1z"/><path id="Shape" d="m20.343 22.757c.3923789.3789722 1.0160848.3735524 1.4018186-.0121814s.3911536-1.0094397.0121814-1.4018186l-.707-.707c-.3923789-.3789722-1.0160848-.3735524-1.4018186.0121814s-.3911536 1.0094397-.0121814 1.4018186z"/><path id="Shape" d="m20 27c0-.5522847-.4477153-1-1-1h-1c-.5522847 0-1 .4477153-1 1s.4477153 1 1 1h1c.5522847 0 1-.4477153 1-1z"/><path id="Shape" d="m20.343 31.243-.707.707c-.2599566.2510745-.3642126.6228779-.2726972.9725073.0915155.3496295.3645604.6226744.7141899.7141899.3496294.0915154.7214328-.0127406.9725073-.2726972l.707-.707c.2599566-.2510745.3642126-.6228779.2726972-.9725073-.0915155-.3496295-.3645604-.6226744-.7141899-.7141899-.3496294-.0915154-.7214328.0127406-.9725073.2726972z"/><path id="Shape" d="m26 33c-.5522847 0-1 .4477153-1 1v1c0 .5522847.4477153 1 1 1s1-.4477153 1-1v-1c0-.5522847-.4477153-1-1-1z"/><path id="Shape" d="m31.657 31.243c-.2510745-.2599566-.6228779-.3642126-.9725073-.2726972-.3496295.0915155-.6226744.3645604-.7141899.7141899-.0915154.3496294.0127406.7214328.2726972.9725073l.707.707c.3923789.3789722 1.0160848.3735524 1.4018186-.0121814s.3911536-1.0094397.0121814-1.4018186z"/><path id="Shape" d="m32 27c0 .5522847.4477153 1 1 1h1c.5522847 0 1-.4477153 1-1s-.4477153-1-1-1h-1c-.5522847 0-1 .4477153-1 1z"/><path id="Shape" d="m30.95 23.05c.2651948-.0000566.5195073-.1054506.707-.293l.707-.707c.3789722-.3923789.3735524-1.0160848-.0121814-1.4018186s-1.0094397-.3911536-1.4018186-.0121814l-.707.707c-.2859079.2859943-.3714219.7160366-.216678 1.0896546.1547439.3736179.5192821.6172591.923678.6173454z"/></g></g></svg>