<svg xmlns="http://www.w3.org/2000/svg" id="Icons" viewBox="0 0 60 60" width="512" height="512"><path d="M28.869,59.78a3.033,3.033,0,0,0,2.263,0C47.088,53.289,57,38.832,57,22.051V8.819a2.012,2.012,0,0,0-1.972-2A48.061,48.061,0,0,1,31.046.3a1.953,1.953,0,0,0-2.092,0A48.061,48.061,0,0,1,4.972,6.823,2.012,2.012,0,0,0,3,8.819V22.051C3,38.832,12.912,53.289,28.869,59.78ZM5,8.823C18.474,8.578,27.554,3.536,29.986,2A50.166,50.166,0,0,0,55,8.823V22.051C55,38,45.565,51.749,30.379,57.927a1.011,1.011,0,0,1-.757,0C14.435,51.749,5,38,5,22.051Z"/><path d="M29.176,55.564a2.032,2.032,0,0,0,1.647,0C44.5,49.491,53,36.649,53,22.051V12.616a1.989,1.989,0,0,0-1.838-1.988,53.332,53.332,0,0,1-20.224-5.78,2,2,0,0,0-1.877,0A53.342,53.342,0,0,1,8.838,10.628,1.989,1.989,0,0,0,7,12.616v9.435C7,36.649,15.5,49.491,29.176,55.564ZM21,35a6.006,6.006,0,0,1-6-6V17.11a1.081,1.081,0,0,1,.916-1.105A1,1,0,0,1,17,17v9a2,2,0,0,0,2,2h2a2,2,0,0,0,2-2V17.11a1.081,1.081,0,0,1,.916-1.105A1,1,0,0,1,25,17v9a2,2,0,0,0,2,2h2a2,2,0,0,0,2-2V17.11a1.081,1.081,0,0,1,.916-1.105A1,1,0,0,1,33,17V29a6.006,6.006,0,0,1-6,6,1,1,0,0,0-1,1.027l.442,15.88a36.207,36.207,0,0,1-4.8-3.3L22,36.028A1,1,0,0,0,21,35ZM41.925,45.256c.078-2.335.189-2.542-.206-2.951A1,1,0,0,0,41,42a2,2,0,0,1-2-2V23a6.947,6.947,0,0,1,6-6.97V41.416A34.367,34.367,0,0,1,41.925,45.256ZM9,12.62A55.359,55.359,0,0,0,30,6.614a55.314,55.314,0,0,0,21,6v9.435a34.047,34.047,0,0,1-4,16.071V16.03a2.026,2.026,0,0,0-2.307-2.009A9.015,9.015,0,0,0,37,23V40a4.008,4.008,0,0,0,2.971,3.866l-.115,3.439a35.73,35.73,0,0,1-9.866,6.431c-.518-.229-1.016-.486-1.517-.736l-.447-16.065A8.012,8.012,0,0,0,35,29V17a2.925,2.925,0,0,0-.875-2.108A3.006,3.006,0,0,0,29,17.11V26H27V17a2.925,2.925,0,0,0-.875-2.108A3.006,3.006,0,0,0,21,17.11V26H19V17a2.925,2.925,0,0,0-.875-2.108A3.006,3.006,0,0,0,13,17.11V29a8.013,8.013,0,0,0,6.973,7.935L19.692,46.9A33.964,33.964,0,0,1,9,22.051Z"/></svg>