<svg xmlns="http://www.w3.org/2000/svg" height="512" viewBox="0 0 44 60" width="512"><g id="Page-1" fill="none" fill-rule="evenodd"><g id="019---Shower" fill="rgb(0,0,0)" fill-rule="nonzero"><path id="Shape" d="m42 3c0-1.65685425-1.3431458-3-3-3h-34c-1.65685425 0-3 1.34314575-3 3v50.184c-1.19435086.4222546-1.99474861 1.5492146-2 2.816v2c0 1.1045695.8954305 2 2 2h40c1.1045695 0 2-.8954305 2-2v-2c-.0052514-1.2667854-.8056491-2.3937454-2-2.816zm-9.953 50-.007-3c0-.5522847-.4477153-1-1-1s-1 .4477153-1 1l.007 3h-26.047v-47h12v3.078c-3.4416773.49676193-5.9969183 3.4446583-6 6.922 0 1.6568542 1.3431458 3 3 3h8c1.6529917-.0092882 2.9907118-1.3470083 3-3-.0030817-3.4773417-2.5583227-6.42523807-6-6.922v-3.078h12l.039 39c0 .5522847.4477153 1 1 1s1-.4477153 1-1l-.039-39h8v47zm-15.047-42c2.7593693.0049535 4.9950465 2.2406307 5 5 .0003954.2693445-.110308.526929-.306.712-.1823963.1865985-.4330776.2906276-.694.288h-8c-.5522847 0-1-.4477153-1-1 .0049535-2.7593693 2.2406307-4.9950465 5-5zm-12-9h34c.5522847 0 1 .44771525 1 1v1h-36v-1c0-.55228475.44771525-1 1-1zm37 56h-40v-2c0-.5522847.44771525-1 1-1h38c.5522847 0 1 .4477153 1 1z"/><path id="Shape" d="m36 25h-1c-.5522847 0-1 .4477153-1 1s.4477153 1 1 1h1v5h-1c-.5522847 0-1 .4477153-1 1s.4477153 1 1 1h1c1.1045695 0 2-.8954305 2-2v-5c0-1.1045695-.8954305-2-2-2z"/><path id="Shape" d="m17 24c-.5522847 0-1 .4477153-1 1v2c0 .5522847.4477153 1 1 1s1-.4477153 1-1v-2c0-.5522847-.4477153-1-1-1z"/><path id="Shape" d="m17 30c-.5522847 0-1 .4477153-1 1v2c0 .5522847.4477153 1 1 1s1-.4477153 1-1v-2c0-.5522847-.4477153-1-1-1z"/><path id="Shape" d="m17 36c-.5522847 0-1 .4477153-1 1v2c0 .5522847.4477153 1 1 1s1-.4477153 1-1v-2c0-.5522847-.4477153-1-1-1z"/><path id="Shape" d="m17 42c-.5522847 0-1 .4477153-1 1v2c0 .5522847.4477153 1 1 1s1-.4477153 1-1v-2c0-.5522847-.4477153-1-1-1z"/><path id="Shape" d="m13 27c-.5522847 0-1 .4477153-1 1v2c0 .5522847.4477153 1 1 1s1-.4477153 1-1v-2c0-.5522847-.4477153-1-1-1z"/><path id="Shape" d="m13 33c-.5522847 0-1 .4477153-1 1v2c0 .5522847.4477153 1 1 1s1-.4477153 1-1v-2c0-.5522847-.4477153-1-1-1z"/><path id="Shape" d="m13 39c-.5522847 0-1 .4477153-1 1v2c0 .5522847.4477153 1 1 1s1-.4477153 1-1v-2c0-.5522847-.4477153-1-1-1z"/><path id="Shape" d="m21 27c-.5522847 0-1 .4477153-1 1v2c0 .5522847.4477153 1 1 1s1-.4477153 1-1v-2c0-.5522847-.4477153-1-1-1z"/><path id="Shape" d="m13 21c-.5522847 0-1 .4477153-1 1v2c0 .5522847.4477153 1 1 1s1-.4477153 1-1v-2c0-.5522847-.4477153-1-1-1z"/><path id="Shape" d="m21 21c-.5522847 0-1 .4477153-1 1v2c0 .5522847.4477153 1 1 1s1-.4477153 1-1v-2c0-.5522847-.4477153-1-1-1z"/><path id="Shape" d="m21 33c-.5522847 0-1 .4477153-1 1v2c0 .5522847.4477153 1 1 1s1-.4477153 1-1v-2c0-.5522847-.4477153-1-1-1z"/><path id="Shape" d="m21 39c-.5522847 0-1 .4477153-1 1v2c0 .5522847.4477153 1 1 1s1-.4477153 1-1v-2c0-.5522847-.4477153-1-1-1z"/></g></g></svg>