<svg xmlns="http://www.w3.org/2000/svg" height="512" viewBox="0 0 60 60" width="512"><g id="Page-1" fill="none" fill-rule="evenodd"><g id="056---Shower" fill="rgb(0,0,0)" fill-rule="nonzero"><path id="Shape" d="m59 0h-3c-2.209139 0-4 1.790861-4 4v3h-29c-3.8639376.00495836-6.9950416 3.1360624-7 7v2.278c-.6167513.3544126-.997855 1.0106732-1 1.722v3c-1.6568542 0-3 1.3431458-3 3v2.59c-5.92701964 1.7739536-9.99059555 7.2232089-10 13.41v.184c-1.37654748.4848523-2.2026937 1.8918441-1.95538732 3.330178.24730637 1.4383339 1.49595006 2.4885874 2.95538732 2.485822h32c1.4594373.0027654 2.7080809-1.0474881 2.9553873-2.485822s-.5788398-2.8453257-1.9553873-3.330178v-.184c-.0094044-6.1867911-4.0729804-11.6360464-10-13.41v-2.59c0-1.6568542-1.3431458-3-3-3v-3c-.002145-.7113268-.3832487-1.3675874-1-1.722v-2.278c0-.5522847.4477153-1 1-1h29v3c0 2.209139 1.790861 4 4 4h3c.5522847 0 1-.4477153 1-1v-18c0-.55228475-.4477153-1-1-1zm-24 44h-32c-.55228475 0-1-.4477153-1-1s.44771525-1 1-1h32c.5522847 0 1 .4477153 1 1s-.4477153 1-1 1zm-1-4h-30c.00716485-6.624447 5.37555305-11.9928352 12-12h6c6.624447.0071648 11.9928352 5.375553 12 12zm-10-16v2.16c-.6619356-.1014969-1.3303471-.1549698-2-.16h-6c-.6696529.0050302-1.3380644.0585031-2 .16v-2.16c0-.5522847.4477153-1 1-1h8c.5522847 0 1 .4477153 1 1zm-7-3v-3h4v3zm6-10c-1.6568542 0-3 1.3431458-3 3v2h-2v-2c.0033061-2.7600532 2.2399468-4.99669388 5-5h29v2zm35 7h-2c-1.1045695 0-2-.8954305-2-2v-12c0-1.1045695.8954305-2 2-2h2z"/><path id="Shape" d="m19 48c-.5522847 0-1 .4477153-1 1v3c0 .5522847.4477153 1 1 1s1-.4477153 1-1v-3c0-.5522847-.4477153-1-1-1z"/><path id="Shape" d="m19 55c-.5522847 0-1 .4477153-1 1v3c0 .5522847.4477153 1 1 1s1-.4477153 1-1v-3c0-.5522847-.4477153-1-1-1z"/><path id="Shape" d="m24 51c-.5522847 0-1 .4477153-1 1v3c0 .5522847.4477153 1 1 1s1-.4477153 1-1v-3c0-.5522847-.4477153-1-1-1z"/><path id="Shape" d="m34 51c-.5522847 0-1 .4477153-1 1v3c0 .5522847.4477153 1 1 1s1-.4477153 1-1v-3c0-.5522847-.4477153-1-1-1z"/><path id="Shape" d="m14 51c-.5522847 0-1 .4477153-1 1v3c0 .5522847.4477153 1 1 1s1-.4477153 1-1v-3c0-.5522847-.4477153-1-1-1z"/><path id="Shape" d="m4 51c-.55228475 0-1 .4477153-1 1v3c0 .5522847.44771525 1 1 1s1-.4477153 1-1v-3c0-.5522847-.44771525-1-1-1z"/><path id="Shape" d="m9 48c-.55228475 0-1 .4477153-1 1v3c0 .5522847.44771525 1 1 1s1-.4477153 1-1v-3c0-.5522847-.44771525-1-1-1z"/><path id="Shape" d="m9 55c-.55228475 0-1 .4477153-1 1v3c0 .5522847.44771525 1 1 1s1-.4477153 1-1v-3c0-.5522847-.44771525-1-1-1z"/><path id="Shape" d="m29 48c-.5522847 0-1 .4477153-1 1v3c0 .5522847.4477153 1 1 1s1-.4477153 1-1v-3c0-.5522847-.4477153-1-1-1z"/><path id="Shape" d="m29 55c-.5522847 0-1 .4477153-1 1v3c0 .5522847.4477153 1 1 1s1-.4477153 1-1v-3c0-.5522847-.4477153-1-1-1z"/></g></g></svg>