<svg xmlns="http://www.w3.org/2000/svg" id="Icons" height="512" viewBox="0 0 60 60" width="512"><path d="m19 16h-6a1 1 0 0 0 0 2h2v7a1 1 0 0 0 2 0v-7h2a1 1 0 0 0 0-2z"/><path d="m29.351 16.063a1 1 0 0 0 -1.288.586l-2.063 5.503-2.063-5.5a1 1 0 1 0 -1.874.7l3 8a1 1 0 0 0 1.874 0l3-8a1 1 0 0 0 -.586-1.289z"/><path d="m55 10h-13v-4a6.006 6.006 0 0 0 -6-6h-30a6.006 6.006 0 0 0 -6 6v30a6.006 6.006 0 0 0 6 6h30v13a5.006 5.006 0 0 0 5 5h14a5.006 5.006 0 0 0 5-5v-40a5.006 5.006 0 0 0 -5-5zm3 5v17h-20v-17a3 3 0 0 1 3-3h14a3 3 0 0 1 3 3zm-52 25a4 4 0 0 1 -4-4v-30a4 4 0 0 1 4-4h30a4 4 0 0 1 4 4v4.1a5.009 5.009 0 0 0 -4 4.9v25zm49 18h-14a3 3 0 0 1 -3-3v-21h20v21a3 3 0 0 1 -3 3z"/><path d="m47 16h2a1 1 0 0 0 0-2h-2a1 1 0 0 0 0 2z"/><path d="m40 27a3 3 0 1 0 3-3 3 3 0 0 0 -3 3zm3-1a1 1 0 1 1 -1 1 1 1 0 0 1 1-1z"/><path d="m43 36a3 3 0 1 0 3 3 3 3 0 0 0 -3-3zm0 4a1 1 0 1 1 1-1 1 1 0 0 1 -1 1z"/><path d="m43 44a3 3 0 1 0 3 3 3 3 0 0 0 -3-3zm0 4a1 1 0 1 1 1-1 1 1 0 0 1 -1 1z"/><path d="m53 36a3 3 0 0 0 -3 3v8a3 3 0 0 0 6 0v-8a3 3 0 0 0 -3-3zm0 2a1 1 0 0 1 1 1v3h-2v-3a1 1 0 0 1 1-1zm0 10a1 1 0 0 1 -1-1v-3h2v3a1 1 0 0 1 -1 1z"/><path d="m53 30a3 3 0 1 0 -3-3 3 3 0 0 0 3 3zm0-4a1 1 0 1 1 -1 1 1 1 0 0 1 1-1z"/></svg>