<svg xmlns="http://www.w3.org/2000/svg" viewBox="0 0 60 60" width="512" height="512"><g id="Icons"><path d="M13,60a13,13,0,0,0,11.291-6.582,15.119,15.119,0,0,1,.731,3.011c.051.307.1.572.139.778a1,1,0,0,0,1.831.315c.106-.171.231-.4.375-.655.678-1.22,2.087-3.757,3.633-3.757s2.955,2.537,3.633,3.757c.144.259.269.484.375.655A1,1,0,0,0,35.86,58a.988.988,0,0,0,.171-.015,1,1,0,0,0,.808-.781c.042-.2.085-.458.134-.756.226-1.381.7-4.253,2.152-4.789s3.646,1.357,4.694,2.269c.215.187.4.35.555.472a1,1,0,0,0,1.616-.92c-.028-.2-.074-.45-.127-.741-.254-1.382-.781-4.258.415-5.278s3.87.017,5.16.51c.271.1.506.194.694.257a1,1,0,0,0,1.2-1.416c-.094-.176-.221-.395-.367-.647-.7-1.211-2.173-3.731-1.387-5.112.774-1.365,3.521-1.34,5-1.33.3,0,.566,0,.771,0a1,1,0,0,0,.632-1.742c-.145-.132-.336-.29-.556-.474-1.071-.89-3.3-2.743-3.028-4.32.277-1.561,2.879-2.495,4.278-3,.278-.1.519-.187.7-.262a1,1,0,0,0,0-1.852c-.186-.075-.427-.162-.7-.262-1.4-.5-4-1.435-4.277-2.992s1.864-3.352,3.011-4.309c.229-.191.427-.356.575-.491a1,1,0,0,0-.635-1.74c-.2-.008-.469-.005-.771,0-1.481.009-4.223.035-5-1.332s.683-3.9,1.388-5.11c.146-.252.273-.471.367-.647a1,1,0,0,0-1.2-1.416c-.188.063-.423.153-.694.257-1.29.494-3.972,1.522-5.16.51s-.669-3.9-.415-5.278c.053-.291.1-.543.127-.741a1,1,0,0,0-1.616-.92c-.152.122-.34.285-.555.472-1.048.911-3.226,2.807-4.692,2.27S37.2,2.933,36.973,1.552c-.049-.3-.092-.556-.134-.756A1,1,0,0,0,35.008.478c-.106.171-.231.4-.375.655C33.955,2.353,32.546,4.89,31,4.89s-2.955-2.537-3.633-3.757C27.223.874,27.1.649,26.992.478A1,1,0,0,0,25.161.8c-.042.2-.085.458-.134.756-.226,1.381-.7,4.253-2.152,4.789a2.759,2.759,0,0,1-2.149-.4A8,8,0,0,0,5,8V36.75A13,13,0,0,0,13,60Zm8-45.943A17.78,17.78,0,0,1,31,11a18,18,0,0,1,0,36,17.669,17.669,0,0,1-5.043-.741A13.035,13.035,0,0,0,21,36.75Zm2.566-5.839c1.817-.671,2.631-2.65,3.062-4.415,1,1.511,2.435,3.087,4.372,3.087S34.371,5.314,35.372,3.8c.431,1.765,1.245,3.745,3.064,4.415s3.71-.306,5.161-1.379c-.193,1.811-.1,3.959,1.384,5.222s3.591.993,5.324.481c-.794,1.637-1.432,3.691-.465,5.391.972,1.715,3.056,2.184,4.854,2.306-1.3,1.262-2.605,2.977-2.268,4.926s2.145,3.1,3.795,3.835c-1.65.736-3.452,1.9-3.8,3.84s.963,3.658,2.264,4.921c-1.8.123-3.878.592-4.848,2.3s-.33,3.755.464,5.393c-1.732-.511-3.836-.787-5.324.481S43.4,49.35,43.6,51.161c-1.453-1.073-3.332-2.054-5.163-1.379S35.8,52.432,35.372,54.2c-1-1.511-2.435-3.087-4.372-3.087s-3.372,1.577-4.373,3.089A8.4,8.4,0,0,0,25.3,51.166a12.937,12.937,0,0,0,.629-2.831A19.764,19.764,0,0,0,31,49,20,20,0,0,0,31,9a19.776,19.776,0,0,0-10,2.694V8.228A3.98,3.98,0,0,0,23.566,8.218ZM6.584,38.062A1,1,0,0,0,7,37.25V8A6,6,0,1,1,19,8V37.25a1,1,0,0,0,.416.812,11,11,0,1,1-12.832,0Z"/><path d="M13,56a9,9,0,0,0,3-17.478V14a3,3,0,0,0-6,0V38.522A9,9,0,0,0,13,56ZM11.25,40.23a1,1,0,0,0,.75-.968V14a1,1,0,0,1,2,0V39.262a1,1,0,0,0,.75.968,7,7,0,1,1-3.5,0Z"/><path d="M9,48a1,1,0,0,0,1-1,2.991,2.991,0,0,1,2.248-2.9,1,1,0,1,0-.5-1.937A4.992,4.992,0,0,0,8,47,1,1,0,0,0,9,48Z"/><circle cx="25" cy="16" r="1"/><circle cx="25" cy="23" r="1"/><circle cx="32" cy="23" r="1"/><circle cx="29" cy="43" r="1"/></g></svg>