<svg xmlns="http://www.w3.org/2000/svg" height="512pt" viewBox="-17 0 512 512" width="512pt"><path d="m105.910156 372.90625c-1.414062-4.496094-6.207031-7-10.703125-5.585938-4.5 1.414063-7 6.207032-5.585937 10.707032l8.046875 25.597656c1.117187 3.554688 4.410156 5.972656 8.132812 5.976562.867188-.003906 1.730469-.136718 2.558594-.394531 2.160156-.679687 3.960937-2.1875 5.007813-4.195312 1.046874-2.003907 1.253906-4.347657.574218-6.503907zm0 0"/><path d="m145.027344 324.265625h17.066406c4.714844 0 8.535156-3.820313 8.535156-8.53125 0-4.714844-3.820312-8.535156-8.535156-8.535156h-17.066406c-4.710938 0-8.53125 3.820312-8.53125 8.535156 0 4.710937 3.820312 8.53125 8.53125 8.53125zm0 0"/><path d="m78.902344 343.894531c1.121094 3.554688 4.414062 5.972657 8.140625 5.972657.871093-.003907 1.734375-.132813 2.5625-.394532 2.15625-.675781 3.960937-2.1875 5.003906-4.191406 1.046875-2.007812 1.253906-4.347656.574219-6.507812l-4.554688-14.507813h20.265625c4.714844 0 8.535157-3.820313 8.535157-8.53125 0-4.714844-3.820313-8.535156-8.535157-8.535156h-31.886719c-2.71875 0-5.273437 1.292969-6.882812 3.484375-1.605469 2.191406-2.074219 5.015625-1.261719 7.609375zm0 0"/><path d="m153.5625 366.933594c0 13.808594 12.59375 20.097656 21.785156 24.746094 7.226563 3.566406 12.347656 6.367187 12.347656 9.386718-.289062 4.589844-3.945312 8.246094-8.535156 8.535156-4.710937 0-8.53125-3.820312-8.53125-8.535156 0-4.710937-3.820312-8.53125-8.535156-8.53125-4.710938 0-8.53125 3.820313-8.53125 8.53125 0 14.140625 11.460938 25.601563 25.597656 25.601563 13.992188-.355469 25.246094-11.613281 25.601563-25.601563 0-13.808594-12.59375-20.097656-21.785157-24.746094-7.226562-3.566406-12.347656-6.367187-12.347656-9.386718.289063-4.589844 3.945313-8.246094 8.53125-8.535156 4.714844 0 8.535156 3.820312 8.535156 8.535156 0 4.710937 3.820313 8.53125 8.53125 8.53125 4.714844 0 8.535157-3.820313 8.535157-8.53125 0-14.140625-11.460938-25.601563-25.601563-25.601563-13.988281.355469-25.242187 11.613281-25.597656 25.601563zm0 0"/><path d="m238.894531 426.667969h17.066407c4.714843 0 8.535156-3.820313 8.535156-8.535157 0-4.710937-3.820313-8.53125-8.535156-8.53125h-17.066407v-17.066406h17.066407c4.714843 0 8.535156-3.824218 8.535156-8.535156s-3.820313-8.535156-8.535156-8.535156h-17.066407v-17.066406h17.066407c4.714843 0 8.535156-3.820313 8.535156-8.53125 0-4.714844-3.820313-8.535157-8.535156-8.535157h-17.066407c-9.425781 0-17.066406 7.640625-17.066406 17.066407v51.203124c0 9.425782 7.640625 17.066407 17.066406 17.066407zm0 0"/><path d="m311.429688 426.667969c16.492187 0 29.867187-13.375 29.867187-29.867188v-25.601562c0-16.492188-13.375-29.867188-29.867187-29.867188-16.496094 0-29.867188 13.375-29.867188 29.867188v25.601562c0 7.921875 3.144531 15.515625 8.746094 21.117188 5.601562 5.601562 13.199218 8.75 21.121094 8.75zm-12.800782-55.46875c0-7.070313 5.730469-12.800781 12.800782-12.800781 7.066406 0 12.796874 5.730468 12.796874 12.800781v25.601562c0 7.070313-5.730468 12.800781-12.796874 12.800781-7.070313 0-12.800782-5.730468-12.800782-12.800781zm0 0"/><path d="m1.371094 442.878906c.128906.707032.347656 1.394532.648437 2.050782l24.394531 52.28125c4.214844 8.992187 13.230469 14.75 23.160157 14.789062h378.640625c9.949218-.027344 18.988281-5.789062 23.210937-14.796875l24.347657-52.300781c.296874-.652344.515624-1.339844.648437-2.046875 4.125-22.597657-1.113281-45.902344-14.507813-64.5625l-26.453124-36.773438 6.628906-21.109375c3.441406-10.863281 1.449218-22.71875-5.347656-31.863281-7.324219-9.796875-18.859376-15.542969-31.089844-15.480469h-21.273438c-11.101562-11.949218-24.535156-21.496094-39.472656-28.046875-17.410156-7.546875-31.660156-14.226562-42.371094-19.816406l-.09375-.066406c-4.761718-2.492188-8.394531-4.550781-11.226562-6.257813 7.460937-9.601562 13.128906-20.46875 16.730468-32.085937 3.042969-.910157 5.90625-2.332031 8.476563-4.195313 1.347656 3.109375 4.414063 5.128906 7.804687 5.136719h25.601563c9.425781 0 17.066406-7.640625 17.066406-17.066406v-34.132813c0-9.425781-7.640625-17.070312-17.066406-17.070312h-2.097656c5.324219-27.515625-1.164063-56.003906-17.878907-78.503906-20-26.410157-52.308593-40.960938-90.957031-40.960938-38.648437 0-70.953125 14.550781-90.957031 40.960938-16.730469 22.492187-23.230469 50.980468-17.917969 78.503906h-2.058593c-9.425782 0-17.066407 7.644531-17.066407 17.070312v34.132813c0 9.425781 7.640625 17.066406 17.066407 17.066406h22.546874c7.28125 5.066406 15.394532 8.820313 23.96875 11.09375 3.089844 7.207031 7.164063 13.957031 12.101563 20.050781-2.835937 1.707032-6.46875 3.765625-11.230469 6.257813l-.09375.066406c-10.710937 5.589844-24.960937 12.269531-42.367187 19.816406-14.941407 6.550781-28.375 16.097657-39.476563 28.046875h-21.273437c-12.210938-.046875-23.726563 5.695313-31.035157 15.480469-6.800781 9.144531-8.789062 21-5.351562 31.863281l6.632812 21.109375-26.457031 36.773438c-13.417969 18.660156-18.671875 41.972656-14.554687 64.585937zm83.925781 43.519532c0-4.710938 3.820313-8.53125 8.53125-8.53125h290.132813c4.714843 0 8.535156 3.820312 8.535156 8.53125 0 4.714843-3.820313 8.535156-8.535156 8.535156h-290.132813c-4.710937 0-8.53125-3.820313-8.53125-8.535156zm362.734375-98.132813c10.480469 14.582031 14.722656 32.734375 11.792969 50.449219l-23.894531 51.285156c-1.410157 3.003906-4.421876 4.929688-7.738282 4.941406h-20.089844c.257813-.714844.394532-1.492187.582032-2.234375.128906-.503906.296875-.980469.390625-1.496093.316406-1.582032.476562-3.195313.488281-4.8125-.03125-2.074219-.316406-4.136719-.855469-6.140626-.144531-.589843-.347656-1.136718-.527343-1.707031-.449219-1.410156-1.019532-2.777343-1.707032-4.089843-.273437-.511719-.511718-1.023438-.851562-1.507813-1.023438-1.6875-2.234375-3.253906-3.613282-4.667969-1.402343-1.367187-2.957031-2.566406-4.632812-3.578125-.195312-.117187-.339844-.296875-.535156-.417969l32.167968-102.398437zm-88.816406-115.199219h-72.53125c8.605468-7.242187 14.9375-16.820312 18.226562-27.578125 9.386719 4.574219 20.394532 9.625 33.277344 15.195313 7.488281 3.257812 14.546875 7.414062 21.027344 12.382812zm-170.75-35.59375.09375-.050781c2.132812-1.175781 4.121094-2.3125 5.972656-3.414063l.972656-.570312c1.917969-1.160156 3.703125-2.285156 5.238282-3.335938l3.464843 1.628907c.613281.289062 1.332031.640625 1.910157.90625 1.195312.554687 2.261718 1.015625 3.3125 1.484375l1.816406.800781c.941406.394531 1.800781.710937 2.65625 1.035156.519531.195313 1.089844.425781 1.585937.605469.851563.273438 1.613281.476562 2.398438.699219.46875.128906.972656.296875 1.441406.410156.800781.1875 1.636719.3125 2.457031.441406.460938.078125.914063.1875 1.390625.25.90625.117188 1.902344.1875 2.894531.253907.46875 0 .851563.09375 1.390626.121093 1.132812.058594 2.449218.085938 3.761718.109375h1.367188 6.347656 6.359375 1.304687c1.339844 0 2.671876-.050781 3.820313-.109375.472656 0 .855469-.078125 1.308594-.113281 1.023437-.074219 2.046875-.144531 2.96875-.261719.453125-.0625.851562-.15625 1.3125-.230469.855469-.136718 1.707031-.273437 2.5625-.460937.441406-.113281.910156-.265625 1.363281-.394531.8125-.222656 1.621094-.433594 2.476562-.726563.46875-.160156 1.015626-.382812 1.507813-.570312.855469-.332031 1.769531-.65625 2.730469-1.066407.539062-.222656 1.179687-.519531 1.707031-.769531 1.066406-.46875 2.160156-.945312 3.414063-1.515625l1.828124-.855468 3.53125-1.707032c1.535157 1.050782 3.320313 2.175782 5.238282 3.335938l.972656.574218c1.816406 1.078126 3.808594 2.21875 5.976562 3.414063l.09375.050781c-4.132812 20.367188-25.191406 35.625-50.519531 35.625s-46.386719-15.257812-50.429687-35.59375zm-11.597656-143.777344c.085937-.460937.195312-.921874.289062-1.382812.195312-.964844.402344-1.925781.65625-2.890625.144531-.539063.316406-1.078125.480469-1.613281.261719-.855469.542969-1.757813.851562-2.636719.203125-.554687.425781-1.109375.648438-1.707031.351562-.855469.71875-1.707032 1.117187-2.519532.261719-.566406.546875-1.113281.855469-1.636718.433594-.851563.910156-1.707032 1.40625-2.472656.316406-.523438.625-1.035157.957031-1.546876.5625-.851562 1.175782-1.707031 1.800782-2.5.339843-.445312.65625-.894531 1.015624-1.332031.808594-.988281 1.707032-1.945312 2.558594-2.890625.230469-.238281.433594-.488281.675782-.726562 1.199218-1.191406 2.464843-2.316406 3.789062-3.371094.324219-.253906.679688-.484375 1.015625-.742188 1.046875-.792968 2.121094-1.578124 3.273437-2.3125.53125-.347656 1.121094-.664062 1.707032-1 1.015625-.59375 2.050781-1.183593 3.140625-1.703124.65625-.335938 1.359375-.648438 2.046875-.964844 1.078125-.496094 2.179687-.964844 3.320312-1.410156.761719-.296876 1.535156-.578126 2.332032-.851563 1.167968-.402344 2.378906-.777344 3.625-1.128906.855468-.238281 1.707031-.46875 2.558593-.679688 1.308594-.316406 2.679688-.597656 4.0625-.855469.855469-.167968 1.707031-.339843 2.664063-.484374 1.5625-.238282 3.207031-.417969 4.863281-.582032.851563-.085937 1.597656-.195312 2.433594-.253906 2.558593-.1875 5.117187-.300781 7.898437-.300781 2.785156 0 5.371094.113281 7.902344.300781.855469.058594 1.613281.167969 2.433594.253906 1.65625.164063 3.300781.34375 4.863281.582032.914063.144531 1.785156.316406 2.664063.484374 1.382812.257813 2.753906.539063 4.0625.855469.851562.210938 1.703124.441407 2.558593.679688 1.246094.351562 2.457031.726562 3.625 1.128906.796875.273437 1.570313.554687 2.332031.851563 1.140626.445312 2.242188.914062 3.320313 1.410156.6875.316406 1.390625.628906 2.046875.964844 1.089844.554687 2.125 1.140624 3.140625 1.703124.554687.335938 1.140625.652344 1.707031 1 1.152344.734376 2.226563 1.519532 3.273438 2.3125.335937.257813.691406.488282 1.015625.742188 1.324219 1.054688 2.589843 2.179688 3.789062 3.371094.242188.238281.445313.488281.675781.726562.914063.945313 1.792969 1.902344 2.601563 2.890625.359375.4375.675781.855469 1.015625 1.332031.625.855469 1.238281 1.65625 1.800781 2.5.332031.511719.640625 1.023438.957031 1.546876.492188.851562.972657 1.636718 1.40625 2.472656.28125.539062.5625 1.085937.855469 1.636718.398438.855469.765625 1.707032 1.117188 2.519532.222656.5625.441406 1.117187.648437 1.707031.324219.851563.605469 1.757813.851563 2.636719.164062.535156.335937 1.074218.480469 1.613281.253906.964844.460937 1.925781.65625 2.890625.09375.460938.203124.921875.289062 1.382812l.042969.316407c-14.976563-10.953125-34.472657-13.597657-51.824219-7.023438-6.574219 2.617188-13.902344 2.617188-20.476562 0-17.351563-6.566406-36.847657-3.925781-51.824219 7.023438zm172.960937 76.972657h-17.066406v-19.796875c0-.417969 0-.855469 0-1.238282v-13.097656h17.066406zm-188.277344-119.398438c16.699219-22.058593 44.167969-34.203125 77.34375-34.203125 33.179688 0 60.648438 12.144532 77.347657 34.203125 14.410156 19.59375 19.535156 44.507813 14.027343 68.195313h-6.042969c-3.175781.027344-6.074218 1.828125-7.5 4.667968.640626-3.515624 1.136719-7.371093 1.496094-11.519531 0-.210937.117188-.410156.136719-.621093.246094-3.054688.390625-6.246094.390625-9.59375 0-33.976563-24.695312-68.265626-79.855469-68.265626-55.160156 0-79.855469 34.289063-79.855469 68.265626 0 3.347656.144532 6.539062.394532 9.59375 0 .210937.101562.410156.136718.621093.355469 4.148438.851563 8.003907 1.492188 11.519531-1.425781-2.839843-4.324219-4.640624-7.5-4.667968h-6.042969c-5.507812-23.6875-.382812-48.601563 14.03125-68.195313zm-33.589843 85.265625h17.066406v13.097656 1.238282 19.796875h-17.066406zm93.867187 51.199219c-11.664063.121094-23.3125-1.003906-34.738281-3.355469-.9375-2.628906-1.765625-5.160156-2.347656-7.347656-.984376-3.75-4.375-6.363281-8.25-6.363281-4.601563 0-9.773438-4.875-12.578126-11.863281-2.777343-5.074219-2.527343-11.265626.648438-16.101563.957031-.789063 2.175781-1.183594 3.410156-1.109375.726563.003906 1.449219.078125 2.160156.222656 2.875.566406 5.835938-.382812 7.851563-2.511718 2.011719-2.128907 2.789063-5.140626 2.066406-7.976563-1.378906-5.359375-2.417969-10.800781-3.109375-16.289063 17.800782-14.15625 31.214844-17.785156 45.417969-12.160156 10.613281 4.199219 22.425781 4.199219 33.039063 0 14.199218-5.625 27.613281-1.996094 45.414062 12.160156-.691406 5.488282-1.726562 10.929688-3.105469 16.289063-.726562 2.835937.054688 5.847656 2.066407 7.976563 2.011718 2.128906 4.976562 3.078124 7.847656 2.511718 1.898437-.566406 3.949218-.253906 5.589844.851563 3.175781 4.835937 3.425781 11.027343.648437 16.101562-2.804687 6.992188-7.976563 11.863281-12.578125 11.863281-3.882812-.003906-7.277344 2.617188-8.257812 6.375-2.050782 7.867188-10.53125 31.574219-22.1875 37.128907-9.464844 6.117187-20.726563 8.84375-31.941407 7.730469-1.988281 0-3.730469 0-5.273437 0-2.765625.023437-5.527344-.148438-8.269532-.511719-6.46875-1.453125-12.683593-3.871094-18.429687-7.175781-4.492187-2.632813-8.21875-6.394532-10.804687-10.914063 8.527343 1.058594 17.117187 1.570313 25.710937 1.535156 4.714844 0 8.535156-3.820312 8.535156-8.535156 0-4.710937-3.820312-8.53125-8.535156-8.53125zm-82.160156 72.949219c12.859375-5.570313 23.894531-10.621094 33.28125-15.195313 3.28125 10.753907 9.601562 20.332031 18.203125 27.578125h-72.578125c6.5-4.972656 13.585937-9.128906 21.09375-12.382812zm-84.804688 37.984375c4.050781-5.460938 10.476563-8.636719 17.273438-8.535157h333.515625c6.796875-.101562 13.222656 3.074219 17.273437 8.535157 3.5625 4.765625 4.617188 10.960937 2.832031 16.640625l-45.703124 145.492187h-282.316407l-45.722656-145.511719c-1.777344-5.675781-.714844-11.859374 2.847656-16.621093zm-25.101562 89.597656 19.011719-26.410156 32.167968 102.402343c-.195312.117188-.339844.296876-.535156.417969-1.675781 1.007813-3.230469 2.207031-4.632812 3.574219-1.378907 1.414062-2.589844 2.980469-3.609376 4.667969-.308593.484375-.546874.996093-.855468 1.507812-.679688 1.3125-1.253906 2.675781-1.707032 4.082031-.179687.570313-.382812 1.117188-.527343 1.707032-.539063 2.019531-.820313 4.097656-.847657 6.183594.011719 1.613281.175782 3.222656.488282 4.804687.09375.511719.265625.992187.390625 1.484375.191406.753906.324219 1.527344.582031 2.246094h-20.113281c-3.316407-.003906-6.332031-1.925782-7.730469-4.933594l-23.894531-51.292969c-2.925781-17.714843 1.324219-35.867187 11.8125-50.441406zm0 0"/></svg>