<svg xmlns="http://www.w3.org/2000/svg" id="Capa_1" enable-background="new 0 0 512 512" height="512" viewBox="0 0 512 512" width="512"><g><g id="Page-1_24_"><g id="_x30_25---Lamps-and-Snooker-Table"><path id="Shape_116_" d="m486.4 273.067h-460.8c-14.138 0-25.6 11.462-25.6 25.6v8.533c0 14.138 11.462 25.6 25.6 25.6v42.667c.021 7.046 4.371 13.355 10.948 15.881-5.12 18.714-.853 36.821 3.413 54.417 4.975 14.555 6.291 30.111 3.831 45.295-1.281 4.952-.18 10.218 2.978 14.242 3.279 4.214 8.314 6.685 13.653 6.699h15.667c5.337-.015 10.371-2.481 13.653-6.69 3.157-4.027 4.258-9.296 2.978-14.251-2.46-15.184-1.144-30.74 3.831-45.295 5.66-17.156 6.942-35.454 3.729-53.231h123.733c-3.208 17.779-1.92 36.077 3.746 53.231 4.975 14.555 6.291 30.111 3.831 45.295-1.281 4.952-.18 10.218 2.978 14.242 3.279 4.214 8.314 6.685 13.653 6.699h15.65c5.339-.014 10.375-2.485 13.653-6.699 3.158-4.024 4.259-9.29 2.978-14.242-2.46-15.184-1.144-30.74 3.831-45.295 5.643-17.16 6.907-35.458 3.678-53.231h123.738c-3.206 17.776-1.918 36.071 3.746 53.222 4.973 14.562 6.286 30.123 3.823 45.312-1.278 4.953-.173 10.219 2.987 14.242 3.282 4.209 8.316 6.676 13.653 6.69h15.65c5.337-.015 10.371-2.481 13.653-6.69 3.162-4.025 4.264-9.296 2.978-14.251-2.455-15.187-1.139-30.744 3.831-45.303 4.267-17.596 8.585-35.695 3.413-54.409 6.564-2.537 10.898-8.843 10.914-15.881v-42.666c14.138 0 25.6-11.462 25.6-25.6v-8.533c.002-14.139-11.459-25.6-25.598-25.6zm-218.709 168.644c-4.215 17.229-8.533 35.055-3.866 53.222l-15.744.393c3.293-17.903 1.996-36.349-3.772-53.615-4.19-17.169-8.175-33.468-2.654-49.126h28.689c5.522 15.658 1.537 31.957-2.653 49.126zm-187.734 0c-4.215 17.229-8.533 35.055-3.866 53.222l-15.744.393c3.293-17.903 1.996-36.349-3.772-53.615-4.19-17.169-8.175-33.468-2.654-49.126h28.689c5.522 15.658 1.537 31.957-2.653 49.126zm375.467 0c-4.207 17.237-8.533 35.063-3.866 53.231l-15.753.393c3.296-17.905 2.001-36.354-3.763-53.623-4.19-17.161-8.175-33.459-2.654-49.118h28.689c5.521 15.65 1.536 31.949-2.654 49.109v.008zm13.909-66.244h-426.666v-42.667h426.667v42.667zm25.6-68.267c0 4.713-3.82 8.533-8.533 8.533h-460.8c-4.713 0-8.533-3.82-8.533-8.533v-8.533c0-4.713 3.821-8.533 8.533-8.533h460.8c4.713 0 8.533 3.82 8.533 8.533z"/><path id="Shape_115_" d="m486.4 0h-460.8c-14.138 0-25.6 11.462-25.6 25.6s11.462 25.6 25.6 25.6h51.2v46.251l-33.937 19.388c-16.141 9.338-26 26.648-25.796 45.295 0 9.426 7.641 17.067 17.067 17.067h34.133c0 18.851 15.282 34.133 34.133 34.133s34.133-15.282 34.133-34.133h34.133c3.008-.008 5.958-.834 8.533-2.389 2.582 1.539 5.527 2.363 8.533 2.389h34.133c0 18.851 15.282 34.133 34.133 34.133s34.133-15.282 34.133-34.133h34.133c3.008-.008 5.958-.834 8.533-2.389 2.582 1.539 5.527 2.363 8.533 2.389h34.133c0 18.851 15.282 34.133 34.133 34.133s34.133-15.282 34.133-34.133h34.133c4.659-.054 9.098-1.988 12.312-5.362 3.213-3.374 4.928-7.902 4.755-12.558-.021-18.369-9.86-35.325-25.796-44.459l-33.933-19.371v-46.251h51.2c14.138 0 25.6-11.462 25.6-25.6s-11.461-25.6-25.6-25.6zm-256 51.2v46.251l-33.937 19.388c-6.979 4.021-12.898 9.649-17.263 16.418-4.387-6.76-10.311-12.386-17.289-16.418l-33.911-19.388v-46.251zm153.6 0v46.251l-33.937 19.388c-6.979 4.021-12.897 9.649-17.263 16.418-4.387-6.76-10.311-12.386-17.289-16.418l-33.911-19.388v-46.251zm-119.467 42.667h-17.067v-42.667h17.067zm-153.6 0h-17.066v-42.667h17.067v42.667zm-8.533 102.4c-9.426 0-17.067-7.641-17.067-17.067h34.133c.001 9.426-7.64 17.067-17.066 17.067zm-68.267-34.987c.013-12.247 6.575-23.551 17.203-29.636l36.267-20.71h29.594l36.267 20.727c10.798 6.278 17.374 17.889 17.203 30.379v.094zm221.867 34.987c-9.426 0-17.067-7.641-17.067-17.067h34.133c.001 9.426-7.64 17.067-17.066 17.067zm-68.267-34.987c.013-12.247 6.575-23.551 17.203-29.636l36.267-20.71h29.594l36.267 20.727c10.798 6.278 17.374 17.889 17.203 30.379v.094zm221.867 34.987c-9.426 0-17.067-7.641-17.067-17.067h34.133c.001 9.426-7.64 17.067-17.066 17.067zm68.267-34.134-136.533-.853c.013-12.247 6.575-23.551 17.203-29.636l36.267-20.71h29.594l36.267 20.727c10.829 6.292 17.41 17.949 17.202 30.472zm-59.734-68.266h-17.067v-42.667h17.067zm68.267-59.734h-460.8c-4.713 0-8.533-3.821-8.533-8.533s3.821-8.533 8.533-8.533h460.8c4.713 0 8.533 3.821 8.533 8.533s-3.82 8.533-8.533 8.533z"/></g></g></g></svg>