<svg xmlns="http://www.w3.org/2000/svg" height="512" viewBox="0 0 60 60" width="512"><g id="Page-1" fill="none" fill-rule="evenodd"><g id="005---TV" fill="rgb(0,0,0)" fill-rule="nonzero"><path id="Shape" d="m58 37h-18.434l-1.8-3h18.234c1.1045695 0 2-.8954305 2-2v-30c0-1.1045695-.8954305-2-2-2h-52c-1.1045695 0-2 .8954305-2 2v30c0 1.1045695.8954305 2 2 2h18.234l-1.8 3h-18.434c-1.1045695 0-2 .8954305-2 2v14c0 1.1045695.8954305 2 2 2h3.234l-2.091 3.485c-.19180407.3065026-.20321654.6926712-.02984758 1.0099658.17336895.3172946.50451389.5162906.86605974.5204443.36154584.0041536.69717512-.1871822.87778784-.5004101l2.709-4.515h44.868l2.709 4.515c.1806127.3132279.516242.5045637.8777878.5004101.3615459-.0041537.6926908-.2031497.8660598-.5204443.1733689-.3172946.1619565-.7034632-.0298476-1.0099658l-2.091-3.485h3.234c1.1045695 0 2-.8954305 2-2v-14c0-1.1045695-.8954305-2-2-2zm-38 10h20v6h-20zm20-2h-20v-6h20zm-36-43h52v30h-52zm20.566 32h10.868l1.8 3h-14.468zm-22.566 5h16v14h-16zm40 14v-14h16v14z"/><path id="Shape" d="m13 41h-6c-.55228475 0-1 .4477153-1 1s.44771525 1 1 1h6c.5522847 0 1-.4477153 1-1s-.4477153-1-1-1z"/><path id="Shape" d="m53 41h-6c-.5522847 0-1 .4477153-1 1s.4477153 1 1 1h6c.5522847 0 1-.4477153 1-1s-.4477153-1-1-1z"/><path id="Shape" d="m7 7c.26519481-.00005664.51950727-.10545063.707-.293l1-1c.37897221-.39237889.37355237-1.01608478-.01218142-1.40181858-.3857338-.38573379-1.00943969-.39115363-1.40181858-.01218142l-1 1c-.28590792.28599425-.37142191.71603662-.21667798 1.08965456s.51928208.61725909.92367798.61734544z"/><path id="Shape" d="m13.293 4.293-7 7c-.25995658.2510745-.3642126.6228779-.27269716.9725073.09151544.3496295.3645604.6226744.71418984.7141899.34962943.0915154.72143285-.0127406.97250732-.2726972l7-7c.2599566-.25107447.3642126-.62287789.2726972-.97250732-.0915155-.34962944-.3645604-.6226744-.7141899-.71418984-.3496294-.09151544-.7214328.01274058-.9725073.27269716z"/></g></g></svg>