<svg xmlns="http://www.w3.org/2000/svg" height="512" viewBox="0 0 60 60" width="512"><g id="Page-1" fill="none" fill-rule="evenodd"><g id="017---Toilet-Roll-Holder" fill="rgb(0,0,0)" fill-rule="nonzero"><path id="Shape" d="m.972 59.048c.60119581.3640814 1.35010028.3830988 1.969.05l1.807-.965 2.808 1.5c.5877838.3150285 1.2942162.3150285 1.882 0l2.808-1.5 2.805 1.5c.5884032.3153843 1.2955968.3153843 1.884 0l2.806-1.5 2.808 1.5c.5884069.3139556 1.2945931.3139556 1.883 0l2.813-1.5 1.815.966c.6198338.3300475 1.3673545.31084 1.9694204-.0506043.6020658-.3614443.9704627-1.0121669.9705796-1.7143957v-12.334h11c6.247 0 11.638-6.1 12.767-14.289 2.5145257-.7640143 4.2333363-3.082967 4.233-5.711v-19c-.0033074-3.31233757-2.6876624-5.99669262-6-6h-42c-3.31233757.00330738-5.99669262 2.68766243-6 6v6.718c-4.082 3.482-6 9.395-6 14.782v29.833c-.00342066.7036822.36652597 1.3564173.972 1.715zm29.028-1.714-1.814-.966c-.5881417-.3136-1.2938583-.3136-1.882 0l-2.814 1.5-2.807-1.5c-.5881385-.315027-1.2948615-.315027-1.883 0l-2.807 1.5-2.806-1.5c-.5884069-.3139556-1.2945931-.3139556-1.883 0l-2.804 1.499-2.808-1.5c-.58814166-.3136-1.29385834-.3136-1.882 0l-1.81.966v-16.333h1c.55228475 0 1-.4477153 1-1s-.44771525-1-1-1h-1v-11.5c0-7.1 4.152-15.5 11-15.5h23.986c-4.147 2.928-6.986 8.772-6.986 15.5v11.5h-2c-.5522847 0-1 .4477153-1 1s.4477153 1 1 1h2zm23-41.034c-2.426-3.93-6.062-6.3-10-6.3h-30v-3h40zm-21 26.7v-6.217c1.0968075 2.4683947 2.8146622 4.6103727 4.986 6.217zm11 0c-6.065 0-11-6.953-11-15.5s4.935-15.5 11-15.5c4.3 0 8.206 3.556 10 9.068v2.932h-4.636c-.94-2.448-2.783-4-4.864-4-2.934 0-5.5 3.171-5.5 7.5 0 4.392 2.616 7.5 5.5 7.5 2.081 0 3.924-1.552 4.864-4h5.345c-1.144 6.918-5.601 12-10.709 12zm3.184-19h-5.368c.4554571-1.1121132 1.4880844-1.8815821 2.684-2 1.1959156.1184179 2.2285429.8878868 2.684 2zm-5.369 7h5.369c-.4554571 1.1121132-1.4880844 1.8815821-2.684 2-1.1958712-.1191416-2.2284653-.8882992-2.685-2zm-28.815-29h42c2.209139 0 4 1.790861 4 4v19c0 2.209139-1.790861 4-4 4h-13.849c-.2013287-.9898667-.2013287-2.0101333 0-3h12.849c1.1045695 0 2-.8954305 2-2v-17c0-1.1045695-.8954305-2-2-2h-40c-1.1045695 0-2 .8954305-2 2v3.221c-1.050739.2149004-2.06243372.5892274-3 1.11v-5.331c0-2.209139 1.790861-4 4-4z"/><path id="Shape" d="m10 39h-3c-.55228475 0-1 .4477153-1 1s.44771525 1 1 1h3c.5522847 0 1-.4477153 1-1s-.4477153-1-1-1z"/><path id="Shape" d="m17 39h-3c-.5522847 0-1 .4477153-1 1s.4477153 1 1 1h3c.5522847 0 1-.4477153 1-1s-.4477153-1-1-1z"/><path id="Shape" d="m24 39h-3c-.5522847 0-1 .4477153-1 1s.4477153 1 1 1h3c.5522847 0 1-.4477153 1-1s-.4477153-1-1-1z"/></g></g></svg>