<svg xmlns="http://www.w3.org/2000/svg" height="512" viewBox="0 0 54 60" width="512"><g id="Page-1" fill="none" fill-rule="evenodd"><g id="031---Clean-Toilet" fill="rgb(0,0,0)" fill-rule="nonzero"><path id="Shape" d="m25 56h5.173c.3295862.0002184.6381152-.1619776.8247929-.4335996.1866777-.2716221.2275286-.6177852.1092071-.9254004l-1.027-2.672c-.1982702-.5155578-.7769422-.7727702-1.2925-.5745s-.7727702.7769422-.5745 1.2925l.5 1.313h-3.713c-.5522847 0-1 .4477153-1 1s.4477153 1 1 1z"/><path id="Shape" d="m31 43c7.907 0 11.59-2.366 13.288-4.35.358985-.4197364.3097364-1.0510149-.11-1.41-.4197364-.358985-1.0510149-.3097364-1.41.11-1.424 1.665-4.622 3.65-11.768 3.65-.5522847 0-1 .4477153-1 1s.4477153 1 1 1z"/><path id="Shape" d="m50.5 28h-24c-1.9329966 0-3.5 1.5670034-3.5 3.5.0029268.5200078.1228931 1.0326843.351 1.5h-2.351v-25.278c.6167513-.35441258.997855-1.01067322 1-1.722v-3c0-1.65685425-1.3431458-3-3-3h-16c-1.65685425 0-3 1.34314575-3 3v3c.002145.71132678.38324874 1.36758742 1 1.722v26.278c0 .034.017.063.02.1-.141 5.074.864 8.766 3 10.966.74443476.7826123 1.67250547 1.3669532 2.7 1.7l-2.875 9.348c-.28131066.9100311-.11374241 1.8995772.4514995 2.6662544.5652419.7666771 1.46098167 1.2193701 2.4135005 1.2197456h26.38c.9878587-.0017257 1.9115512-.4896616 2.4698025-1.3046605.5582513-.814999.6794994-1.8525866.3241975-2.7743395l-3.438-8.946c17.011-.603 17.554-11.829 17.554-11.975h.5c1.9329966 0 3.5-1.5670034 3.5-3.5s-1.5670034-3.5-3.5-3.5zm-48.5-25c0-.55228475.44771525-1 1-1h16c.5522847 0 1 .44771525 1 1v3h-18zm29 42h-10c-.5522847 0-1 .4477153-1 1s.4477153 1 1 1h9.313l3.7 9.643c.1168102.3055782.0767662.6489703-.1072224.9194714s-.4886545.4339036-.8157776.4375286h-26.38c-.31926088.0022162-.62019397-.1489049-.80908363-.4063017s-.24279031-.5898017-.14491637-.8936983l2.983-9.7h2.261c.5522847 0 1-.4477153 1-1s-.4477153-1-1-1h-3c-.98421442-.1141796-1.89159264-.5878111-2.548-1.33-1.139-1.17-2.452-3.625-2.452-8.67h3c.55228475 0 1-.4477153 1-1s-.44771525-1-1-1h-3v-25h16v25h-8c-.5522847 0-1 .4477153-1 1s.4477153 1 1 1h37c-.045.751-.917 10-17 10zm19.5-12h-24c-.8284271 0-1.5-.6715729-1.5-1.5s.6715729-1.5 1.5-1.5h24c.8284271 0 1.5.6715729 1.5 1.5s-.6715729 1.5-1.5 1.5z"/><path id="Shape" d="m9 10h-3c-.55228475 0-1 .4477153-1 1v3c0 .5522847.44771525 1 1 1s1-.4477153 1-1v-2h2c.55228475 0 1-.4477153 1-1s-.44771525-1-1-1z"/><path id="Shape" d="m34 12c0-.5522847-.4477153-1-1-1s-1 .4477153-1 1c-.0033061 2.7600532-2.2399468 4.9966939-5 5-.5522847 0-1 .4477153-1 1s.4477153 1 1 1c2.7600532.0033061 4.9966939 2.2399468 5 5 0 .5522847.4477153 1 1 1s1-.4477153 1-1c.0033061-2.7600532 2.2399468-4.9966939 5-5 .5522847 0 1-.4477153 1-1s-.4477153-1-1-1c-2.7600532-.0033061-4.9966939-2.2399468-5-5zm-1 8.4c-.5931269-.9831096-1.4168904-1.8068731-2.4-2.4.9831096-.5931269 1.8068731-1.4168904 2.4-2.4.5931269.9831096 1.4168904 1.8068731 2.4 2.4-.9831096.5931269-1.8068731 1.4168904-2.4 2.4z"/><path id="Shape" d="m43 14c0 .5522847.4477153 1 1 1s1-.4477153 1-1c.0033061-2.7600532 2.2399468-4.99669388 5-5 .5522847 0 1-.44771525 1-1s-.4477153-1-1-1c-2.7600532-.00330612-4.9966939-2.23994685-5-5 0-.55228475-.4477153-1-1-1s-1 .44771525-1 1c-.0033061 2.76005315-2.2399468 4.99669388-5 5-.5522847 0-1 .44771525-1 1s.4477153 1 1 1c2.7600532.00330612 4.9966939 2.2399468 5 5zm1-8.4c.5931269.98310961 1.4168904 1.80687313 2.4 2.4-.9831096.59312687-1.8068731 1.41689039-2.4 2.4-.5931269-.98310961-1.4168904-1.80687313-2.4-2.4.9831096-.59312687 1.8068731-1.41689039 2.4-2.4z"/></g></g></svg>