<svg xmlns="http://www.w3.org/2000/svg" id="Icons" viewBox="0 0 60 60" width="512" height="512"><path d="M32,32H28a1,1,0,0,0,0,2h4a1,1,0,0,0,0-2Z"/><path d="M31,35H29a1,1,0,0,0,0,2h2a1,1,0,0,0,0-2Z"/><path d="M57,6H54V5a5.006,5.006,0,0,0-5-5H11A5.006,5.006,0,0,0,6,5V6H3A3,3,0,0,0,0,9V34a3,3,0,0,0,3,3H4a4,4,0,0,0,4-4V31a1,1,0,0,1,1-1h1v5a8.009,8.009,0,0,0,8,8h4.706a7.959,7.959,0,0,1-1.186,1.111l-8.533,3.1a8.048,8.048,0,0,0-4.125,3.406l-4.719,7.87A1,1,0,0,0,5,60H55a1,1,0,0,0,.857-1.514l-4.72-7.872a8.046,8.046,0,0,0-4.125-3.4l-8.532-3.1A7.959,7.959,0,0,1,37.294,43H42a8.009,8.009,0,0,0,8-8V30h1a1,1,0,0,1,1,1v2a4,4,0,0,0,4,4h1a3,3,0,0,0,3-3V9A3,3,0,0,0,57,6ZM18,41a6.006,6.006,0,0,1-6-6V30h6.61l.912,2.741A10.773,10.773,0,0,0,21.5,36.285a14.432,14.432,0,0,0,2.3,2.1A4.862,4.862,0,0,1,23.82,41ZM30,51a1,1,0,0,0-1,1v1.47a10.22,10.22,0,0,1-5.968-8.016A7.186,7.186,0,0,0,25.991,39.8,8.99,8.99,0,0,0,30,41a8.985,8.985,0,0,0,4.009-1.207,7.183,7.183,0,0,0,2.958,5.661A10.216,10.216,0,0,1,31,53.47V52A1,1,0,0,0,30,51Zm0-12a7.971,7.971,0,0,1-3.768-1.362,14.177,14.177,0,0,1-3.211-2.646,8.8,8.8,0,0,1-1.6-2.888l-.7-2.1H39.283l-.7,2.1A8.81,8.81,0,0,1,36.976,35C35.6,36.628,32.2,39,30,39ZM49.423,51.644,53.234,58H6.766l3.81-6.354a6.043,6.043,0,0,1,3.1-2.556l7.474-2.716c.424,2.363,2.074,7.152,8.5,9.563a1.015,1.015,0,0,0,.7,0c6.428-2.411,8.078-7.2,8.5-9.563l7.473,2.715A6.048,6.048,0,0,1,49.423,51.644ZM48,35a6.006,6.006,0,0,1-6,6H36.18a4.864,4.864,0,0,1,.023-2.607,14.268,14.268,0,0,0,2.3-2.105,10.764,10.764,0,0,0,1.977-3.552L41.39,30H48Zm10-1a1,1,0,0,1-1,1H56a2,2,0,0,1-2-2V31a3,3,0,0,0-3-3H9a3,3,0,0,0-3,3v2a2,2,0,0,1-2,2H3a1,1,0,0,1-1-1V9A1,1,0,0,1,3,8H6V24a1,1,0,0,0,2,0V5a3,3,0,0,1,3-3H49a3,3,0,0,1,3,3V24a1,1,0,0,0,2,0V8h3a1,1,0,0,1,1,1Z"/><path d="M31.2,5.4,29.55,7.6a4.02,4.02,0,0,0,0,4.8l.3.4a2.013,2.013,0,0,1,0,2.4L28.2,17.4a1,1,0,1,0,1.6,1.2l1.65-2.2a4.02,4.02,0,0,0,0-4.8l-.3-.4a2.013,2.013,0,0,1,0-2.4L32.8,6.6a1,1,0,1,0-1.6-1.2Z"/><path d="M39.2,5.4,37.55,7.6a4.02,4.02,0,0,0,0,4.8l.3.4a2.013,2.013,0,0,1,0,2.4L36.2,17.4a1,1,0,1,0,1.6,1.2l1.65-2.2a4.02,4.02,0,0,0,0-4.8l-.3-.4a2.013,2.013,0,0,1,0-2.4L40.8,6.6a1,1,0,0,0-1.6-1.2Z"/><path d="M23.2,5.4,21.55,7.6a4.02,4.02,0,0,0,0,4.8l.3.4a2.013,2.013,0,0,1,0,2.4L20.2,17.4a1,1,0,1,0,1.6,1.2l1.65-2.2a4.02,4.02,0,0,0,0-4.8l-.3-.4a2.013,2.013,0,0,1,0-2.4L24.8,6.6a1,1,0,1,0-1.6-1.2Z"/></svg>