<svg xmlns="http://www.w3.org/2000/svg" id="Icons" height="512" viewBox="0 0 60 60" width="512"><path d="m57 38h-4.5l-1.5-2h1a4 4 0 0 0 4-4v-28a4 4 0 0 0 -4-4h-44a4 4 0 0 0 -4 4v28a4 4 0 0 0 4 4h1l-1.5 2h-4.5a3 3 0 0 0 -3 3v12a3 3 0 0 0 3 3v1a3 3 0 0 0 3 3h48a3 3 0 0 0 3-3v-1a3 3 0 0 0 3-3v-12a3 3 0 0 0 -3-3zm-7 0h-2.5l-1.5-2h2.5zm-31 10h22v6h-22zm22-2h-22v-6h22zm-26-8 1.5-2h27l1.5 2zm-9-6v-28a2 2 0 0 1 2-2h44a2 2 0 0 1 2 2v28a2 2 0 0 1 -2 2h-44a2 2 0 0 1 -2-2zm5.5 4h2.5l-1.5 2h-2.5zm-9.5 17v-12a1 1 0 0 1 1-1h14v14h-14a1 1 0 0 1 -1-1zm53 4a1 1 0 0 1 -1 1h-48a1 1 0 0 1 -1-1v-1h50zm3-4a1 1 0 0 1 -1 1h-14v-14h14a1 1 0 0 1 1 1z"/><path d="m9 7c.53 0 .675-.261 1.707-1.293a1 1 0 1 0 -1.414-1.414l-1 1a1 1 0 0 0 .707 1.707z"/><path d="m16.707 4.293a1 1 0 0 0 -1.414 0l-7 7a1 1 0 1 0 1.414 1.414l7-7a1 1 0 0 0 0-1.414z"/><path d="m15 50a1 1 0 0 0 1-1v-2a1 1 0 0 0 -2 0v2a1 1 0 0 0 1 1z"/><path d="m45 46a1 1 0 0 0 -1 1v2a1 1 0 0 0 2 0v-2a1 1 0 0 0 -1-1z"/></svg>