<svg xmlns="http://www.w3.org/2000/svg" id="Capa_1" enable-background="new 0 0 611.67 611.67" height="512" viewBox="0 0 611.67 611.67" width="512"><g><g id="Page-1_6_"><g id="_x30_07---Streaming-TV-Box"><path id="Shape_17_" d="m50.973 560.698h265.057c28.137-.034 50.939-22.835 50.973-50.973v-265.057c-.034-28.137-22.835-50.939-50.973-50.973h-265.057c-28.138.034-50.939 22.836-50.973 50.973v265.057c.034 28.137 22.835 50.939 50.973 50.973zm-30.584-316.03c0-16.891 13.693-30.583 30.584-30.583h265.057c16.891 0 30.583 13.693 30.583 30.583v265.057c0 16.891-13.693 30.583-30.583 30.583h-265.057c-16.891 0-30.584-13.693-30.584-30.583z"/><path id="Path_53_" clip-rule="evenodd" d="m61.167 519.92h20.389c5.63 0 10.195-4.564 10.195-10.195s-4.564-10.194-10.195-10.194h-20.389c-5.63 0-10.194 4.564-10.194 10.194s4.564 10.195 10.194 10.195z" fill-rule="evenodd"/><path id="Path_52_" clip-rule="evenodd" d="m112.14 509.725c0 5.63 4.564 10.195 10.194 10.195h183.501c5.63 0 10.195-4.564 10.195-10.195s-4.564-10.194-10.195-10.194h-183.501c-5.63 0-10.194 4.564-10.194 10.194z" fill-rule="evenodd"/><path id="Shape_16_" d="m560.698 0h-122.334c-28.137.034-50.939 22.835-50.973 50.973v509.725c.034 28.137 22.835 50.939 50.973 50.972h122.334c28.137-.034 50.939-22.835 50.972-50.972v-509.725c-.034-28.138-22.835-50.939-50.972-50.973zm30.583 560.698c0 16.891-13.693 30.583-30.583 30.583h-122.334c-16.891 0-30.583-13.693-30.583-30.583v-509.725c0-16.891 13.693-30.584 30.583-30.584h122.334c16.891 0 30.583 13.693 30.583 30.584z"/><path id="Shape_15_" d="m183.501 458.753c45.042 0 81.556-36.514 81.556-81.556s-36.514-81.556-81.556-81.556-81.556 36.514-81.556 81.556c.051 45.021 36.535 81.505 81.556 81.556zm0-142.723c33.782 0 61.167 27.385 61.167 61.167s-27.385 61.167-61.167 61.167-61.167-27.385-61.167-61.167c.034-33.768 27.399-61.134 61.167-61.167z"/><path id="Shape_14_" d="m540.309 61.167h-81.556c-16.891 0-30.583 13.693-30.583 30.584v20.389c0 16.891 13.693 30.583 30.583 30.583h81.556c16.891 0 30.583-13.693 30.583-30.583v-20.389c0-16.891-13.693-30.584-30.583-30.584zm10.194 50.973c0 5.63-4.564 10.194-10.195 10.194h-81.556c-5.63 0-10.194-4.564-10.194-10.194v-20.389c0-5.63 4.564-10.195 10.194-10.195h81.556c5.63 0 10.195 4.564 10.195 10.195z"/><g clip-rule="evenodd" fill-rule="evenodd"><path id="Path_51_" d="m438.364 193.696h20.389c5.63 0 10.195-4.564 10.195-10.194s-4.564-10.195-10.195-10.195h-20.389c-5.63 0-10.194 4.564-10.194 10.195-.001 5.629 4.563 10.194 10.194 10.194z"/><path id="Path_50_" d="m489.336 193.696h20.389c5.63 0 10.195-4.564 10.195-10.194s-4.564-10.195-10.195-10.195h-20.389c-5.63 0-10.194 4.564-10.194 10.195 0 5.629 4.564 10.194 10.194 10.194z"/><path id="Path_49_" d="m560.698 173.307h-20.389c-5.63 0-10.194 4.564-10.194 10.195 0 5.63 4.564 10.194 10.194 10.194h20.389c5.63 0 10.194-4.564 10.194-10.194 0-5.631-4.564-10.195-10.194-10.195z"/><path id="Path_48_" d="m438.364 234.474h20.389c5.63 0 10.195-4.564 10.195-10.195s-4.564-10.195-10.195-10.195h-20.389c-5.63 0-10.194 4.564-10.194 10.195s4.563 10.195 10.194 10.195z"/><path id="Path_47_" d="m489.336 234.474h20.389c5.63 0 10.195-4.564 10.195-10.195s-4.564-10.195-10.195-10.195h-20.389c-5.63 0-10.194 4.564-10.194 10.195s4.564 10.195 10.194 10.195z"/><path id="Path_46_" d="m560.698 214.085h-20.389c-5.63 0-10.194 4.564-10.194 10.195s4.564 10.195 10.194 10.195h20.389c5.63 0 10.194-4.564 10.194-10.195s-4.564-10.195-10.194-10.195z"/><path id="Path_45_" d="m438.364 275.252h20.389c5.63 0 10.195-4.564 10.195-10.194s-4.564-10.195-10.195-10.195h-20.389c-5.63 0-10.194 4.564-10.194 10.195-.001 5.629 4.563 10.194 10.194 10.194z"/><path id="Path_44_" d="m489.336 275.252h20.389c5.63 0 10.195-4.564 10.195-10.194s-4.564-10.195-10.195-10.195h-20.389c-5.63 0-10.194 4.564-10.194 10.195 0 5.629 4.564 10.194 10.194 10.194z"/><path id="Path_43_" d="m560.698 254.863h-20.389c-5.63 0-10.194 4.564-10.194 10.195 0 5.63 4.564 10.194 10.194 10.194h20.389c5.63 0 10.194-4.564 10.194-10.194 0-5.631-4.564-10.195-10.194-10.195z"/><path id="Path_42_" d="m438.364 316.03h20.389c5.63 0 10.195-4.564 10.195-10.195 0-5.63-4.564-10.194-10.195-10.194h-20.389c-5.63 0-10.194 4.564-10.194 10.194-.001 5.63 4.563 10.195 10.194 10.195z"/><path id="Path_41_" d="m489.336 316.03h20.389c5.63 0 10.195-4.564 10.195-10.195 0-5.63-4.564-10.194-10.195-10.194h-20.389c-5.63 0-10.194 4.564-10.194 10.194s4.564 10.195 10.194 10.195z"/><path id="Path_40_" d="m560.698 295.641h-20.389c-5.63 0-10.194 4.564-10.194 10.194s4.564 10.195 10.194 10.195h20.389c5.63 0 10.194-4.564 10.194-10.195 0-5.63-4.564-10.194-10.194-10.194z"/><path id="Path_39_" d="m468.947 346.613c0-5.63-4.564-10.195-10.195-10.195h-20.389c-5.63 0-10.194 4.564-10.194 10.195 0 5.63 4.564 10.194 10.194 10.194h20.389c5.631.001 10.195-4.564 10.195-10.194z"/><path id="Path_38_" d="m489.336 356.808h20.389c5.63 0 10.195-4.564 10.195-10.194s-4.564-10.195-10.195-10.195h-20.389c-5.63 0-10.194 4.564-10.194 10.195 0 5.629 4.564 10.194 10.194 10.194z"/><path id="Path_37_" d="m560.698 336.419h-20.389c-5.63 0-10.194 4.564-10.194 10.195 0 5.63 4.564 10.194 10.194 10.194h20.389c5.63 0 10.194-4.564 10.194-10.194 0-5.631-4.564-10.195-10.194-10.195z"/><path id="Path_36_" d="m527.321 393.008c-17.775-7.463-37.805-7.463-55.58 0-5.185 2.196-7.609 8.18-5.413 13.365s8.18 7.609 13.365 5.413c12.692-5.311 26.985-5.311 39.677 0 1.259.527 2.611.801 3.976.805 4.85.002 9.03-3.413 9.995-8.166.964-4.752-1.553-9.527-6.02-11.417z"/><path id="Path_35_" d="m551.92 425.559c-5.185 2.191-7.612 8.169-5.424 13.355 5.342 12.686 5.342 26.991 0 39.677-2.189 5.185.239 11.164 5.424 13.355 1.253.537 2.602.815 3.966.816 4.097-.001 7.795-2.455 9.389-6.229 7.489-17.763 7.489-37.797 0-55.56-2.195-5.181-8.172-7.604-13.355-5.414z"/><path id="Path_34_" d="m519.369 505.719c-12.692 5.311-26.985 5.311-39.677 0-5.185-2.196-11.169.228-13.365 5.413s.228 11.169 5.413 13.365c17.77 7.489 37.81 7.489 55.58 0 5.185-2.196 7.609-8.18 5.413-13.365-2.195-5.186-8.178-7.609-13.364-5.413z"/><path id="Path_33_" d="m447.141 425.559c-5.183-2.19-11.16.233-13.355 5.413-7.489 17.763-7.489 37.797 0 55.56 1.594 3.774 5.292 6.228 9.389 6.229 1.363-.001 2.712-.278 3.966-.816 5.185-2.191 7.612-8.169 5.423-13.355-5.342-12.686-5.342-26.991 0-39.677 2.189-5.184-.238-11.163-5.423-13.354z"/></g><path id="Shape_13_" d="m499.531 489.336c16.891 0 30.584-13.693 30.584-30.583s-13.693-30.583-30.584-30.583-30.583 13.693-30.583 30.583 13.692 30.583 30.583 30.583zm0-40.778c5.63 0 10.194 4.564 10.194 10.194s-4.564 10.195-10.194 10.195-10.195-4.564-10.195-10.195c0-5.63 4.564-10.194 10.195-10.194z"/><path id="Path_32_" clip-rule="evenodd" d="m79.986 114.464c57.6-57.467 150.847-57.467 208.447 0 2.577 2.575 6.332 3.58 9.85 2.636s6.266-3.694 7.208-7.213-.066-7.273-2.643-9.848c-65.564-65.421-171.713-65.421-237.277 0-2.577 2.575-3.584 6.329-2.643 9.848.942 3.519 3.689 6.269 7.208 7.213 3.518.944 7.273-.061 9.85-2.636z" fill-rule="evenodd"/><path id="Path_31_" clip-rule="evenodd" d="m263.803 145.058c4.123-.001 7.839-2.485 9.416-6.294 1.578-3.809.706-8.193-2.209-11.108-47.966-47.873-125.636-47.873-173.602 0-3.863 4-3.808 10.358.124 14.291 3.932 3.932 10.291 3.988 14.291.124 40.005-39.901 104.757-39.901 144.762 0 1.914 1.914 4.511 2.989 7.218 2.987z" fill-rule="evenodd"/><path id="Path_30_" clip-rule="evenodd" d="m129.246 155.293c-3.863 4-3.808 10.358.124 14.291 3.932 3.932 10.291 3.988 14.291.124 22.397-22.389 58.701-22.389 81.097 0 4 3.863 10.358 3.808 14.291-.124 3.932-3.932 3.988-10.291.124-14.291-30.356-30.354-79.571-30.354-109.927 0z" fill-rule="evenodd"/></g></g></g></svg>