<svg xmlns="http://www.w3.org/2000/svg" id="Capa_1" enable-background="new 0 0 611.67 611.67" height="512" viewBox="0 0 611.67 611.67" width="512"><g><g id="Icons"><path d="m581.087 0h-550.503c-16.891 0-30.584 13.693-30.584 30.584v367.002c0 16.891 13.693 30.583 30.584 30.583h76.194c-12.971 14.702-22.49 32.117-27.862 50.973h-7.554c-39.394.044-71.317 31.968-71.362 71.361v30.583c0 16.891 13.693 30.583 30.584 30.583h550.503c16.891 0 30.583-13.693 30.583-30.583v-30.583c-.045-39.393-31.968-71.317-71.362-71.362h-7.554c-5.372-18.855-14.891-36.271-27.862-50.973h76.194c16.891 0 30.583-13.693 30.583-30.583v-367.001c.001-16.891-13.692-30.584-30.582-30.584zm10.194 550.503v30.583c0 5.63-4.564 10.195-10.195 10.195h-550.502c-5.63 0-10.194-4.564-10.194-10.195v-30.583c.034-28.137 22.835-50.939 50.973-50.973h468.947c28.136.034 50.937 22.836 50.971 50.973zm-142.723-71.361v-9.593c0-5.63-4.564-10.194-10.195-10.194-5.63 0-10.194 4.564-10.194 10.194v9.593h-244.668v-9.593c0-5.63-4.564-10.194-10.195-10.194s-10.195 4.564-10.195 10.194v9.593h-62.645c4.672-16.619 14.268-31.433 27.525-42.491 26.506-17.647 97.939-27.77 123.109-28.789 31.466 27.079 78.003 27.079 109.469 0 25.17 1.019 96.644 11.143 123.119 28.799 13.256 11.052 22.849 25.864 27.515 42.48h-62.645zm-224.279-254.863v-20.389c-.027-9.563 1.655-19.053 4.965-28.025 1.927-5.196 1.7-10.947-.632-15.975-3.522-7.323-5.417-15.322-5.556-23.447.118-11.362 4.303-22.306 11.795-30.849 9.058 7.197 18.992 13.215 29.564 17.912 6.608 2.859 13.992 3.387 20.939 1.499 43.657-11.266 88.181 14.992 99.447 58.648 1.706 6.611 2.576 13.409 2.59 20.237v62.085c.122 23.066-8.142 45.391-23.254 62.819-17.739 10.496-37.727 16.605-58.302 17.82-19.519-1.068-38.524-6.652-55.519-16.311-16.314-17.58-25.583-40.552-26.037-64.531zm183.501 10.195h10.195c5.63 0 10.194 4.564 10.194 10.194v10.195c0 5.63-4.564 10.195-10.194 10.195h-10.195zm-101.945 132.528c14.106-.267 28.059-2.982 41.237-8.023-.234 1.469-.387 2.949-.459 4.435v29.503c-11.592 9.297-25.922 14.521-40.778 14.864-14.857-.339-29.188-5.563-40.778-14.864v-30.787c0-1.019-.234-2.1-.316-3.16 13.136 5.013 27.037 7.731 41.094 8.032zm285.446 30.584c0 5.63-4.564 10.194-10.195 10.194h-111.415c-33.332-10.614-67.787-17.306-102.669-19.94v-24.467c.034-5.588 2.359-10.917 6.433-14.741 1.631-1.58 3.058-3.303 4.649-4.975.368-.358.709-.743 1.019-1.152 14.173-16.104 23.512-35.882 26.944-57.059h11.928c16.891 0 30.583-13.693 30.583-30.583v-10.195c0-16.891-13.693-30.583-30.583-30.583h-10.195v-10.195c-.008-56.303-45.656-101.939-101.959-101.931-8.636.001-17.236 1.1-25.595 3.269-2.508.712-5.183.561-7.595-.428-11.355-5.015-21.81-11.858-30.951-20.256-3.587-3.587-9.266-3.991-13.324-.948-15.937 12.948-25.34 32.276-25.69 52.808.164 11.202 2.704 22.241 7.452 32.388-4.147 11.236-6.256 23.122-6.229 35.1v10.195h-10.195c-16.891 0-30.583 13.693-30.583 30.583v10.195c0 16.891 13.693 30.583 30.583 30.583h12.152c4.241 22.122 14.608 42.609 29.921 59.128.153.204.347.377.52.571.775.826 1.478 1.723 2.273 2.518 3.884 3.807 6.086 9.007 6.117 14.446v25.711c-34.889 2.64-69.352 9.339-102.689 19.961h-111.404c-5.63 0-10.194-4.564-10.194-10.194v-367.005c0-5.63 4.564-10.194 10.194-10.194h550.503c5.63 0 10.195 4.564 10.195 10.194v367.002zm-387.391-132.529h-10.195c-5.63 0-10.194-4.564-10.194-10.195v-10.195c0-5.63 4.564-10.194 10.194-10.194h10.195z"/><path d="m61.167 112.14c2.704-.001 5.296-1.075 7.208-2.987l40.778-40.778c4.05-3.911 4.162-10.365.251-14.415s-10.365-4.162-14.415-.251c-.085.082-.169.166-.251.251l-40.779 40.777c-3.981 3.982-3.98 10.437.002 14.417 1.912 1.911 4.504 2.985 7.206 2.986z"/><path d="m155.905 53.959-101.946 101.946c-4.05 3.911-4.162 10.365-.25 14.415s10.365 4.162 14.415.25c.085-.082.168-.165.25-.25l101.946-101.945c4.05-3.911 4.162-10.365.251-14.415s-10.365-4.162-14.415-.251c-.086.082-.169.166-.251.25z"/></g></g></svg>