<svg xmlns="http://www.w3.org/2000/svg" height="60" viewBox="0 0 60 60" width="60"><g id="Page-1" fill="none" fill-rule="evenodd"><g id="047---Wave-Machine" fill="rgb(0,0,0)" fill-rule="nonzero" transform="translate(0 -1)"><path id="Shape" d="m59 59c-1.1283901.0037432-2.2088838-.4557106-2.989-1.271-2.376425-2.3053672-6.154575-2.3053672-8.531 0-.7802526.815092-1.8606575 1.274508-2.989 1.271-.1770759.0004785-.3540334-.009204-.53-.029 1.5693635-1.1344856 2.3259202-3.0850079 1.932-4.981.607.016-1.133.01 7.107.01 1.0983666.0035044 2.1496753-.4455895 2.9065116-1.2415921.7568364-.7960027 1.1523599-1.8686146 1.0934884-2.9654079-.154663-2.1727408-1.9873059-3.8416998-4.165-3.793h-4.767c-.2650424-.0008192-.5190756-.1060975-.707-.293l-.714-.714c3.5522104-.0773698 6.3840792-2.9926832 6.3582875-6.5456425s-2.8996857-6.4268533-6.452645-6.452645-6.4682727 2.8060771-6.5456425 6.3582875l-.714-.714c-.1869025-.1879244-.2921808-.4419576-.293-.707v-4.932c.0031979-1.0980915-.4458501-2.1490605-1.2415629-2.9058011-.7957127-.7567407-1.8678892-1.1524901-2.9644371-1.0941989-2.1731373.154156-3.84267 1.9869456-3.794 4.165v6.812c-.184-.091-.374-.172-.551-.273-2.6484785-1.3897022-4.2597369-4.1804998-4.139-7.169-.015-3.3 1.669-6.564 3.773-9.1 1.9520973.9590498 4.28628.6755125 5.952-.723.9062418 1.25783 2.3012444 2.0747821 3.8416312 2.2497655 1.5403867.1749834 3.083087-.3082544 4.2483688-1.3307655 2.2189242.9043903 4.7673407.1007106 6.066-1.913 1.2859243.401379 2.6688143.3637374 3.931-.107 2.3492481-.8801706 3.890264-3.1436379 3.848-5.652-.1197475-1.5017086-.6523698-2.9410693-1.539-4.159-2.18-3.3-5.9-5.121-9.26-6.463-6.0549433-2.30491221-12.4929689-3.43736128-18.971-3.337-7.515.112-14.031 1.88-18.846 5.109-5.746 3.849-8.854 9.548-9.254 16.935 0 .01-.007.017-.007.026-.4352589 5.3576301.75672122 10.7218891 3.42 15.391 1.15049362 2.1389289 2.50548871 4.1613746 4.046 6.039l-3.013 2.341c-1.74494367 1.3550306-2.06103063 3.8680563-.706 5.613s3.86805633 2.0610306 5.613.706l6.093-4.734 1.754 1.918c-1.7324661.599655-2.9864245 2.1147126-3.2516703 3.9287329s.5024267 3.6246804 1.9906703 4.6952671c-.181882.0213933-.3648642.0320784-.548.032-1.1271448.0033522-2.2062519-.4561269-2.985-1.271-2.3732907-2.305439-6.14970934-2.305439-8.523 0-.77833722.8142701-1.85657317 1.2736861-2.983 1.271-.55228475 0-1 .4477153-1 1s.44771525 1 1 1c1.59213511.0033374 3.12218294-.6173695 4.262-1.729.78090904-.8120375 1.85890165-1.2709455 2.9855-1.2709455s2.204591.458908 2.9855 1.2709455c1.13951 1.1114791 2.6691901 1.7321824 4.261 1.729 1.3387746.0248239 2.6432493-.4242866 3.683-1.268.012-.009.025-.017.036-.027 1.225-.944 1.807-1.7 3.528-1.7 1.1280193-.0033514 2.2080552.4560615 2.988 1.271 2.374181 2.305158 6.150819 2.305158 8.525 0 .7788847-.8170764 1.8591646-1.2784007 2.988-1.276 1.765 0 2.362.819 3.59 1.75 1.0352407.8330444 2.3304538 1.2755195 3.659 1.25 1.5928832.0026295 3.1236084-.6179154 4.265-1.729.7824448-.8122287 1.8616989-1.2711231 2.9895-1.2711231s2.2070552.4588944 2.9895 1.2711231c1.1410356 1.1116297 2.6719928 1.7322686 4.265 1.729.5522847 0 1-.4477153 1-1s-.4477153-1-1-1zm-17-20.5c0-2.4852814 2.0147186-4.5 4.5-4.5s4.5 2.0147186 4.5 4.5-2.0147186 4.5-4.5 4.5c-2.4841391-.0027556-4.4972444-2.0158609-4.5-4.5zm-9-6.335c-.0319021-1.1080736.7971629-2.0527714 1.9-2.165.5480776-.0294744 1.0840499.1683866 1.4815072.5469174s.6212126.9042197.6184928 1.4530826v4.932c-.0019325.7960016.3145707 1.5597141.879 2.121l8.068 8.068c.5612859.5644293 1.3249984.8809325 2.121.879h4.767c1.1061652-.0326563 2.0503153.7933114 2.165 1.894.0291145.5485484-.1686748 1.0849243-.5469494 1.4832475s-.9037306.6235246-1.4530506.6227525h-7c-.5288305.0014104-1.0362272-.2088946-1.409-.584l-2.754-2.753c-.3726315-.3883386-.9869488-.408707-1.3844852-.0459041s-.4332621.9764186-.0805148 1.3829041h-10.416l6.173-5.557c.2037683-.1835333.3232219-.4426961.3304063-.716839.0071845-.2741429-.0985308-.5392067-.2924063-.733161l-2.58-2.58c-.3746854-.3769763-.5856072-.8864943-.587-1.418zm-4.776-29.165c6.2158849-.09156738 12.3929353.99420914 18.205 3.2 3.067 1.227 6.457 2.864 8.332 5.707.6807232.9153412 1.0993638 1.9987595 1.211 3.134.0081134 1.6478805-1.0134697 3.1255418-2.558 3.7-1.0572357.3929469-2.2304752.3269816-3.237-.182-.2522796-.1296872-.5477666-.1461308-.8128779-.0452359s-.4748993.3096338-.5771221.5742359c-.3177942.8261661-.9863138 1.4683701-1.8245698 1.7527474-.838256.2843772-1.7595395.1815118-2.5144302-.2807474-.4250099-.2652342-.9806972-.1750419-1.3.211-.6542624.7853072-1.6258875 1.2362616-2.648 1.229-1.4893217.0004338-2.8158004-.941663-3.306-2.348-.1252986-.3594594-.4438181-.616603-.821615-.663297s-.7493387.1251611-.958385.443297c-.6862007 1.0324735-1.867377 1.6249186-3.1052497 1.5575067-1.2378726-.067412-2.3477278-.7846219-2.9177503-1.8855067-.1896113-.3104957-.5271868-.4998906-.891-.4998906s-.7013887.1893949-.891.4998906c-.5709315 1.1100683-1.6908487 1.8310898-2.9376791 1.8913272-1.2468304.0602373-2.4310381-.5494664-3.1063209-1.5993272-.161265-.2468219-.4222399-.4109496-.7145582-.4493873-.2923183-.0384376-.5868515.052645-.8064418.2493873-.5563768.5148803-1.2859418.8018521-2.044.804-1.487 0-4.422-2.831-4.521-2.933-1.923-1.49-4.554-3.535-7.414-1.86-1.30614311.857873-2.4183115 1.9795791-3.265 3.293 2.888-11.061 13.96-15.329 25.424-15.5zm-22.958 34.5c-2.41336355-4.2060856-3.52686174-9.0327523-3.2-13.871 1.876-3.591 3.562-5.847 5.009-6.693 1.289-.758 2.581-.173 4.133.935-.4922357 1.5695379-.8469077 3.1789461-1.06 4.81-.56517285 4.659234.2410933 9.3821467 2.32 13.59.2579672.4747657.8464152.6587509 1.3288817.4154904.4824665-.2432604.6844423-.8257785.4561183-1.3154904-1.8917043-3.8500572-2.6286876-8.1653341-2.122-12.425.1667631-1.2736156.4237426-2.5337838.769-3.771.258.214.515.431.764.657 1.118 1.015 2.386 2.168 4.336 2.168.3386665-.0037136.6760742-.0419107 1.007-.114-.155.558-.3 1.123-.436 1.719-.834 3.989-1.46 8.273.788 12.929.1473874.3345359.4655742.5619877.8298057.5931762.3642316.0311885.7164554-.1388573.9185715-.4434659.2021162-.3046086.2219108-.6952303.0516228-1.0187103-1.974-4.092-1.394-8-.634-11.64.17-.767.367-1.492.58-2.2 2.1116725 1.6621221 5.1160632 1.551679 7.1-.261-2.3729922 2.8019691-3.7451978 6.3144637-3.9 9.983-.119782 3.7017742 1.8745717 7.149916 5.143 8.892.7792975.4394776 1.6020209.7970523 2.455 1.067.32.394-.234-.177 2.1 2.157l-6.559 5.9-8.5-9.273c-1.4127794-1.523645-3.7540511-1.7191845-5.4-.451l-4.406 3.43c-1.47588653-1.7919982-2.77274179-3.7242188-3.872-5.769zm9.781 8.782-6.818 5.3c-.564301.4385435-1.31969682.5427235-1.98163715.2732962-.66194034-.2694272-1.12986071-.8715292-1.22750003-1.5795-.09763931-.7079708.18983616-1.4142527.75413718-1.8527962l9-7c.8236699-.6332168 1.99418-.5343737 2.7.228l7.66 8.349h-5.434l-3.3-3.6c-.3504801-.3871511-.9398525-.4394236-1.353-.12zm22.195 9.718c-1.5924396-.0033856-3.1228164.6173091-4.263 1.729-.7817481.8120029-1.8603448 1.2708128-2.9875 1.2708128s-2.2057519-.4588099-2.9875-1.2708128c-1.1401836-1.1116909-2.6705604-1.7323856-4.263-1.729-1.6726193.0054104-3.2728795.6828455-4.441 1.88-1.3277558-.3325008-2.2693868-1.5115866-2.3-2.88.0414959-1.6942616 1.4456078-3.0357699 3.14-3h21.72c.8145006-.0195815 1.6033212.2857218 2.1924094.8485448.5890881.5628231.9300277 1.3369086.9475906 2.1514552-.0270061 1.3731441-.9748055 2.5561488-2.309 2.882-1.1682909-1.2019707-2.7728033-1.8807058-4.449-1.882z"/><path id="Shape" d="m12.135 11.363c.1969402.0002506.38948-.0582425.553-.168 3.852-2.567 9.244-3.972 15.594-4.062.2654006-.00368572.5184481-.11273314.7033933-.3031179s.2866137-.44648612.2826067-.7118821c.0068358-.26856205-.0989394-.52774789-.2917307-.71484094s-.4550331-.28504687-.7232693-.27015906c-6.735.1-12.5 1.616-16.674 4.4-.3668102.24458747-.5301634.700538-.4021268 1.122414.1280366.4218761.5172499.7101263.9581268.709586z"/><circle id="Oval" cx="32" cy="6" r="1"/></g></g></svg>