<svg xmlns="http://www.w3.org/2000/svg" height="682pt" viewBox="-32 -21 682 682.66484" width="682pt"><path d="m500.910156 640h-42.664062c-5.894532 0-10.671875-4.777344-10.671875-10.664062v-618.664063c0-5.890625 4.777343-10.66796875 10.671875-10.66796875h42.664062c5.886719 0 10.664063 4.77734375 10.664063 10.66796875v618.664063c0 5.886718-4.777344 10.664062-10.664063 10.664062zm-32.003906-21.335938h21.335938v-597.328124h-21.335938zm0 0"/><path d="m458.246094 640c-1.386719.003906-2.761719-.265625-4.042969-.789062l-234.667969-96c-4.007812-1.640626-6.625-5.546876-6.625-9.875v-426.664063c0-4.335937 2.617188-8.234375 6.625-9.875l234.667969-96c3.289063-1.347656 7.035156-.96875 9.984375 1.015625 2.953125 1.980469 4.726562 5.304688 4.71875 8.859375v618.664063c0 5.886718-4.773438 10.664062-10.660156 10.664062zm-224.003906-113.824219 213.332031 87.273438v-586.890625l-213.332031 87.269531zm0 0"/><path d="m415.574219 579.296875c-1.464844 0-2.921875-.304687-4.261719-.894531l-149.335938-65.28125c-3.886718-1.695313-6.394531-5.535156-6.402343-9.773438v-366.679687c.007812-4.242188 2.515625-8.074219 6.402343-9.769531l149.335938-65.28125c3.292969-1.4375 7.09375-1.121094 10.105469.847656 3.007812 1.972656 4.824219 5.328125 4.824219 8.921875v497.246093c0 5.886719-4.773438 10.664063-10.667969 10.664063zm-138.660157-82.933594 127.996094 55.957031v-464.636718l-127.996094 55.957031zm0 0"/><path d="m351.574219 373.335938c-1.351563.003906-2.699219-.253907-3.953125-.757813-2.632813-1.050781-4.738282-3.101563-5.851563-5.699219-1.117187-2.601562-1.152343-5.539062-.101562-8.167968l21.332031-53.332032c1.621094-4.054687 5.542969-6.710937 9.90625-6.710937h10.671875c5.886719 0 10.664063 4.777343 10.664063 10.667969 0 5.890624-4.777344 10.664062-10.664063 10.664062h-3.449219l-18.640625 46.625c-1.621093 4.054688-5.546875 6.710938-9.914062 6.710938zm0 0"/><path d="m95.578125 160.003906c-35.34375 0-64-28.652344-64-64 0-35.34375 28.65625-63.996094 64-63.996094s64.003906 28.652344 64.003906 63.996094c-.046875 35.332032-28.671875 63.960938-64.003906 64zm0-106.664062c-23.558594 0-42.667969 19.101562-42.667969 42.664062 0 23.566406 19.109375 42.667969 42.667969 42.667969 23.5625 0 42.667969-19.101563 42.667969-42.667969 0-11.3125-4.496094-22.167968-12.5-30.167968-7.996094-8-18.851563-12.496094-30.167969-12.496094zm0 0"/><path d="m95.578125 53.339844c-5.890625 0-10.664063-4.777344-10.664063-10.667969v-32c0-5.890625 4.773438-10.66796875 10.664063-10.66796875s10.667969 4.77734375 10.667969 10.66796875v32c0 5.890625-4.777344 10.667969-10.667969 10.667969zm0 0"/><path d="m95.578125 192.003906c-5.890625 0-10.664063-4.773437-10.664063-10.667968v-31.996094c0-5.894532 4.773438-10.667969 10.664063-10.667969s10.667969 4.773437 10.667969 10.667969v31.996094c0 5.894531-4.777344 10.667968-10.667969 10.667968zm0 0"/><path d="m68.914062 60.488281c-3.816406 0-7.339843-2.03125-9.25-5.335937l-16-27.730469c-2.894531-5.097656-1.136718-11.582031 3.941407-14.511719 5.078125-2.929687 11.570312-1.214844 14.535156 3.84375l16 27.734375c1.90625 3.292969 1.90625 7.363281 0 10.65625-1.898437 3.300781-5.417969 5.339844-9.226563 5.34375zm0 0"/><path d="m138.246094 180.570312c-3.816406.003907-7.34375-2.03125-9.246094-5.332031l-16-27.734375c-2.902344-5.097656-1.140625-11.578125 3.9375-14.511718 5.078125-2.929688 11.570312-1.210938 14.53125 3.847656l16.003906 27.730468c1.902344 3.300782 1.902344 7.363282.003906 10.660157-1.90625 3.300781-5.421874 5.332031-9.230468 5.339843zm0 0"/><path d="m49.382812 80.003906c-1.871093.003906-3.710937-.488281-5.332031-1.425781l-27.734375-16c-5.058594-2.96875-6.773437-9.457031-3.84375-14.535156 2.933594-5.078125 9.414063-6.835938 14.511719-3.941407l27.734375 16c4.179688 2.414063 6.214844 7.335938 4.964844 11.996094-1.25 4.664063-5.472656 7.90625-10.300782 7.90625zm0 0"/><path d="m169.46875 149.339844c-1.875 0-3.714844-.492188-5.335938-1.429688l-27.730468-16.003906c-5.058594-2.960938-6.777344-9.457031-3.84375-14.535156 2.929687-5.078125 9.410156-6.835938 14.507812-3.933594l27.734375 15.996094c4.179688 2.414062 6.21875 7.335937 4.96875 12-1.25 4.664062-5.476562 7.90625-10.300781 7.90625zm0 0"/><path d="m42.246094 106.671875h-32c-5.890625 0-10.664063-4.773437-10.664063-10.667969 0-5.886718 4.773438-10.664062 10.664063-10.664062h32c5.890625 0 10.664062 4.777344 10.664062 10.664062 0 5.894532-4.773437 10.667969-10.664062 10.667969zm0 0"/><path d="m180.914062 106.671875h-32.003906c-5.886718 0-10.664062-4.773437-10.664062-10.667969 0-5.886718 4.777344-10.664062 10.664062-10.664062h32.003906c5.886719 0 10.664063 4.777344 10.664063 10.664062 0 5.894532-4.777344 10.667969-10.664063 10.667969zm0 0"/><path d="m21.691406 149.339844c-4.824218 0-9.054687-3.242188-10.304687-7.90625-1.25-4.664063.792969-9.585938 4.972656-12l27.734375-15.996094c5.097656-2.902344 11.578125-1.144531 14.507812 3.933594 2.933594 5.078125 1.214844 11.574218-3.84375 14.535156l-27.734374 16.003906c-1.617188.9375-3.457032 1.429688-5.332032 1.429688zm0 0"/><path d="m141.777344 80.003906c-4.828125 0-9.050782-3.242187-10.300782-7.90625-1.25-4.660156.785157-9.582031 4.964844-11.996094l27.734375-16c5.097657-2.894531 11.578125-1.136718 14.511719 3.941407 2.929688 5.078125 1.214844 11.566406-3.84375 14.535156l-27.734375 16c-1.621094.9375-3.460937 1.429687-5.332031 1.425781zm0 0"/><path d="m52.910156 180.570312c-3.808594-.007812-7.324218-2.039062-9.226562-5.339843-1.90625-3.296875-1.898438-7.359375.003906-10.660157l16-27.730468c1.890625-3.332032 5.421875-5.390625 9.25-5.394532 3.828125-.011718 7.363281 2.03125 9.273438 5.351563 1.902343 3.320313 1.886718 7.40625-.050782 10.707031l-16 27.734375c-1.90625 3.300781-5.429687 5.335938-9.25 5.332031zm0 0"/><path d="m122.246094 60.488281c-3.808594-.003906-7.328125-2.042969-9.226563-5.34375-1.90625-3.292969-1.90625-7.363281 0-10.65625l16-27.734375c2.964844-5.058594 9.457031-6.773437 14.535157-3.84375 5.078124 2.929688 6.835937 9.414063 3.941406 14.511719l-16 27.730469c-1.910156 3.304687-5.4375 5.335937-9.25 5.335937zm0 0"/><path d="m308.910156 245.339844c-2.828125-.003906-5.542968-1.128906-7.539062-3.125l-106.667969-106.667969c-4.042969-4.1875-3.984375-10.835937.128906-14.953125 4.117188-4.117188 10.769531-4.175781 14.953125-.132812l106.667969 106.671874c3.046875 3.046876 3.960937 7.636719 2.308594 11.621094-1.648438 3.984375-5.535157 6.582032-9.851563 6.585938zm0 0"/><path d="m308.910156 362.667969c-2.828125 0-5.542968-1.125-7.539062-3.125l-106.667969-106.664063c-4.042969-4.183594-3.984375-10.839844.128906-14.953125 4.117188-4.113281 10.769531-4.171875 14.953125-.128906l106.667969 106.664063c3.046875 3.050781 3.960937 7.640624 2.308594 11.625-1.648438 3.984374-5.535157 6.582031-9.851563 6.582031zm0 0"/><path d="m308.910156 480c-2.828125 0-5.542968-1.125-7.539062-3.125l-106.667969-106.664062c-4.042969-4.183594-3.984375-10.839844.128906-14.949219 4.117188-4.117188 10.769531-4.175781 14.953125-.132813l106.667969 106.664063c3.046875 3.050781 3.960937 7.640625 2.308594 11.625-1.648438 3.984375-5.535157 6.582031-9.851563 6.582031zm0 0"/><path d="m607.574219 405.335938c-2.828125-.003907-5.542969-1.125-7.539063-3.125l-106.667968-106.667969c-4.042969-4.183594-3.984376-10.835938.128906-14.949219 4.117187-4.117188 10.769531-4.175781 14.953125-.132812l106.667969 106.667968c3.046874 3.046875 3.960937 7.636719 2.308593 11.621094-1.648437 3.984375-5.539062 6.582031-9.851562 6.585938zm0 0"/><path d="m607.574219 522.664062c-2.828125 0-5.542969-1.121093-7.539063-3.125l-106.667968-106.664062c-4.042969-4.183594-3.984376-10.839844.128906-14.949219 4.117187-4.117187 10.769531-4.175781 14.953125-.132812l106.667969 106.664062c3.046874 3.050781 3.960937 7.640625 2.308593 11.625-1.648437 3.984375-5.539062 6.582031-9.851562 6.582031zm0 0"/><path d="m607.574219 640c-2.828125 0-5.542969-1.125-7.539063-3.125l-106.667968-106.664062c-4.042969-4.1875-3.984376-10.839844.128906-14.953126 4.117187-4.117187 10.769531-4.175781 14.953125-.132812l106.667969 106.664062c3.046874 3.054688 3.960937 7.644532 2.308593 11.628907-1.648437 3.984375-5.539062 6.582031-9.851562 6.582031zm0 0"/></svg>