<svg xmlns="http://www.w3.org/2000/svg" height="512" viewBox="0 0 60 60" width="512"><g id="Page-1" fill="none" fill-rule="evenodd"><g id="005---Modem" fill="rgb(0,0,0)" fill-rule="nonzero"><path id="Shape" d="m14 50h-2c-1.1045695 0-2 .8954305-2 2v2c0 1.1045695.8954305 2 2 2h2c1.1045695 0 2-.8954305 2-2v-2c0-1.1045695-.8954305-2-2-2zm-2 4v-2h2v2z"/><path id="Shape" d="m22 50h-2c-1.1045695 0-2 .8954305-2 2v2c0 1.1045695.8954305 2 2 2h2c1.1045695 0 2-.8954305 2-2v-2c0-1.1045695-.8954305-2-2-2zm-2 4v-2h2v2z"/><path id="Shape" d="m30 50h-2c-1.1045695 0-2 .8954305-2 2v2c0 1.1045695.8954305 2 2 2h2c1.1045695 0 2-.8954305 2-2v-2c0-1.1045695-.8954305-2-2-2zm-2 4v-2h2v2z"/><path id="Shape" d="m38 50h-2c-1.1045695 0-2 .8954305-2 2v2c0 1.1045695.8954305 2 2 2h2c1.1045695 0 2-.8954305 2-2v-2c0-1.1045695-.8954305-2-2-2zm-2 4v-2h2v2z"/><path id="Shape" d="m22 30h6c.5522847 0 1-.4477153 1-1s-.4477153-1-1-1h-6c-.5522847 0-1 .4477153-1 1s.4477153 1 1 1z"/><path id="Shape" d="m27 32c0-.5522847-.4477153-1-1-1h-2c-.5522847 0-1 .4477153-1 1s.4477153 1 1 1h2c.5522847 0 1-.4477153 1-1z"/><path id="Shape" d="m56.054 0h-.108c-1.6332369-.01307194-2.9755927 1.28523577-3.017 2.918l-.712 26.082h-2.217c-.0033061-2.7600532-2.2399468-4.9966939-5-5h-40c-2.76005315.0033061-4.99669388 2.2399468-5 5v26c.00330612 2.7600532 2.23994685 4.9966939 5 5h40c2.7600532-.0033061 4.9966939-2.2399468 5-5v-18h2c-.0000017.5313004.2113982 1.0407675.5875531 1.4159843s.8861481.585344 1.4174469.5840157h3.982c.5421745.0037222 1.0626282-.2128377 1.4421283-.6000673s.5855235-.9119434.5708717-1.4539327l-.929-34.027c-.0408713-1.63315724-1.3833836-2.93206123-3.017-2.919zm-8.054 55c0 1.6568542-1.3431458 3-3 3h-40c-1.65685425 0-3-1.3431458-3-3v-26c0-1.6568542 1.34314575-3 3-3h40c1.6568542 0 3 1.3431458 3 3zm2-24h2.162l-.109 4h-2.053zm4 6 .929-34.027c.014729-.54838409.4685008-.98252366 1.017-.973h.108c.5484992-.00952366 1.002271.42461591 1.017.973l.92 34.027z"/><path id="Shape" d="m10.784 12.171c3.4099544-4.31434476 8.6067856-6.83095681 14.106-6.83095681s10.6960456 2.51661205 14.106 6.83095681c.3470305.4185286.9648641.4831129 1.3909471.1454006.426083-.3377122.5042825-.9539705.1760529-1.3874006-3.7893164-4.79306754-9.5634742-7.5888016-15.6735-7.5888016s-11.8841836 2.79573406-15.6735 7.5888016c-.34296881.4329912-.26999122 1.0620312.16300002 1.405.43299123.3429688 1.06203118.2699912 1.40499998-.163z"/><path id="Shape" d="m34.3 15.892c.2215305.2818669.5769977.4235799.9316884.3714333s.6543286-.2901731.7853585-.6238735c.1310298-.3337003.0734009-.7120103-.1510469-.9915598-2.6555096-3.3514418-6.6970331-5.30556092-10.973-5.30556092s-8.3174904 1.95411912-10.973 5.30556092c-.3400208.4326294-.2666331 1.0586777.1642237 1.4009419.4308567.3422643 1.0572779.2721306 1.4017763-.1569419 2.2760964-2.8738403 5.7409976-4.5496073 9.407-4.5496073s7.1309036 1.675767 9.407 4.5496073z"/><path id="Shape" d="m24.89 15.34c-2.447223-.0096048-4.7611191 1.113929-6.267 3.043-.3407597.4354765-.2639765 1.0647403.1715 1.4055s1.0647403.2639765 1.4055-.1715c1.1329755-1.4377572 2.8624867-2.2768415 4.693-2.2768415s3.5600245.8390843 4.693 2.2768415c.2204329.281168.5741226.4233784.9278377.373062.3537151-.0503165.6537178-.2855155.787-.617s.0795952-.708894-.1408377-.990062c-1.5065269-1.9299064-3.8217249-3.0535344-6.27-3.043z"/></g></g></svg>